<?xml version="1.0" encoding="utf-8"?>
<!-- Generator: Adobe Illustrator 15.1.0, SVG Export Plug-In . SVG Version: 6.00 Build 0)  -->
<!DOCTYPE svg PUBLIC "-//W3C//DTD SVG 1.1//EN" "http://www.w3.org/Graphics/SVG/1.1/DTD/svg11.dtd">
<svg version="1.1" id="Warstwa_1" xmlns="http://www.w3.org/2000/svg" xmlns:xlink="http://www.w3.org/1999/xlink" x="0px" y="0px"
	 width="56px" height="56px" viewBox="0 0 56 56" enable-background="new 0 0 56 56" xml:space="preserve">
<path fill="#FFFFFF" d="M46.376,17.689c0.147-0.803,0.226-1.613,0.226-2.432c0-7.371-5.996-13.369-13.365-13.369
	c-4.535,0-8.7,2.276-11.169,6.014c-1.15-0.5-2.385-0.76-3.647-0.76c-5.107,0-9.269,4.16-9.269,9.264
	c0,0.102,0.002,0.203,0.012,0.311c-4.129,1.354-7.011,5.243-7.011,9.68c0,5.615,4.577,10.184,10.191,10.184h5.021
	c1.591,0,1.505-2.65,0-2.65h-5.021c-4.156,0-7.541-3.379-7.541-7.533c0-3.584,2.547-6.691,6.054-7.393l1.253-0.252l-0.207-1.265
	c-0.064-0.395-0.098-0.748-0.098-1.08c0-3.645,2.968-6.612,6.616-6.612c1.217,0,2.415,0.342,3.463,0.985l1.204,0.742l0.661-1.25
	c1.862-3.537,5.499-5.736,9.488-5.736c5.904,0,10.714,4.814,10.714,10.722c0,1.121-0.175,2.235-0.517,3.301l-0.607,1.861
	l2.059-0.134c0.104-0.008,0.211-0.016,0.314-0.016c3.766,0,6.832,3.063,6.832,6.828c0,3.768-3.066,6.832-6.832,6.832h-5.727
	c-1.72,0-1.986,2.65,0,2.65h5.727c5.227,0,9.48-4.254,9.48-9.482C54.68,22.271,51.048,18.275,46.376,17.689"/>
<path fill="#F5A714" d="M22.716,54.484c-0.236,0-0.472-0.064-0.683-0.195c-0.625-0.373-0.825-1.189-0.448-1.814l7.918-13.062h-8.279
	l9.331-13.239c0.424-0.601,1.248-0.748,1.848-0.326c0.599,0.424,0.74,1.25,0.326,1.85l-6.393,9.062h7.867L23.852,53.846
	C23.601,54.258,23.164,54.484,22.716,54.484"/>
</svg>
