<?xml version="1.0" encoding="utf-8"?>
<!-- Generator: Adobe Illustrator 15.1.0, SVG Export Plug-In . SVG Version: 6.00 Build 0)  -->
<!DOCTYPE svg PUBLIC "-//W3C//DTD SVG 1.1//EN" "http://www.w3.org/Graphics/SVG/1.1/DTD/svg11.dtd">
<svg version="1.1" id="Warstwa_1" xmlns="http://www.w3.org/2000/svg" xmlns:xlink="http://www.w3.org/1999/xlink" x="0px" y="0px"
	 width="56px" height="56px" viewBox="0 0 56 56" enable-background="new 0 0 56 56" xml:space="preserve">
<g>
	<path fill="#F5A714" d="M38.311,9.101c-0.677,0-1.231-0.553-1.231-1.229V4.476c0-0.673,0.555-1.226,1.231-1.226
		c0.671,0,1.222,0.553,1.222,1.226v3.396C39.532,8.548,38.981,9.101,38.311,9.101"/>
	<path fill="#F5A714" d="M52.818,20.255h-3.394c-0.676,0-1.226-0.548-1.226-1.224c0-0.679,0.55-1.228,1.226-1.228h3.394
		c0.675,0,1.231,0.549,1.231,1.228C54.05,19.707,53.493,20.255,52.818,20.255"/>
	<path fill="#F5A714" d="M46.52,12.312c-0.312,0-0.628-0.116-0.862-0.359c-0.481-0.479-0.481-1.257,0-1.733l2.396-2.4
		c0.477-0.477,1.257-0.477,1.736,0c0.476,0.482,0.476,1.261,0,1.738l-2.401,2.396C47.153,12.196,46.835,12.312,46.52,12.312"/>
	<path fill="#F5A714" d="M48.917,30.616c-0.309,0-0.629-0.117-0.863-0.354l-2.398-2.4c-0.479-0.482-0.479-1.256,0-1.738
		c0.48-0.477,1.255-0.477,1.734,0l2.399,2.4c0.478,0.479,0.478,1.256,0,1.738C49.548,30.499,49.233,30.616,48.917,30.616"/>
	<path fill="#F5A714" d="M30.471,12.48c-0.317,0-0.629-0.118-0.869-0.357l-2.399-2.401c-0.477-0.478-0.477-1.254,0-1.73
		c0.478-0.48,1.258-0.48,1.737,0l2.398,2.396c0.478,0.478,0.478,1.252,0,1.735C31.099,12.362,30.78,12.48,30.471,12.48"/>
	<path fill="#FFFFFF" d="M40.761,53.027H11.151c-5.132,0-9.311-4.178-9.311-9.31c0-4.021,2.591-7.551,6.309-8.815
		c0-0.063-0.004-0.121-0.004-0.187c0-4.672,3.809-8.479,8.482-8.479c1.113,0,2.217,0.224,3.244,0.649
		c2.242-3.351,6.011-5.387,10.105-5.387c6.715,0,12.178,5.463,12.178,12.18c0,0.698-0.059,1.396-0.186,2.08
		c4.215,0.596,7.465,4.219,7.465,8.59C49.435,49.134,45.545,53.027,40.761,53.027 M16.628,28.886c-3.216,0-5.832,2.613-5.832,5.83
		c0,0.291,0.026,0.604,0.084,0.953l0.215,1.262l-1.259,0.254c-3.103,0.619-5.345,3.364-5.345,6.533c0,3.671,2.979,6.658,6.66,6.658
		h29.609c3.32,0,6.024-2.704,6.024-6.027s-2.704-6.023-6.024-6.023c-0.1,0-0.199,0.008-0.303,0.014l-2.021,0.143l0.604-1.866
		c0.311-0.948,0.466-1.94,0.466-2.937c0-5.256-4.276-9.526-9.528-9.526c-3.548,0-6.778,1.952-8.432,5.093l-0.664,1.254l-1.209-0.74
		C18.755,29.183,17.703,28.886,16.628,28.886"/>
	<path fill="#F5A714" d="M39.831,11.196c-4.164-0.764-8.156,1.994-8.914,6.158c-0.064,0.358-0.1,0.707-0.107,1.055
		c-0.062,0.517,0.34,0.99,0.898,1.054c1.051,0.132,1.04-1.028,1.169-1.746c0.562-3.074,3.519-5.122,6.595-4.558
		c3.071,0.564,5.123,3.52,4.553,6.59c-0.125,0.705-0.299,1.394-0.713,1.994c-0.524,0.749-1.273,1.347-1.955,1.792
		c-0.574,0.381-0.271,1.284,0.42,1.419c0.828,0.171,1.496-0.435,2.09-0.971c0.721-0.647,1.265-1.5,1.654-2.381
		c0.213-0.474,0.375-0.984,0.472-1.494C46.753,15.946,43.995,11.953,39.831,11.196"/>
</g>
</svg>
