<?xml version="1.0" encoding="utf-8"?>
<!-- Generator: Adobe Illustrator 15.1.0, SVG Export Plug-In . SVG Version: 6.00 Build 0)  -->
<!DOCTYPE svg PUBLIC "-//W3C//DTD SVG 1.1//EN" "http://www.w3.org/Graphics/SVG/1.1/DTD/svg11.dtd">
<svg version="1.1" id="Warstwa_1" xmlns="http://www.w3.org/2000/svg" xmlns:xlink="http://www.w3.org/1999/xlink" x="0px" y="0px"
	 width="56px" height="56px" viewBox="0 0 56 56" enable-background="new 0 0 56 56" xml:space="preserve">
<g>
	<g>
		<g>
			<g>
				<path fill="#F5A714" d="M37.098,7.871c-0.58,0-1.056-0.474-1.056-1.054V3.905c0-0.577,0.476-1.052,1.056-1.052
					c0.575,0,1.048,0.475,1.048,1.052v2.912C38.146,7.397,37.673,7.871,37.098,7.871"/>
				<path fill="#F5A714" d="M49.54,17.438h-2.911c-0.579,0-1.051-0.471-1.051-1.05c0-0.582,0.472-1.053,1.051-1.053h2.911
					c0.578,0,1.056,0.471,1.056,1.053C50.596,16.967,50.118,17.438,49.54,17.438"/>
				<path fill="#F5A714" d="M44.138,10.626c-0.268,0-0.538-0.1-0.739-0.309c-0.413-0.411-0.413-1.078,0-1.486l2.055-2.059
					c0.409-0.409,1.078-0.409,1.489,0c0.408,0.414,0.408,1.081,0,1.49l-2.06,2.055C44.682,10.526,44.408,10.626,44.138,10.626"/>
				<path fill="#F5A714" d="M46.193,26.323c-0.265,0-0.539-0.101-0.74-0.304l-2.057-2.059c-0.411-0.413-0.411-1.077,0-1.49
					c0.412-0.409,1.076-0.409,1.487,0l2.058,2.059c0.41,0.411,0.41,1.077,0,1.49C46.734,26.223,46.465,26.323,46.193,26.323"/>
				<path fill="#F5A714" d="M30.374,10.77c-0.271,0-0.539-0.102-0.745-0.307l-2.058-2.059c-0.409-0.41-0.409-1.076,0-1.484
					c0.409-0.412,1.078-0.412,1.49,0l2.057,2.055c0.409,0.41,0.409,1.074,0,1.488C30.913,10.668,30.64,10.77,30.374,10.77"/>
				<path fill="#F5A714" d="M38.401,9.668c-3.57-0.654-6.994,1.711-7.645,5.281c-0.055,0.308-0.085,0.606-0.092,0.905
					c-0.053,0.442,0.291,0.849,0.771,0.903c0.901,0.113,0.892-0.882,1.002-1.497c0.482-2.637,3.018-4.393,5.656-3.909
					c2.634,0.484,4.394,3.019,3.904,5.651c-0.107,0.605-0.257,1.195-0.611,1.711c-0.45,0.642-1.092,1.154-1.677,1.536
					c-0.492,0.327-0.232,1.102,0.36,1.217c0.71,0.146,1.283-0.372,1.792-0.832c0.618-0.556,1.085-1.286,1.419-2.042
					c0.183-0.406,0.321-0.844,0.404-1.281C44.338,13.742,41.973,10.317,38.401,9.668"/>
			</g>
			<path fill="#FFFFFF" d="M40.631,30.717c0.118-0.642,0.182-1.289,0.182-1.944c0-5.868-4.775-10.644-10.646-10.644
				c-3.617,0-6.933,1.808-8.894,4.787c-0.917-0.398-1.908-0.605-2.908-0.605c-4.071,0-7.377,3.313-7.377,7.382v0.244
				c-3.284,1.079-5.584,4.181-5.584,7.708c0,4.477,3.645,8.119,8.121,8.119h3.994c1.272,0,1.201-2.115,0-2.115h-3.994
				c-3.314,0-6.008-2.691-6.008-6.004c0-2.848,2.027-5.326,4.821-5.885l0.997-0.199l-0.164-1.007
				c-0.05-0.315-0.073-0.595-0.073-0.861c0-2.906,2.362-5.27,5.267-5.27c0.968,0,1.919,0.272,2.756,0.787l0.965,0.59l0.521-0.996
				c1.485-2.816,4.379-4.563,7.56-4.563c4.708,0,8.535,3.825,8.535,8.532c0,0.897-0.143,1.782-0.415,2.638l-0.48,1.479l1.635-0.107
				c0.085-0.006,0.172-0.014,0.257-0.014c2.997,0,5.44,2.441,5.44,5.439c0,3.002-2.443,5.441-5.44,5.441h-4.563
				c-1.364,0-1.582,2.115,0,2.115h4.563c4.165,0,7.55-3.391,7.55-7.557C47.248,34.361,44.356,31.174,40.631,30.717"/>
		</g>
	</g>
	<path fill="#1B86D0" d="M22.795,47.129c-0.164,0-0.333-0.051-0.483-0.151c-0.378-0.269-0.466-0.792-0.199-1.168l1.542-2.193
		c0.267-0.379,0.791-0.47,1.167-0.203c0.382,0.267,0.47,0.788,0.205,1.171l-1.545,2.189C23.316,47.006,23.062,47.129,22.795,47.129"
		/>
	<path fill="#1B86D0" d="M26.494,47.129c-0.167,0-0.337-0.051-0.486-0.151c-0.376-0.269-0.47-0.792-0.204-1.168l1.547-2.193
		c0.268-0.379,0.792-0.47,1.17-0.203s0.468,0.788,0.202,1.171l-1.545,2.189C27.016,47.006,26.755,47.129,26.494,47.129"/>
	<path fill="#1B86D0" d="M30.19,47.129c-0.165,0-0.337-0.051-0.482-0.151c-0.377-0.269-0.471-0.792-0.204-1.168l1.543-2.193
		c0.27-0.379,0.794-0.47,1.17-0.203c0.378,0.267,0.471,0.788,0.202,1.171l-1.544,2.189C30.712,47.006,30.451,47.129,30.19,47.129"/>
	<path fill="#1B86D0" d="M18.846,53.146c-0.168,0-0.334-0.05-0.484-0.154c-0.375-0.266-0.468-0.79-0.197-1.169l1.539-2.19
		c0.267-0.377,0.792-0.466,1.172-0.2c0.378,0.265,0.469,0.787,0.202,1.168l-1.545,2.192C19.37,53.022,19.109,53.146,18.846,53.146"
		/>
	<path fill="#1B86D0" d="M22.545,53.146c-0.169,0-0.339-0.05-0.485-0.154c-0.375-0.266-0.468-0.79-0.202-1.169l1.546-2.19
		c0.267-0.377,0.79-0.466,1.168-0.2c0.378,0.265,0.468,0.787,0.2,1.168l-1.544,2.192C23.068,53.022,22.809,53.146,22.545,53.146"/>
	<path fill="#1B86D0" d="M26.237,53.146c-0.163,0-0.333-0.05-0.481-0.154c-0.377-0.266-0.466-0.79-0.198-1.169l1.541-2.19
		c0.267-0.377,0.788-0.466,1.168-0.2c0.378,0.265,0.469,0.787,0.203,1.168l-1.542,2.192C26.761,53.022,26.504,53.146,26.237,53.146"
		/>
</g>
</svg>
