<?xml version="1.0" encoding="utf-8"?>
<!-- Generator: Adobe Illustrator 15.1.0, SVG Export Plug-In . SVG Version: 6.00 Build 0)  -->
<!DOCTYPE svg PUBLIC "-//W3C//DTD SVG 1.1//EN" "http://www.w3.org/Graphics/SVG/1.1/DTD/svg11.dtd">
<svg version="1.1" id="Warstwa_1" xmlns="http://www.w3.org/2000/svg" xmlns:xlink="http://www.w3.org/1999/xlink" x="0px" y="0px"
	 width="56px" height="56px" viewBox="0 0 56 56" enable-background="new 0 0 56 56" xml:space="preserve">
<g>
	<g>
		<g>
			<g>
				<path fill="#F5A714" d="M37.098,7.871c-0.58,0-1.056-0.474-1.056-1.054V3.905c0-0.577,0.476-1.052,1.056-1.052
					c0.575,0,1.049,0.475,1.049,1.052v2.912C38.146,7.397,37.673,7.871,37.098,7.871"/>
				<path fill="#F5A714" d="M49.54,17.438h-2.911c-0.579,0-1.051-0.471-1.051-1.05c0-0.582,0.472-1.053,1.051-1.053h2.911
					c0.578,0,1.056,0.471,1.056,1.053C50.596,16.967,50.118,17.438,49.54,17.438"/>
				<path fill="#F5A714" d="M44.139,10.626c-0.269,0-0.539-0.1-0.74-0.309c-0.412-0.411-0.412-1.078,0-1.486l2.056-2.059
					c0.409-0.409,1.078-0.409,1.489,0c0.408,0.414,0.408,1.081,0,1.49l-2.061,2.055C44.682,10.526,44.408,10.626,44.139,10.626"/>
				<path fill="#F5A714" d="M46.193,26.323c-0.266,0-0.539-0.101-0.74-0.304l-2.057-2.059c-0.412-0.413-0.412-1.077,0-1.49
					c0.412-0.409,1.076-0.409,1.486,0l2.059,2.059c0.41,0.411,0.41,1.077,0,1.49C46.734,26.223,46.465,26.323,46.193,26.323"/>
				<path fill="#F5A714" d="M30.374,10.77c-0.271,0-0.539-0.102-0.745-0.307l-2.058-2.059c-0.409-0.41-0.409-1.076,0-1.484
					c0.409-0.412,1.078-0.412,1.49,0l2.058,2.055c0.409,0.41,0.409,1.074,0,1.488C30.913,10.668,30.641,10.77,30.374,10.77"/>
				<path fill="#F5A714" d="M38.4,9.668c-3.569-0.654-6.993,1.711-7.645,5.281c-0.055,0.308-0.085,0.606-0.092,0.905
					c-0.053,0.442,0.291,0.849,0.771,0.903c0.9,0.113,0.892-0.882,1.002-1.497c0.481-2.637,3.018-4.393,5.655-3.909
					c2.634,0.484,4.394,3.019,3.904,5.651c-0.106,0.605-0.257,1.195-0.61,1.711c-0.451,0.642-1.093,1.154-1.678,1.536
					c-0.492,0.327-0.232,1.102,0.359,1.217c0.711,0.146,1.283-0.372,1.793-0.832c0.617-0.556,1.084-1.286,1.418-2.042
					c0.184-0.406,0.322-0.844,0.404-1.281C44.338,13.742,41.973,10.317,38.4,9.668"/>
			</g>
			<path fill="#FFFFFF" d="M40.631,30.717c0.118-0.642,0.182-1.289,0.182-1.943c0-5.869-4.774-10.645-10.646-10.645
				c-3.617,0-6.933,1.808-8.894,4.787c-0.917-0.398-1.908-0.605-2.908-0.605c-4.071,0-7.377,3.313-7.377,7.382v0.244
				c-3.284,1.078-5.584,4.181-5.584,7.707c0,4.478,3.645,8.119,8.121,8.119h3.994c1.272,0,1.201-2.115,0-2.115h-3.994
				c-3.314,0-6.008-2.69-6.008-6.004c0-2.848,2.027-5.326,4.821-5.885l0.997-0.199l-0.164-1.006
				c-0.05-0.316-0.073-0.596-0.073-0.861c0-2.906,2.362-5.271,5.267-5.271c0.968,0,1.919,0.272,2.756,0.787l0.965,0.59l0.521-0.996
				c1.485-2.816,4.379-4.563,7.56-4.563c4.708,0,8.535,3.825,8.535,8.532c0,0.896-0.144,1.781-0.415,2.638l-0.48,1.479l1.635-0.107
				c0.086-0.006,0.172-0.014,0.258-0.014c2.996,0,5.439,2.44,5.439,5.438c0,3.002-2.443,5.44-5.439,5.44h-4.563
				c-1.364,0-1.581,2.115,0,2.115h4.563c4.164,0,7.55-3.391,7.55-7.557C47.248,34.361,44.355,31.174,40.631,30.717"/>
		</g>
	</g>
</g>
<path fill="#71B7D3" d="M32.343,48.044l-3.103,0.008v0.005c-0.065-0.253-0.166-0.494-0.301-0.714l1.393-1.401
	c0.257-0.26,0.257-0.678-0.002-0.937c-0.261-0.256-0.679-0.254-0.938,0.007L28,46.413c-0.219-0.133-0.461-0.233-0.71-0.294
	l-0.013-3.103c0-0.368-0.297-0.663-0.666-0.66c-0.362,0.002-0.664,0.298-0.656,0.664l0.008,3.104
	c-0.255,0.062-0.491,0.163-0.71,0.296l-1.327-1.315c-0.258-0.26-0.677-0.258-0.937,0c-0.257,0.261-0.257,0.681,0,0.938l1.329,1.319
	l0.003-0.004c-0.132,0.221-0.235,0.464-0.299,0.723c0.005-0.003,0.005-0.004,0.005-0.004l-3.105,0.008
	c-0.365,0-0.66,0.3-0.656,0.667c0,0.366,0.296,0.659,0.662,0.658l3.102-0.013v-0.004c0.066,0.254,0.167,0.496,0.299,0.716
	l-1.392,1.401c-0.258,0.259-0.256,0.685,0.005,0.939c0.127,0.129,0.298,0.191,0.47,0.191c0.168-0.004,0.335-0.067,0.466-0.195
	l1.392-1.402c0.219,0.131,0.461,0.229,0.714,0.294l0.011,3.102c0,0.368,0.301,0.661,0.662,0.659c0.368,0,0.662-0.296,0.661-0.662
	l-0.009-3.106c0.254-0.064,0.497-0.168,0.714-0.298H28.02l1.323,1.318c0.13,0.132,0.3,0.191,0.47,0.191
	c0.169,0,0.339-0.064,0.469-0.196c0.259-0.26,0.258-0.675-0.001-0.936l-1.329-1.315c0,0,0,0.003-0.003,0.003
	c0.131-0.221,0.229-0.461,0.295-0.716l3.104-0.014c0.361-0.002,0.662-0.297,0.655-0.665C33.002,48.339,32.707,48.04,32.343,48.044
	 M26.635,49.759c-0.57,0.002-1.034-0.458-1.036-1.026c-0.005-0.571,0.458-1.038,1.032-1.042c0.569,0,1.036,0.46,1.036,1.033
	C27.672,49.294,27.208,49.758,26.635,49.759"/>
</svg>
