<?xml version="1.0" encoding="utf-8"?>
<!-- Generator: Adobe Illustrator 15.1.0, SVG Export Plug-In . SVG Version: 6.00 Build 0)  -->
<!DOCTYPE svg PUBLIC "-//W3C//DTD SVG 1.1//EN" "http://www.w3.org/Graphics/SVG/1.1/DTD/svg11.dtd">
<svg version="1.1" id="Warstwa_1" xmlns="http://www.w3.org/2000/svg" xmlns:xlink="http://www.w3.org/1999/xlink" x="0px" y="0px"
	 width="56px" height="56px" viewBox="0 0 56 56" enable-background="new 0 0 56 56" xml:space="preserve">
<g>
	<path fill="#F5A714" d="M27.945,14.456c-0.729,0-1.323-0.59-1.323-1.324V8.558c0-0.729,0.594-1.327,1.323-1.327
		c0.734,0,1.324,0.599,1.324,1.327v4.574C29.27,13.866,28.68,14.456,27.945,14.456"/>
	<path fill="#F5A714" d="M27.945,49.047c-0.729,0-1.323-0.595-1.323-1.327v-4.573c0-0.732,0.594-1.324,1.323-1.324
		c0.734,0,1.324,0.592,1.324,1.324v4.573C29.27,48.452,28.68,49.047,27.945,49.047"/>
	<path fill="#F5A714" d="M12.939,29.464H8.368c-0.732,0-1.326-0.592-1.326-1.326c0-0.733,0.594-1.32,1.326-1.32h4.571
		c0.733,0,1.323,0.587,1.323,1.32C14.263,28.872,13.673,29.464,12.939,29.464"/>
	<path fill="#F5A714" d="M47.53,29.464h-4.573c-0.736,0-1.326-0.592-1.326-1.324c0-0.729,0.59-1.322,1.326-1.322h4.573
		c0.729,0,1.317,0.594,1.317,1.322C48.848,28.872,48.26,29.464,47.53,29.464"/>
	<path fill="#F5A714" d="M39.034,18.746c-0.337,0-0.679-0.13-0.937-0.388c-0.52-0.516-0.52-1.355,0-1.87l3.239-3.237
		c0.515-0.518,1.351-0.518,1.873,0c0.513,0.517,0.513,1.359-0.009,1.875l-3.229,3.232C39.712,18.616,39.372,18.746,39.034,18.746"/>
	<path fill="#F5A714" d="M14.134,43.646c-0.342,0-0.677-0.129-0.935-0.387c-0.521-0.519-0.521-1.357-0.005-1.877l3.236-3.23
		c0.521-0.516,1.357-0.516,1.873,0c0.521,0.515,0.521,1.355,0,1.874l-3.233,3.233C14.812,43.517,14.474,43.646,14.134,43.646"/>
	<path fill="#F5A714" d="M42.272,43.452c-0.345,0-0.681-0.133-0.937-0.392l-3.239-3.234c-0.519-0.518-0.519-1.354,0-1.871
		c0.52-0.52,1.358-0.52,1.876,0l3.229,3.237c0.521,0.516,0.521,1.354,0.008,1.868C42.948,43.319,42.609,43.452,42.272,43.452"/>
	<path fill="#F5A714" d="M17.37,18.974c-0.34,0-0.676-0.127-0.939-0.392l-3.23-3.233c-0.521-0.519-0.521-1.354,0-1.869
		c0.517-0.516,1.354-0.516,1.871,0l3.232,3.233c0.522,0.519,0.522,1.356,0,1.869C18.046,18.847,17.71,18.974,17.37,18.974"/>
	<path fill="#F5A714" d="M27.945,19.725c4.646,0,8.422,3.771,8.422,8.412c0,4.642-3.775,8.422-8.422,8.422
		c-4.642,0-8.416-3.78-8.416-8.422C19.529,23.496,23.304,19.725,27.945,19.725 M27.945,17.071c-6.11,0-11.065,4.956-11.065,11.065
		c0,6.121,4.955,11.069,11.065,11.069c6.111,0,11.066-4.948,11.066-11.069C39.012,22.027,34.057,17.071,27.945,17.071"/>
</g>
</svg>
