<?xml version="1.0" encoding="utf-8"?>
<!-- Generator: Adobe Illustrator 15.1.0, SVG Export Plug-In . SVG Version: 6.00 Build 0)  -->
<!DOCTYPE svg PUBLIC "-//W3C//DTD SVG 1.1//EN" "http://www.w3.org/Graphics/SVG/1.1/DTD/svg11.dtd">
<svg version="1.1" id="Warstwa_1" xmlns="http://www.w3.org/2000/svg" xmlns:xlink="http://www.w3.org/1999/xlink" x="0px" y="0px"
	 width="56px" height="56px" viewBox="0 0 56 56" enable-background="new 0 0 56 56" xml:space="preserve">
<g>
	<path fill="#FFFFFF" d="M44.727,45.484H11.869c-5.616,0-10.188-4.574-10.188-10.19c0-4.429,2.883-8.323,7.009-9.679
		c-0.008-0.101-0.009-0.205-0.009-0.307c0-5.105,4.159-9.261,9.265-9.261c1.261,0,2.499,0.257,3.651,0.757
		c2.462-3.739,6.63-6.012,11.169-6.012c7.367,0,13.361,5.988,13.361,13.365c0,0.818-0.076,1.634-0.225,2.436
		c4.672,0.579,8.307,4.583,8.307,9.407C54.209,41.227,49.957,45.484,44.727,45.484 M17.945,18.697c-3.648,0-6.615,2.972-6.615,6.611
		c0,0.332,0.035,0.686,0.098,1.081l0.208,1.265l-1.251,0.25c-3.507,0.703-6.056,3.813-6.056,7.39c0,4.157,3.387,7.534,7.54,7.534
		h32.857c3.768,0,6.836-3.062,6.836-6.827s-3.068-6.826-6.836-6.826c-0.107,0-0.219,0.004-0.324,0.014l-2.045,0.137l0.596-1.86
		c0.348-1.066,0.52-2.181,0.52-3.307c0-5.91-4.805-10.717-10.707-10.717c-3.994,0-7.631,2.193-9.49,5.733l-0.662,1.253l-1.203-0.743
		C20.36,19.039,19.158,18.697,17.945,18.697"/>
</g>
</svg>
