<?xml version="1.0" encoding="utf-8"?>
<!-- Generator: Adobe Illustrator 15.1.0, SVG Export Plug-In . SVG Version: 6.00 Build 0)  -->
<!DOCTYPE svg PUBLIC "-//W3C//DTD SVG 1.1//EN" "http://www.w3.org/Graphics/SVG/1.1/DTD/svg11.dtd">
<svg version="1.1" id="Warstwa_1" xmlns="http://www.w3.org/2000/svg" xmlns:xlink="http://www.w3.org/1999/xlink" x="0px" y="0px"
	 width="56px" height="56px" viewBox="0 0 56 56" enable-background="new 0 0 56 56" xml:space="preserve">
<g>
	<g>
		<path fill="#FFFFFF" d="M40.631,30.254c0.118-0.643,0.182-1.289,0.182-1.944c0-5.868-4.774-10.644-10.646-10.644
			c-3.617,0-6.933,1.808-8.894,4.788c-0.917-0.398-1.908-0.605-2.908-0.605c-4.071,0-7.377,3.313-7.377,7.381v0.244
			c-3.284,1.08-5.584,4.182-5.584,7.707c0,4.478,3.645,8.119,8.121,8.119h3.994c1.272,0,1.201-2.113,0-2.113h-3.994
			c-3.314,0-6.008-2.692-6.008-6.006c0-2.847,2.027-5.326,4.821-5.884l0.997-0.2l-0.164-1.006c-0.05-0.314-0.073-0.595-0.073-0.861
			c0-2.906,2.362-5.27,5.267-5.27c0.968,0,1.919,0.273,2.756,0.787l0.965,0.59l0.521-0.996c1.485-2.816,4.379-4.563,7.56-4.563
			c4.708,0,8.535,3.826,8.535,8.533c0,0.897-0.144,1.782-0.415,2.637l-0.48,1.479l1.635-0.107c0.086-0.006,0.172-0.014,0.258-0.014
			c2.996,0,5.439,2.441,5.439,5.44c0,3.002-2.443,5.44-5.439,5.44h-4.562c-1.365,0-1.582,2.114,0,2.114h4.562
			c4.164,0,7.55-3.391,7.55-7.556C47.248,33.896,44.355,30.711,40.631,30.254"/>
	</g>
	<g>
		<path fill="#1B86D0" d="M22.029,53.609c-0.099,0-0.197-0.021-0.296-0.062c-0.381-0.164-0.562-0.604-0.399-0.988l5.297-12.479
			c0.162-0.385,0.605-0.562,0.99-0.4c0.382,0.164,0.562,0.606,0.4,0.99l-5.299,12.479C22.602,53.436,22.323,53.609,22.029,53.609"/>
		<path fill="#1B86D0" d="M26.906,50.307c-0.095,0-0.194-0.021-0.29-0.061c-0.384-0.157-0.569-0.598-0.409-0.984l3.753-9.099
			c0.156-0.384,0.599-0.567,0.983-0.41c0.386,0.158,0.568,0.601,0.412,0.983l-3.753,9.104
			C27.482,50.127,27.201,50.307,26.906,50.307"/>
		<path fill="#1B86D0" d="M20.019,50.307c-0.098,0-0.195-0.021-0.289-0.061c-0.384-0.157-0.568-0.598-0.407-0.984l3.749-9.099
			c0.157-0.384,0.601-0.567,0.985-0.41c0.385,0.158,0.569,0.601,0.409,0.983l-3.751,9.104
			C20.597,50.127,20.315,50.307,20.019,50.307"/>
	</g>
</g>
<g>
	<path fill="#71B7D3" d="M42.919,28.017c-0.386-0.016-0.754-0.231-0.944-0.601c-0.281-0.546-0.067-1.216,0.479-1.499
		c4.776-2.467,6.253-7.81,5.597-12.011c-0.411-2.636-2.217-5.101-3.769-6.527c-1.212-1.114-3.635-2.642-5.802-3.336
		c0.768,1.835,1.498,3.707,1.663,4.789c0.584,3.816-0.147,6.783-2.236,9.07c-0.413,0.454-1.118,0.486-1.571,0.072
		c-0.453-0.415-0.485-1.118-0.071-1.572c1.606-1.758,2.155-4.125,1.681-7.233c-0.169-1.1-1.35-3.876-1.917-5.209
		c-0.529-1.246-0.64-1.504-0.279-2.026l0.348-0.504l0.613,0.024c3.149,0.127,7.279,2.634,9.078,4.29
		c0.888,0.816,3.831,3.791,4.46,7.821c0.937,5.996-1.785,11.755-6.773,14.331C43.297,27.985,43.105,28.024,42.919,28.017z"/>
</g>
</svg>
