<?xml version="1.0" encoding="utf-8"?>
<!-- Generator: Adobe Illustrator 15.1.0, SVG Export Plug-In . SVG Version: 6.00 Build 0)  -->
<!DOCTYPE svg PUBLIC "-//W3C//DTD SVG 1.1//EN" "http://www.w3.org/Graphics/SVG/1.1/DTD/svg11.dtd">
<svg version="1.1" id="Warstwa_1" xmlns="http://www.w3.org/2000/svg" xmlns:xlink="http://www.w3.org/1999/xlink" x="0px" y="0px"
	 width="56px" height="56px" viewBox="0 0 56 56" enable-background="new 0 0 56 56" xml:space="preserve">
<g>
	<g>
		<g>
			<g>
				<path fill="#FFFFFF" d="M40.631,30.121c0.118-0.643,0.182-1.289,0.182-1.945c0-5.868-4.774-10.644-10.646-10.644
					c-3.617,0-6.933,1.808-8.894,4.787c-0.917-0.398-1.908-0.605-2.908-0.605c-4.071,0-7.377,3.313-7.377,7.382v0.244
					c-3.284,1.079-5.584,4.182-5.584,7.708c0,4.478,3.645,8.119,8.121,8.119h3.994c1.272,0,1.201-2.115,0-2.115h-3.994
					c-3.314,0-6.008-2.69-6.008-6.004c0-2.848,2.027-5.325,4.821-5.885l0.997-0.199l-0.164-1.007
					c-0.05-0.314-0.073-0.596-0.073-0.861c0-2.907,2.362-5.27,5.267-5.27c0.968,0,1.919,0.272,2.756,0.787l0.965,0.59l0.521-0.996
					c1.485-2.816,4.379-4.563,7.56-4.563c4.708,0,8.535,3.825,8.535,8.532c0,0.898-0.144,1.783-0.415,2.639l-0.48,1.479l1.635-0.107
					c0.086-0.006,0.172-0.014,0.258-0.014c2.996,0,5.439,2.441,5.439,5.439c0,3.002-2.443,5.44-5.439,5.44h-4.562
					c-1.365,0-1.582,2.115,0,2.115h4.562c4.164,0,7.55-3.392,7.55-7.558C47.248,33.766,44.355,30.578,40.631,30.121"/>
			</g>
		</g>
	</g>
	<path fill="#71B7D3" d="M31.023,48.158c0.406-0.534,0.307-1.291-0.225-1.701c-0.527-0.402-1.29-0.305-1.699,0.229
		c-0.404,0.527-0.307,1.289,0.229,1.694C29.854,48.789,30.616,48.688,31.023,48.158"/>
	<path fill="#71B7D3" d="M23.552,48.158c0.408-0.534,0.307-1.295-0.221-1.701c-0.536-0.402-1.296-0.305-1.704,0.229
		c-0.406,0.527-0.306,1.289,0.224,1.694C22.386,48.789,23.146,48.688,23.552,48.158"/>
	<path fill="#71B7D3" d="M27.287,53.268c0.406-0.531,0.307-1.289-0.226-1.699c-0.531-0.407-1.29-0.303-1.696,0.228
		c-0.408,0.53-0.305,1.291,0.225,1.697C26.122,53.9,26.879,53.8,27.287,53.268"/>
	<path fill="#71B7D3" d="M27.287,43.046c0.406-0.532,0.307-1.292-0.226-1.698c-0.531-0.408-1.29-0.307-1.696,0.227
		c-0.408,0.527-0.305,1.287,0.225,1.693C26.122,43.676,26.879,43.578,27.287,43.046"/>
</g>
<g>
	<path fill="#71B7D3" d="M43.297,27.999c-0.386-0.016-0.754-0.232-0.944-0.601c-0.281-0.546-0.067-1.217,0.479-1.498
		c4.776-2.467,6.253-7.81,5.597-12.011c-0.411-2.636-2.217-5.101-3.769-6.527c-1.212-1.114-3.635-2.642-5.802-3.336
		c0.768,1.835,1.498,3.707,1.663,4.789c0.584,3.816-0.147,6.783-2.236,9.07c-0.413,0.454-1.118,0.486-1.571,0.072
		c-0.453-0.415-0.485-1.118-0.071-1.572c1.606-1.758,2.155-4.125,1.681-7.233c-0.169-1.1-1.35-3.876-1.917-5.209
		c-0.529-1.246-0.64-1.504-0.279-2.026l0.348-0.504l0.613,0.024c3.149,0.127,7.279,2.634,9.078,4.29
		c0.888,0.816,3.831,3.791,4.46,7.821c0.937,5.996-1.785,11.755-6.773,14.331C43.675,27.968,43.483,28.007,43.297,27.999z"/>
</g>
</svg>
