<?xml version="1.0" encoding="utf-8"?>
<!-- Generator: Adobe Illustrator 15.1.0, SVG Export Plug-In . SVG Version: 6.00 Build 0)  -->
<!DOCTYPE svg PUBLIC "-//W3C//DTD SVG 1.1//EN" "http://www.w3.org/Graphics/SVG/1.1/DTD/svg11.dtd">
<svg version="1.1" id="Warstwa_1" xmlns="http://www.w3.org/2000/svg" xmlns:xlink="http://www.w3.org/1999/xlink" x="0px" y="0px"
	 width="56px" height="56px" viewBox="0 0 56 56" enable-background="new 0 0 56 56" xml:space="preserve">
<g>
	<path fill="#FFFFFF" d="M45.972,17.622c0.143-0.805,0.225-1.62,0.225-2.445c0-7.398-6.02-13.414-13.412-13.414
		c-4.553,0-8.732,2.282-11.204,6.03c-1.156-0.498-2.398-0.756-3.665-0.756c-5.126,0-9.298,4.172-9.298,9.297
		c0,0.102,0.003,0.203,0.003,0.307c-4.133,1.356-7.027,5.268-7.027,9.708c0,5.641,4.585,10.224,10.226,10.224h5.033
		c1.602,0,1.513-2.66,0-2.66h-5.033c-4.172,0-7.563-3.387-7.563-7.564c0-3.588,2.554-6.711,6.07-7.413l1.261-0.25l-0.21-1.27
		c-0.066-0.396-0.099-0.754-0.099-1.083c0-3.661,2.976-6.639,6.638-6.639c1.223,0,2.424,0.342,3.472,0.99l1.216,0.744l0.66-1.254
		c1.868-3.55,5.517-5.753,9.521-5.753c5.924,0,10.752,4.823,10.752,10.755c0,1.132-0.18,2.247-0.52,3.316l-0.611,1.868l2.065-0.138
		c0.104-0.006,0.21-0.02,0.323-0.02c3.775,0,6.854,3.073,6.854,6.858c0,3.78-3.078,6.852-6.854,6.852h-5.756
		c-1.721,0-1.982,2.66,0,2.66h5.756c5.24,0,9.504-4.269,9.504-9.512C54.298,22.215,50.661,18.203,45.972,17.622"/>
	<path fill="#71B7D3" d="M35.886,44.956c0.695-0.915,0.523-2.211-0.384-2.912c-0.904-0.691-2.208-0.521-2.909,0.39
		c-0.691,0.904-0.523,2.207,0.391,2.9C33.882,46.035,35.188,45.862,35.886,44.956"/>
	<path fill="#71B7D3" d="M23.097,44.956c0.699-0.915,0.526-2.217-0.378-2.912c-0.916-0.691-2.217-0.521-2.915,0.39
		c-0.695,0.904-0.523,2.207,0.382,2.9C21.102,46.035,22.401,45.862,23.097,44.956"/>
	<path fill="#71B7D3" d="M29.491,53.697c0.695-0.907,0.523-2.204-0.387-2.905c-0.91-0.698-2.209-0.521-2.903,0.387
		c-0.698,0.908-0.521,2.211,0.384,2.906C27.496,54.783,28.791,54.611,29.491,53.697"/>
	<path fill="#71B7D3" d="M29.491,36.207c0.695-0.913,0.523-2.213-0.387-2.908c-0.91-0.697-2.209-0.524-2.903,0.387
		c-0.698,0.904-0.521,2.205,0.384,2.9C27.496,37.285,28.791,37.116,29.491,36.207"/>
</g>
</svg>
