<?xml version="1.0" encoding="utf-8"?>
<!-- Generator: Adobe Illustrator 15.1.0, SVG Export Plug-In . SVG Version: 6.00 Build 0)  -->
<!DOCTYPE svg PUBLIC "-//W3C//DTD SVG 1.1//EN" "http://www.w3.org/Graphics/SVG/1.1/DTD/svg11.dtd">
<svg version="1.1" id="Warstwa_1" xmlns="http://www.w3.org/2000/svg" xmlns:xlink="http://www.w3.org/1999/xlink" x="0px" y="0px"
	 width="56px" height="56px" viewBox="0 0 56 56" enable-background="new 0 0 56 56" xml:space="preserve">
<g>
	<path fill="#FFFFFF" d="M40.762,53.027H11.151c-5.132,0-9.311-4.178-9.311-9.311c0-4.021,2.591-7.551,6.309-8.814
		c0-0.063-0.004-0.121-0.004-0.188c0-4.672,3.809-8.479,8.482-8.479c1.113,0,2.217,0.224,3.244,0.649
		c2.242-3.351,6.011-5.387,10.105-5.387c6.715,0,12.178,5.463,12.178,12.18c0,0.698-0.059,1.396-0.187,2.08
		c4.216,0.596,7.466,4.219,7.466,8.59C49.436,49.134,45.545,53.027,40.762,53.027 M16.628,28.886c-3.216,0-5.832,2.613-5.832,5.83
		c0,0.291,0.026,0.604,0.084,0.953l0.215,1.263l-1.259,0.254c-3.103,0.619-5.345,3.363-5.345,6.532c0,3.671,2.979,6.658,6.66,6.658
		H40.76c3.32,0,6.024-2.704,6.024-6.026c0-3.324-2.704-6.023-6.024-6.023c-0.1,0-0.199,0.008-0.303,0.014l-2.021,0.143l0.604-1.865
		c0.312-0.948,0.466-1.94,0.466-2.938c0-5.256-4.275-9.526-9.527-9.526c-3.548,0-6.778,1.952-8.433,5.093l-0.664,1.254l-1.209-0.74
		C18.755,29.184,17.703,28.886,16.628,28.886"/>
</g>
<g>
	<path fill="#71B7D3" d="M44.652,32.042c-0.386-0.016-0.754-0.232-0.944-0.602c-0.281-0.546-0.067-1.217,0.479-1.498
		c4.776-2.467,6.253-7.811,5.597-12.012c-0.411-2.636-2.217-5.1-3.769-6.527c-1.212-1.114-3.635-2.642-5.802-3.336
		c0.768,1.835,1.498,3.707,1.663,4.789c0.584,3.816-0.147,6.783-2.236,9.07c-0.413,0.453-1.118,0.485-1.571,0.071
		c-0.453-0.415-0.485-1.118-0.071-1.572c1.606-1.758,2.155-4.125,1.681-7.233c-0.169-1.1-1.35-3.876-1.917-5.209
		c-0.529-1.246-0.64-1.504-0.279-2.026l0.348-0.504l0.613,0.024c3.149,0.127,7.279,2.634,9.078,4.29
		c0.888,0.816,3.831,3.791,4.46,7.821c0.937,5.996-1.785,11.755-6.773,14.331C45.03,32.01,44.839,32.049,44.652,32.042z"/>
</g>
</svg>
