<?xml version="1.0" encoding="utf-8"?>
<!-- Generator: Adobe Illustrator 15.1.0, SVG Export Plug-In . SVG Version: 6.00 Build 0)  -->
<!DOCTYPE svg PUBLIC "-//W3C//DTD SVG 1.1//EN" "http://www.w3.org/Graphics/SVG/1.1/DTD/svg11.dtd">
<svg version="1.1" id="Warstwa_1" xmlns="http://www.w3.org/2000/svg" xmlns:xlink="http://www.w3.org/1999/xlink" x="0px" y="0px"
	 width="56px" height="56px" viewBox="0 0 56 56" enable-background="new 0 0 56 56" xml:space="preserve">
<g>
	<path fill="#FFFFFF" d="M28.992,53.402H8.979c-3.711,0-6.722-3.021-6.722-6.723c0-2.794,1.737-5.265,4.265-6.261
		c0.096-3.312,2.818-5.983,6.158-5.983c0.692,0,1.381,0.121,2.031,0.354c1.611-2.219,4.195-3.551,6.989-3.551
		c4.774,0,8.655,3.885,8.655,8.658c0,0.354-0.021,0.709-0.062,1.059c2.84,0.602,4.985,3.133,4.985,6.154
		C35.281,50.578,32.457,53.402,28.992,53.402 M12.681,37.086c-1.937,0-3.515,1.572-3.515,3.514c0,0.176,0.023,0.355,0.058,0.566
		l0.208,1.268l-1.26,0.252c-1.89,0.377-3.268,2.058-3.268,3.994c0,2.244,1.828,4.072,4.075,4.072h20.013
		c2.006,0,3.645-1.635,3.645-3.643s-1.639-3.646-3.645-3.646c-0.059,0-0.115,0.006-0.168,0.011l-1.968,0.137l0.562-1.863
		c0.197-0.6,0.291-1.225,0.291-1.852c0-3.312-2.694-6.015-6.008-6.015c-2.239,0-4.278,1.236-5.318,3.218l-0.659,1.252l-1.208-0.742
		C13.963,37.266,13.326,37.086,12.681,37.086"/>
</g>
<g>
	<path fill="#71B7D3" d="M37.304,43.504c-0.534,0.022-1.067-0.236-1.373-0.723c-0.449-0.722-0.231-1.672,0.49-2.122
		c6.312-3.952,7.739-11.495,6.354-17.218c-0.869-3.592-3.642-6.788-5.947-8.58c-1.8-1.4-5.318-3.232-8.389-3.943
		c1.27,2.446,2.491,4.946,2.843,6.419c1.24,5.201,0.57,9.381-2.052,12.775c-0.52,0.673-1.489,0.798-2.161,0.278
		c-0.674-0.521-0.798-1.487-0.278-2.163c2.017-2.609,2.503-5.938,1.494-10.176c-0.358-1.499-2.305-5.196-3.24-6.973
		c-0.873-1.659-1.055-2.002-0.617-2.764l0.422-0.735l0.848-0.038c4.363-0.184,10.349,2.806,13.022,4.886
		c1.319,1.025,5.721,4.795,7.048,10.287c1.979,8.17-1.121,16.429-7.714,20.554C37.821,43.416,37.561,43.491,37.304,43.504z"/>
</g>
</svg>
