<?xml version="1.0" encoding="utf-8"?>
<!-- Generator: Adobe Illustrator 15.1.0, SVG Export Plug-In . SVG Version: 6.00 Build 0)  -->
<!DOCTYPE svg PUBLIC "-//W3C//DTD SVG 1.1//EN" "http://www.w3.org/Graphics/SVG/1.1/DTD/svg11.dtd">
<svg version="1.1" id="Warstwa_1" xmlns="http://www.w3.org/2000/svg" xmlns:xlink="http://www.w3.org/1999/xlink" x="0px" y="0px"
	 width="56px" height="56px" viewBox="0 0 56 56" enable-background="new 0 0 56 56" xml:space="preserve">
<g>
	<g>
		<g>
			<g>
				<path fill="#F5A714" d="M49.54,17.438"/>
				<path fill="#F5A714" d="M38.4,9.668"/>
			</g>
			<path fill="#FFFFFF" d="M40.631,30.717c0.118-0.642,0.182-1.289,0.182-1.943c0-5.868-4.774-10.645-10.646-10.645
				c-3.617,0-6.933,1.808-8.894,4.787c-0.917-0.398-1.908-0.605-2.908-0.605c-4.071,0-7.377,3.313-7.377,7.382v0.244
				c-3.284,1.078-5.584,4.181-5.584,7.707c0,4.478,3.645,8.119,8.121,8.119h3.994c1.272,0,1.201-2.115,0-2.115h-3.994
				c-3.314,0-6.008-2.69-6.008-6.004c0-2.848,2.027-5.326,4.821-5.885l0.997-0.199l-0.164-1.006
				c-0.05-0.315-0.073-0.596-0.073-0.861c0-2.906,2.362-5.271,5.267-5.271c0.968,0,1.919,0.272,2.756,0.787l0.965,0.59l0.521-0.996
				c1.485-2.816,4.379-4.563,7.56-4.563c4.708,0,8.535,3.825,8.535,8.532c0,0.896-0.144,1.781-0.415,2.638l-0.48,1.479l1.635-0.107
				c0.086-0.006,0.172-0.014,0.258-0.014c2.996,0,5.439,2.44,5.439,5.438c0,3.002-2.443,5.44-5.439,5.44h-4.562
				c-1.365,0-1.582,2.115,0,2.115h4.562c4.164,0,7.55-3.391,7.55-7.557C47.248,34.361,44.355,31.174,40.631,30.717"/>
		</g>
	</g>
	<path fill="#1B86D0" d="M22.795,47.129c-0.164,0-0.333-0.051-0.483-0.15c-0.378-0.27-0.466-0.793-0.199-1.168l1.542-2.193
		c0.267-0.379,0.791-0.471,1.167-0.203c0.382,0.268,0.47,0.788,0.205,1.171l-1.545,2.188C23.316,47.006,23.062,47.129,22.795,47.129
		"/>
	<path fill="#1B86D0" d="M26.494,47.129c-0.167,0-0.337-0.051-0.486-0.15c-0.376-0.27-0.47-0.793-0.204-1.168l1.547-2.193
		c0.268-0.379,0.792-0.471,1.17-0.203c0.377,0.268,0.467,0.788,0.201,1.171l-1.544,2.188C27.016,47.006,26.755,47.129,26.494,47.129
		"/>
	<path fill="#1B86D0" d="M30.189,47.129c-0.164,0-0.336-0.051-0.481-0.15c-0.377-0.27-0.472-0.793-0.204-1.168l1.543-2.193
		c0.27-0.379,0.794-0.471,1.17-0.203c0.379,0.268,0.471,0.788,0.202,1.171l-1.544,2.188C30.712,47.006,30.451,47.129,30.189,47.129"
		/>
	<path fill="#1B86D0" d="M18.846,53.146c-0.168,0-0.334-0.051-0.484-0.154c-0.375-0.266-0.468-0.79-0.197-1.169l1.539-2.19
		c0.267-0.377,0.792-0.466,1.172-0.199c0.378,0.265,0.469,0.786,0.202,1.168l-1.545,2.191C19.37,53.021,19.109,53.146,18.846,53.146
		"/>
	<path fill="#1B86D0" d="M22.545,53.146c-0.169,0-0.339-0.051-0.485-0.154c-0.375-0.266-0.468-0.79-0.202-1.169l1.546-2.19
		c0.267-0.377,0.79-0.466,1.168-0.199c0.378,0.265,0.468,0.786,0.2,1.168l-1.544,2.191C23.068,53.021,22.809,53.146,22.545,53.146"
		/>
	<path fill="#1B86D0" d="M26.237,53.146c-0.163,0-0.333-0.051-0.481-0.154c-0.377-0.266-0.466-0.79-0.198-1.169l1.541-2.19
		c0.267-0.377,0.788-0.466,1.168-0.199c0.377,0.265,0.469,0.786,0.203,1.168l-1.542,2.191
		C26.761,53.021,26.504,53.146,26.237,53.146"/>
</g>
<g>
	<path fill="#71B7D3" d="M42.989,28.851c-0.386-0.016-0.754-0.231-0.944-0.601c-0.281-0.546-0.067-1.216,0.479-1.499
		c4.776-2.467,6.253-7.81,5.597-12.011c-0.411-2.636-2.217-5.101-3.769-6.527c-1.212-1.114-3.635-2.642-5.802-3.336
		c0.768,1.835,1.498,3.707,1.663,4.789c0.584,3.816-0.147,6.783-2.236,9.07c-0.413,0.454-1.118,0.486-1.571,0.072
		c-0.453-0.415-0.485-1.118-0.071-1.572c1.606-1.758,2.155-4.125,1.681-7.233c-0.169-1.1-1.35-3.876-1.917-5.209
		c-0.529-1.246-0.64-1.504-0.279-2.026l0.348-0.504l0.613,0.024c3.149,0.127,7.279,2.634,9.078,4.29
		c0.888,0.816,3.831,3.791,4.46,7.821c0.937,5.996-1.785,11.755-6.773,14.332C43.367,28.818,43.176,28.857,42.989,28.851z"/>
</g>
</svg>
