<?xml version="1.0" encoding="utf-8"?>
<!-- Generator: Adobe Illustrator 15.1.0, SVG Export Plug-In . SVG Version: 6.00 Build 0)  -->
<!DOCTYPE svg PUBLIC "-//W3C//DTD SVG 1.1//EN" "http://www.w3.org/Graphics/SVG/1.1/DTD/svg11.dtd">
<svg version="1.1" id="Warstwa_1" xmlns="http://www.w3.org/2000/svg" xmlns:xlink="http://www.w3.org/1999/xlink" x="0px" y="0px"
	 width="56px" height="56px" viewBox="0 0 56 56" enable-background="new 0 0 56 56" xml:space="preserve">
<g>
	<g>
		<g>
			<path fill="#FFFFFF" d="M40.631,30.717c0.118-0.642,0.182-1.289,0.182-1.943c0-5.868-4.772-10.645-10.646-10.645
				c-3.617,0-6.933,1.808-8.894,4.787c-0.917-0.398-1.908-0.605-2.908-0.605c-4.071,0-7.377,3.313-7.377,7.382v0.244
				c-3.284,1.078-5.584,4.181-5.584,7.707c0,4.478,3.645,8.119,8.121,8.119h3.994c1.272,0,1.201-2.115,0-2.115h-3.994
				c-3.314,0-6.008-2.69-6.008-6.004c0-2.85,2.027-5.326,4.821-5.887l0.997-0.197l-0.164-1.006c-0.05-0.316-0.073-0.598-0.073-0.861
				c0-2.906,2.362-5.271,5.267-5.271c0.968,0,1.919,0.272,2.756,0.787l0.965,0.59l0.521-0.996c1.485-2.816,4.379-4.562,7.56-4.562
				c4.708,0,8.535,3.825,8.535,8.53c0,0.896-0.144,1.781-0.415,2.64l-0.48,1.479l1.635-0.106c0.086-0.007,0.172-0.015,0.26-0.015
				c2.994,0,5.438,2.439,5.438,5.438c0,3.002-2.443,5.439-5.438,5.439h-4.562c-1.363,0-1.58,2.114,0,2.114H39.7
				c4.163,0,7.55-3.391,7.55-7.557C47.248,34.361,44.355,31.174,40.631,30.717"/>
		</g>
	</g>
</g>
<path fill="#71B7D3" d="M29.646,53.641c0.513-0.671,0.386-1.63-0.287-2.147c-0.674-0.517-1.633-0.386-2.146,0.287
	c-0.517,0.671-0.386,1.635,0.284,2.146C28.17,54.443,29.127,54.316,29.646,53.641"/>
<path fill="#71B7D3" d="M29.646,41.709c0.513-0.675,0.386-1.637-0.287-2.15c-0.674-0.516-1.633-0.387-2.146,0.286
	c-0.517,0.669-0.386,1.63,0.284,2.146C28.17,42.506,29.127,42.381,29.646,41.709"/>
<path fill="#71B7D3" d="M26.812,45.995l-1.643,0.004v0.003c-0.035-0.134-0.088-0.262-0.159-0.378l0.737-0.742
	c0.136-0.138,0.136-0.358-0.001-0.495c-0.137-0.137-0.358-0.135-0.496,0.004l-0.736,0.74c-0.116-0.068-0.244-0.123-0.376-0.154
	l-0.007-1.644c0-0.194-0.158-0.351-0.353-0.349c-0.191,0-0.351,0.156-0.347,0.352l0.003,1.643c-0.134,0.032-0.26,0.086-0.375,0.156
	l-0.702-0.695c-0.137-0.139-0.358-0.137-0.496,0c-0.136,0.139-0.136,0.359,0,0.496l0.704,0.698l0.001-0.003
	c-0.07,0.117-0.125,0.245-0.158,0.383c0.003-0.002,0.003-0.003,0.003-0.003l-1.644,0.005c-0.193,0-0.349,0.159-0.347,0.354
	c0,0.192,0.157,0.351,0.35,0.348l1.642-0.006v-0.003c0.036,0.135,0.089,0.264,0.158,0.379l-0.737,0.742
	c-0.136,0.137-0.135,0.361,0.002,0.497c0.067,0.067,0.158,0.103,0.249,0.103c0.089-0.004,0.177-0.037,0.246-0.104l0.736-0.742
	c0.116,0.069,0.244,0.121,0.378,0.156l0.006,1.641c0,0.196,0.158,0.351,0.35,0.349c0.195,0,0.351-0.155,0.35-0.35l-0.005-1.645
	c0.135-0.033,0.263-0.09,0.378-0.157l0,0l0.7,0.696c0.068,0.069,0.159,0.103,0.248,0.103c0.089,0,0.18-0.035,0.249-0.104
	c0.136-0.139,0.136-0.355-0.001-0.494l-0.703-0.696c0,0,0,0.002-0.001,0.002c0.069-0.117,0.122-0.244,0.156-0.379l1.643-0.007
	c0.191-0.002,0.35-0.157,0.346-0.354C27.16,46.15,27.003,45.993,26.812,45.995 M23.791,46.9c-0.303,0.002-0.548-0.241-0.548-0.543
	c-0.003-0.301,0.242-0.549,0.545-0.551c0.301,0,0.548,0.243,0.548,0.547C24.339,46.655,24.094,46.9,23.791,46.9"/>
<path fill="#71B7D3" d="M35.887,47.415l-1.644,0.005v0.002c-0.034-0.134-0.089-0.262-0.159-0.378l0.736-0.741
	c0.137-0.139,0.137-0.359,0-0.496c-0.139-0.136-0.359-0.136-0.497,0.004l-0.736,0.741c-0.116-0.069-0.244-0.124-0.377-0.155
	l-0.007-1.643c0-0.193-0.158-0.352-0.354-0.349c-0.191,0-0.351,0.157-0.349,0.352l0.005,1.642c-0.134,0.033-0.261,0.086-0.376,0.156
	l-0.7-0.695c-0.138-0.137-0.357-0.135-0.498,0c-0.136,0.14-0.136,0.359,0,0.496l0.705,0.699l0.002-0.003
	c-0.07,0.116-0.125,0.244-0.158,0.382c0.002,0,0.002-0.002,0.002-0.002l-1.644,0.006c-0.192,0-0.351,0.158-0.348,0.354
	c0,0.193,0.155,0.348,0.35,0.348l1.642-0.007V48.13c0.037,0.136,0.09,0.263,0.158,0.379l-0.736,0.74
	c-0.135,0.14-0.135,0.362,0.004,0.498c0.066,0.067,0.158,0.103,0.249,0.103c0.089-0.002,0.177-0.035,0.245-0.104l0.738-0.741
	c0.114,0.069,0.242,0.12,0.377,0.155l0.006,1.641c0,0.195,0.16,0.352,0.352,0.35c0.193,0,0.35-0.156,0.35-0.351l-0.004-1.645
	c0.135-0.033,0.264-0.089,0.377-0.157l0,0l0.7,0.697c0.067,0.07,0.158,0.103,0.248,0.103c0.091,0,0.179-0.034,0.248-0.104
	c0.136-0.139,0.136-0.356-0.001-0.495L34.09,48.5c0,0,0,0.002-0.002,0.002c0.069-0.117,0.122-0.244,0.156-0.38l1.645-0.007
	c0.189-0.001,0.35-0.157,0.346-0.354C36.234,47.57,36.078,47.413,35.887,47.415 M32.865,48.32c-0.303,0.002-0.549-0.24-0.549-0.541
	c-0.002-0.303,0.244-0.551,0.547-0.551c0.301,0,0.548,0.241,0.548,0.545C33.414,48.076,33.168,48.32,32.865,48.32"/>
<g>
	<path fill="#71B7D3" d="M43.752,29.185c-0.386-0.016-0.754-0.232-0.944-0.602c-0.281-0.546-0.067-1.217,0.479-1.498
		c4.776-2.467,6.253-7.81,5.597-12.011c-0.411-2.636-2.217-5.101-3.769-6.527c-1.212-1.114-3.635-2.642-5.802-3.336
		c0.768,1.835,1.498,3.707,1.663,4.789c0.584,3.816-0.147,6.783-2.236,9.07c-0.413,0.454-1.118,0.486-1.571,0.072
		c-0.453-0.415-0.485-1.118-0.071-1.572c1.606-1.758,2.155-4.125,1.681-7.233c-0.169-1.1-1.35-3.876-1.917-5.209
		c-0.529-1.246-0.64-1.504-0.279-2.026l0.348-0.504l0.613,0.024c3.149,0.127,7.279,2.634,9.078,4.29
		c0.888,0.816,3.831,3.791,4.46,7.821c0.937,5.996-1.785,11.755-6.773,14.331C44.13,29.152,43.938,29.191,43.752,29.185z"/>
</g>
</svg>
