<?xml version="1.0" encoding="utf-8"?>
<!-- Generator: Adobe Illustrator 15.1.0, SVG Export Plug-In . SVG Version: 6.00 Build 0)  -->
<!DOCTYPE svg PUBLIC "-//W3C//DTD SVG 1.1//EN" "http://www.w3.org/Graphics/SVG/1.1/DTD/svg11.dtd">
<svg version="1.1" id="Warstwa_1" xmlns="http://www.w3.org/2000/svg" xmlns:xlink="http://www.w3.org/1999/xlink" x="0px" y="0px"
	 width="56px" height="56px" viewBox="0 0 56 56" enable-background="new 0 0 56 56" xml:space="preserve">
<g>
	<g>
		<g>
			<path fill="#FFFFFF" d="M40.631,30.717c0.118-0.642,0.182-1.289,0.182-1.943c0-5.868-4.773-10.645-10.646-10.645
				c-3.617,0-6.933,1.808-8.894,4.787c-0.917-0.398-1.908-0.605-2.908-0.605c-4.071,0-7.377,3.313-7.377,7.382v0.244
				c-3.284,1.078-5.584,4.181-5.584,7.707c0,4.478,3.645,8.119,8.121,8.119h3.994c1.272,0,1.201-2.115,0-2.115h-3.994
				c-3.314,0-6.008-2.69-6.008-6.004c0-2.849,2.027-5.326,4.821-5.886l0.997-0.198l-0.164-1.006
				c-0.05-0.316-0.073-0.597-0.073-0.861c0-2.906,2.362-5.271,5.267-5.271c0.968,0,1.919,0.272,2.756,0.787l0.965,0.59l0.521-0.996
				c1.485-2.816,4.379-4.562,7.56-4.562c4.708,0,8.535,3.825,8.535,8.531c0,0.896-0.144,1.781-0.415,2.639l-0.48,1.479l1.635-0.106
				c0.086-0.007,0.172-0.015,0.259-0.015c2.995,0,5.438,2.44,5.438,5.438c0,3.002-2.443,5.44-5.438,5.44h-4.563
				c-1.363,0-1.58,2.114,0,2.114H39.7c4.163,0,7.55-3.391,7.55-7.557C47.248,34.361,44.355,31.174,40.631,30.717"/>
		</g>
	</g>
</g>
<path fill="#71B7D3" d="M32.343,48.044l-3.103,0.008v0.005c-0.065-0.252-0.166-0.494-0.301-0.714l1.393-1.401
	c0.257-0.26,0.257-0.678-0.002-0.937c-0.262-0.256-0.68-0.254-0.938,0.007L28,46.413c-0.219-0.133-0.461-0.233-0.71-0.294
	l-0.013-3.104c0-0.367-0.297-0.662-0.666-0.66c-0.362,0.002-0.664,0.299-0.656,0.664l0.008,3.104
	c-0.255,0.062-0.491,0.163-0.71,0.296l-1.327-1.314c-0.258-0.26-0.677-0.258-0.937,0c-0.257,0.261-0.257,0.681,0,0.938l1.329,1.318
	l0.003-0.004c-0.132,0.222-0.235,0.465-0.299,0.724c0.005-0.003,0.005-0.004,0.005-0.004l-3.105,0.008
	c-0.365,0-0.66,0.3-0.656,0.667c0,0.366,0.296,0.659,0.662,0.658l3.102-0.014v-0.004c0.066,0.254,0.167,0.496,0.299,0.717
	l-1.392,1.4c-0.258,0.26-0.256,0.686,0.005,0.939c0.127,0.129,0.298,0.191,0.47,0.191c0.168-0.005,0.335-0.067,0.466-0.195
	l1.392-1.402c0.219,0.131,0.461,0.229,0.714,0.294l0.011,3.103c0,0.367,0.301,0.66,0.662,0.658c0.368,0,0.662-0.296,0.661-0.662
	l-0.009-3.105c0.254-0.064,0.497-0.168,0.714-0.298H28.02l1.323,1.317c0.13,0.133,0.3,0.191,0.47,0.191s0.34-0.064,0.47-0.195
	c0.259-0.261,0.258-0.676-0.001-0.937l-1.329-1.315c0,0,0,0.004-0.003,0.004c0.131-0.222,0.229-0.462,0.295-0.717l3.104-0.014
	c0.361-0.002,0.662-0.297,0.655-0.665C33.002,48.339,32.707,48.04,32.343,48.044 M26.635,49.759
	c-0.57,0.002-1.034-0.458-1.036-1.026c-0.005-0.57,0.458-1.037,1.032-1.041c0.569,0,1.036,0.459,1.036,1.033
	C27.672,49.294,27.208,49.758,26.635,49.759"/>
<g>
	<path fill="#71B7D3" d="M43.402,28.197c-0.386-0.016-0.754-0.232-0.944-0.602c-0.281-0.546-0.067-1.217,0.479-1.498
		c4.776-2.467,6.253-7.81,5.597-12.011c-0.411-2.636-2.217-5.101-3.769-6.527c-1.212-1.114-3.635-2.642-5.802-3.336
		c0.768,1.835,1.498,3.707,1.663,4.789c0.584,3.816-0.147,6.783-2.236,9.07c-0.413,0.454-1.118,0.486-1.571,0.072
		c-0.453-0.415-0.485-1.118-0.071-1.572c1.606-1.758,2.155-4.125,1.681-7.233c-0.169-1.1-1.35-3.876-1.917-5.209
		c-0.529-1.246-0.64-1.504-0.279-2.026l0.348-0.504l0.613,0.024c3.149,0.127,7.279,2.634,9.078,4.29
		c0.888,0.816,3.831,3.791,4.46,7.821c0.937,5.996-1.785,11.755-6.773,14.331C43.78,28.165,43.589,28.204,43.402,28.197z"/>
</g>
</svg>
