<?xml version="1.0" encoding="utf-8"?>
<!-- Generator: Adobe Illustrator 15.1.0, SVG Export Plug-In . SVG Version: 6.00 Build 0)  -->
<!DOCTYPE svg PUBLIC "-//W3C//DTD SVG 1.1//EN" "http://www.w3.org/Graphics/SVG/1.1/DTD/svg11.dtd">
<svg version="1.1" id="Warstwa_1" xmlns="http://www.w3.org/2000/svg" xmlns:xlink="http://www.w3.org/1999/xlink" x="0px" y="0px"
	 width="56px" height="56px" viewBox="0 0 56 56" enable-background="new 0 0 56 56" xml:space="preserve">
<g>
	<g>
		<path fill="#71B7D3" d="M6.276,31.741c1.169,4.904,3.957,9.196,7.803,12.206c3.79,2.955,8.527,4.738,13.654,4.738
			c6.076,0,11.594-2.452,15.606-6.466c4.013-4.013,6.466-9.531,6.466-15.606c0-5.072-1.728-9.699-4.57-13.433
			c-2.954-3.79-7.078-6.633-11.816-7.915c-0.446-0.112-0.892,0-1.281,0.279c-0.613,0.501-0.726,1.394-0.224,2.006
			c1.171,1.393,2.062,3.01,2.676,4.793c0.557,1.672,0.891,3.511,0.891,5.407c0,4.514-1.838,8.639-4.793,11.593
			c-2.954,2.954-7.078,4.793-11.593,4.793c-2.006,0-3.901-0.334-5.629-1.003c-1.839-0.669-3.511-1.672-4.961-2.898
			c-0.39-0.278-0.835-0.391-1.281-0.278C6.443,30.125,5.997,30.904,6.276,31.741z M10.288,34.974
			c0.668,0.335,1.395,0.613,2.119,0.892c2.063,0.78,4.292,1.172,6.632,1.172c5.295,0,10.144-2.175,13.6-5.631
			c3.456-3.455,5.629-8.304,5.629-13.599c0-2.229-0.334-4.348-1.058-6.354c-0.224-0.669-0.503-1.282-0.781-1.895
			c2.509,1.282,4.682,3.121,6.409,5.351c2.51,3.233,3.958,7.246,3.958,11.648c0,5.296-2.174,10.089-5.63,13.546
			c-3.455,3.454-8.249,5.629-13.543,5.629c-4.515,0-8.641-1.562-11.873-4.125C13.465,39.823,11.626,37.538,10.288,34.974z"/>
	</g>
</g>
</svg>
