<?xml version="1.0" encoding="utf-8"?>
<!-- Generator: Adobe Illustrator 15.1.0, SVG Export Plug-In . SVG Version: 6.00 Build 0)  -->
<!DOCTYPE svg PUBLIC "-//W3C//DTD SVG 1.1//EN" "http://www.w3.org/Graphics/SVG/1.1/DTD/svg11.dtd">
<svg version="1.1" id="Warstwa_1" xmlns="http://www.w3.org/2000/svg" xmlns:xlink="http://www.w3.org/1999/xlink" x="0px" y="0px"
	 width="56px" height="56px" viewBox="0 0 56 56" enable-background="new 0 0 56 56" xml:space="preserve">
<g>
	<path fill="#1B86D0" d="M14.695,48.275c-0.191,0-0.391-0.043-0.567-0.129c-0.664-0.314-0.94-1.111-0.625-1.771l2.77-5.781
		c0.319-0.657,1.103-0.938,1.77-0.618c0.66,0.315,0.94,1.104,0.619,1.766l-2.765,5.781C15.669,47.996,15.187,48.275,14.695,48.275"
		/>
	<path fill="#1B86D0" d="M8.12,48.275c-0.189,0-0.386-0.043-0.574-0.129c-0.655-0.314-0.93-1.111-0.615-1.771l2.77-5.781
		c0.312-0.657,1.107-0.938,1.772-0.618c0.654,0.315,0.935,1.104,0.614,1.766l-2.769,5.781C9.089,47.996,8.615,48.275,8.12,48.275"/>
	<path fill="#1B86D0" d="M41.82,48.275c-0.199,0-0.391-0.043-0.578-0.129c-0.654-0.314-0.938-1.111-0.621-1.771l2.771-5.781
		c0.317-0.657,1.108-0.938,1.77-0.618c0.662,0.315,0.939,1.104,0.623,1.766l-2.777,5.781C42.785,47.996,42.312,48.275,41.82,48.275"
		/>
	<path fill="#1B86D0" d="M35.24,48.275c-0.188,0-0.385-0.043-0.57-0.129c-0.658-0.314-0.941-1.111-0.617-1.771l2.766-5.781
		c0.318-0.657,1.111-0.938,1.773-0.618c0.662,0.315,0.934,1.104,0.621,1.766l-2.777,5.781C36.215,47.996,35.736,48.275,35.24,48.275
		"/>
	<path fill="#F5A714" d="M22.717,54.518c-0.232,0-0.469-0.065-0.687-0.197c-0.623-0.372-0.821-1.188-0.444-1.813l7.91-13.062h-8.268
		l9.329-13.244c0.428-0.596,1.246-0.742,1.851-0.32c0.596,0.424,0.735,1.252,0.315,1.852l-6.388,9.061h7.871L23.85,53.877
		C23.601,54.289,23.168,54.518,22.717,54.518"/>
	<path fill="#FFFFFF" d="M45.906,17.557c0.146-0.801,0.225-1.613,0.225-2.436c0-7.371-5.994-13.361-13.367-13.361
		c-4.533,0-8.701,2.271-11.167,6.012c-1.146-0.5-2.384-0.764-3.648-0.764c-5.105,0-9.264,4.156-9.264,9.27
		c0,0.098,0.003,0.201,0.003,0.303c-4.121,1.355-7.005,5.25-7.005,9.68c0,5.617,4.574,10.187,10.19,10.187h5.023
		c1.589,0,1.497-2.646,0-2.646h-5.023c-4.16,0-7.539-3.389-7.539-7.541c0-3.584,2.544-6.688,6.052-7.389l1.253-0.246l-0.207-1.268
		c-0.066-0.396-0.094-0.75-0.094-1.08c0-3.646,2.963-6.618,6.611-6.618c1.219,0,2.413,0.345,3.465,0.989l1.203,0.74l0.665-1.25
		c1.857-3.539,5.493-5.732,9.481-5.732c5.912,0,10.717,4.807,10.717,10.715c0,1.131-0.178,2.24-0.516,3.309l-0.609,1.859l2.06-0.137
		c0.104-0.008,0.203-0.016,0.315-0.016c3.763,0,6.834,3.061,6.834,6.828c0,3.766-3.071,6.83-6.834,6.836h-5.729
		c-1.721,0-1.986,2.645,0,2.645h5.729c5.23,0,9.478-4.254,9.478-9.479C54.207,22.135,50.578,18.139,45.906,17.557"/>
</g>
</svg>
