<svg width="49" height="48" viewBox="0 0 49 48" fill="none" xmlns="http://www.w3.org/2000/svg">
<path d="M28.6958 2.73022L27.8026 0.0503082L24.012 1.31385L20.2213 0.0503082L19.3281 2.73022L24.012 4.29151L28.6958 2.73022Z" fill="#7E8D94"/>
<path d="M26.3906 11.2047L31.0745 12.766L35.7583 11.2047L34.8651 8.52482L31.0745 9.78836L27.2838 8.52482L26.3906 11.2047Z" fill="#7E8D94"/>
<path d="M42.3728 29.6379H46.6101V26.8131H42.3728V23.9883H46.6101V21.1635H42.3728V18.3386H39.548V21.1635H25.4238V18.3386H22.599V21.1635H19.7742V23.9883H22.599V26.8131H19.7742V29.6379H22.599V32.4628H16.9494V40.9373H21.1866V45.1745H9.88728V29.6379H11.0457C14.7492 29.6379 17.5236 26.2734 16.8478 22.654C16.8229 22.3929 17.0684 24.9641 15.3831 7.31022C14.2211 -0.542425 3.1528 -0.537151 1.99368 7.31022L0.10575 22.6337C-0.585579 26.2675 2.20027 29.6379 5.90409 29.6379H7.06246V45.1745H0.000384321V47.9993H48.0225V45.1745H43.7852V40.9373H48.0225V32.4628H42.3728V29.6379ZM2.88651 23.1324C5.08159 5.35337 4.76559 7.9121 4.79732 7.6556C5.47029 3.10113 11.8858 3.09068 12.5772 7.6379C12.791 9.87931 13.823 20.6944 14.049 23.0616L14.0631 23.1325C14.4451 25.0422 12.9818 26.8132 11.0456 26.8132H5.90409C3.96409 26.8131 2.50525 25.0384 2.88651 23.1324ZM25.4238 23.9883H39.548V26.8131H25.4238V23.9883ZM25.4238 29.6379H39.548V32.4628H25.4238V29.6379ZM40.9604 45.1745H24.0114V40.9373H40.9604V45.1745ZM45.1976 38.1124H19.7742V35.2876H45.1976V38.1124Z" fill="#7E8D94"/>
<path d="M43.7851 8.45259C46.1216 8.45259 48.0223 6.55177 48.0223 4.21535C47.7897 -1.40596 39.7797 -1.40427 39.5479 4.21535C39.5479 6.55177 41.4486 8.45259 43.7851 8.45259ZM43.7851 2.80294C44.564 2.80294 45.1975 3.43655 45.1975 4.21535C45.12 6.08915 42.4499 6.08859 42.3727 4.21535C42.3727 3.43645 43.0062 2.80294 43.7851 2.80294Z" fill="#7E8D94"/>
</svg>
