<svg width="53" height="53" viewBox="0 0 53 53" fill="none" xmlns="http://www.w3.org/2000/svg">
<g clip-path="url(#clip0)">
<path d="M52.5452 17.0622C52.5452 16.4327 52.162 15.8667 51.5776 15.6329C46.033 13.4151 39.9793 12.3721 33.9697 12.5868L33.9696 4.64425C33.9696 4.01473 33.5864 3.44874 33.002 3.21495C27.9013 1.17471 22.5124 0.140228 16.9848 0.140228C11.4572 0.140228 6.06827 1.17471 0.967676 3.21495C0.383212 3.44874 0 4.01483 0 4.64425V15.8848C0 21.0963 1.56579 26.1418 4.52814 30.4758C7.47766 34.7912 11.6026 38.0985 16.466 40.0439C16.834 40.1907 17.2445 40.1899 17.6126 40.0414L17.6189 40.0389C18.6931 39.6091 19.7309 39.1115 20.7277 38.5509C21.9447 41.3601 23.6512 43.9828 25.7292 46.2169C28.3557 49.0406 31.4564 51.1799 34.9452 52.5755C35.1287 52.6488 35.3229 52.6856 35.517 52.6856C35.711 52.6856 35.9052 52.6488 36.0887 52.5755C45.932 48.6382 52.5454 38.8425 52.5454 28.2002L52.5452 17.0622ZM17.0365 36.9473C8.66311 33.3341 3.07883 24.947 3.07883 15.8848V5.70152C11.9748 2.41641 21.995 2.41641 30.8909 5.70152V15.8848C30.8909 25.2477 25.3478 33.3694 17.0365 36.9473ZM35.5178 49.4786C30.1084 47.1274 25.6523 42.4938 23.3539 36.8569C25.7364 35.1086 27.8127 32.9576 29.4967 30.4702C32.423 26.148 33.9697 21.1045 33.9697 15.8848V15.6676C39.2409 15.4645 44.5511 16.3033 49.4664 18.1194L49.4665 28.2002C49.4665 37.3876 43.886 45.8593 35.5178 49.4786Z" fill="#7E8D94"/>
<path d="M13.9578 12.5582H7.80016C6.94999 12.5582 6.26074 13.2474 6.26074 14.0976C6.26074 14.9477 6.94999 15.637 7.80016 15.637H13.9578C14.808 15.637 15.4972 14.9477 15.4972 14.0976C15.4972 13.2474 14.808 12.5582 13.9578 12.5582Z" fill="#7E8D94"/>
<path d="M26.2723 12.5582H20.1146C19.2644 12.5582 18.5752 13.2474 18.5752 14.0976C18.5752 14.9477 19.2644 15.637 20.1146 15.637H26.2723C27.1224 15.637 27.8117 14.9477 27.8117 14.0976C27.8117 13.2474 27.1224 12.5582 26.2723 12.5582Z" fill="#7E8D94"/>
<path d="M24.2822 22.2456C23.6812 21.6444 22.7065 21.6444 22.1052 22.2456C20.7512 23.5997 18.9509 24.3454 17.036 24.3454C15.1211 24.3454 13.3209 23.5997 11.9668 22.2457C11.3657 21.6445 10.391 21.6445 9.78976 22.2457C9.18857 22.8469 9.18857 23.8216 9.78976 24.4227C11.7252 26.3583 14.2987 27.4243 17.0359 27.4243C19.7731 27.4243 22.3465 26.3583 24.282 24.4228C24.8835 23.8214 24.8835 22.8467 24.2822 22.2456Z" fill="#7E8D94"/>
<path d="M44.7459 24.8735H38.5882C37.7381 24.8735 37.0488 25.5627 37.0488 26.4129C37.0488 27.2631 37.7381 27.9523 38.5882 27.9523H44.7459C45.5961 27.9523 46.2853 27.2631 46.2853 26.4129C46.2853 25.5627 45.5961 24.8735 44.7459 24.8735Z" fill="#7E8D94"/>
<path d="M42.7557 37.1115C40.8201 35.1759 38.2467 34.11 35.5095 34.11C32.7722 34.11 30.1988 35.176 28.2634 37.1115C27.6622 37.7127 27.6622 38.6874 28.2634 39.2886C28.8645 39.8898 29.8392 39.8898 30.4404 39.2886C31.7944 37.9345 33.5947 37.1888 35.5095 37.1888C37.4243 37.1888 39.2246 37.9345 40.5787 39.2886C41.1798 39.8898 42.1546 39.8898 42.7557 39.2886C43.3569 38.6874 43.3569 37.7127 42.7557 37.1115Z" fill="#7E8D94"/>
</g>
<defs>
<clipPath id="clip0">
<rect width="52.5454" height="52.5454" fill="white" transform="translate(0 0.140228)"/>
</clipPath>
</defs>
</svg>
