<svg width="52" height="52" viewBox="0 0 52 52" fill="none" xmlns="http://www.w3.org/2000/svg">
<g clip-path="url(#clip0)">
<path d="M50.4258 18.3536L33.1508 1.07861C31.7135 -0.358692 29.463 -0.357383 28.0269 1.07861L1.0784 28.0271C0.371272 28.7343 -0.0220457 29.7054 -0.000105253 30.6904C0.0205268 31.6451 0.41143 32.5259 1.10155 33.1746L4.7809 36.854C5.41819 37.4924 6.42634 37.5665 7.15048 37.0312C9.2633 35.4707 12.2039 35.6741 13.9914 37.5064C15.8225 39.3826 16.0453 42.3298 14.5091 44.3625C13.961 45.0879 14.0314 46.1051 14.6741 46.7478L18.3766 50.4502C19.0655 51.1385 20.0038 51.53 20.9627 51.53C20.9882 51.53 21.0143 51.5294 21.0398 51.5288C21.9945 51.5082 22.8753 51.1179 23.524 50.4272L50.4489 23.5005C51.156 22.7939 51.5487 21.8234 51.5274 20.8378C51.5068 19.8831 51.1166 19.0025 50.4258 18.3536ZM30.626 3.63447C30.6175 3.63931 30.6035 3.64172 30.592 3.64414L29.315 2.36716L30.626 3.63447ZM20.9391 47.8622L18.2618 45.185C19.8951 41.8741 19.2876 37.7195 16.5976 34.9628C13.9167 32.2181 9.74146 31.5966 6.34864 33.2718L3.66657 30.5903L30.5895 3.66789L47.8614 20.9398L20.9391 47.8622Z" fill="#7E8D94"/>
<path d="M24.1749 7.28037L21.584 9.83811L26.2569 14.5715L28.8477 12.0138L24.1749 7.28037Z" fill="#7E8D94"/>
<path d="M39.5788 22.7386L37.0205 25.3304L41.7553 30.0039L44.3136 27.4121L39.5788 22.7386Z" fill="#7E8D94"/>
<path d="M31.8753 14.9792L29.3008 17.5537L34.0345 22.2875L36.6091 19.7129L31.8753 14.9792Z" fill="#7E8D94"/>
</g>
<defs>
<clipPath id="clip0">
<rect width="51.5292" height="51.5292" fill="white"/>
</clipPath>
</defs>
</svg>
