<svg width="52" height="53" viewBox="0 0 52 53" fill="none" xmlns="http://www.w3.org/2000/svg">
<g clip-path="url(#clip0)">
<path d="M21.3159 9.52122L20.771 12.7538C20.6736 13.3314 20.9069 13.915 21.3728 14.2594C21.8386 14.6038 22.4563 14.6493 22.9661 14.3766L25.8191 12.8505L28.6721 14.3766C29.186 14.6515 29.8033 14.6011 30.2654 14.2594C30.7313 13.915 30.9646 13.3313 30.8673 12.7538L30.3223 9.52122L32.6303 7.2319C33.0427 6.82293 33.1911 6.21117 33.0131 5.6539C32.8352 5.09663 32.3618 4.69043 31.7919 4.60618L28.6022 4.1346L27.1757 1.1934C26.9208 0.667943 26.3949 0.335327 25.819 0.335327C25.2431 0.335327 24.7172 0.667943 24.4624 1.1934L23.0358 4.1345L19.8461 4.60607C19.2762 4.69033 18.8027 5.09653 18.6249 5.6538C18.4469 6.21107 18.5953 6.82283 19.0078 7.2318L21.3159 9.52122ZM24.2581 7.06503C24.7509 6.99217 25.1767 6.6773 25.3972 6.22287L25.8191 5.3531L26.241 6.22287C26.4615 6.6772 26.8873 6.99217 27.3801 7.06503L28.3234 7.2045L27.6408 7.88154C27.2842 8.23519 27.1215 8.74474 27.2057 9.24412L27.3669 10.2L26.5233 9.74864C26.0825 9.51291 25.5561 9.51291 25.1152 9.74864L24.2716 10.2L24.4328 9.24412C24.517 8.74474 24.3543 8.23519 23.9977 7.88154L23.3151 7.2045L24.2581 7.06503Z" fill="#7E8D94"/>
<path d="M7.66559 25.371L10.5186 26.8973C11.0325 27.1721 11.6498 27.1217 12.1119 26.7801C12.5778 26.4357 12.8111 25.8519 12.7137 25.2744L12.1688 22.0419L14.477 19.7526C14.8894 19.3436 15.0378 18.7318 14.8598 18.1746C14.6819 17.6173 14.2085 17.2111 13.6386 17.1268L10.4489 16.6553L9.02234 13.7142C8.76747 13.1887 8.2416 12.8561 7.66569 12.8561C7.08979 12.8561 6.56392 13.1887 6.30905 13.7142L4.88251 16.6553L1.69277 17.1268C1.12292 17.2111 0.649391 17.6173 0.471578 18.1746C0.293564 18.7318 0.442027 19.3436 0.854436 19.7526L3.16258 22.0419L2.61764 25.2744C2.52031 25.8519 2.7536 26.4357 3.21946 26.7801C3.68543 27.1244 4.30298 27.17 4.81282 26.8973L7.66559 25.371ZM6.10471 19.5856C6.59751 19.5127 7.02333 19.1979 7.2438 18.7434L7.66569 17.8737L8.08758 18.7434C8.30806 19.1978 8.73388 19.5127 9.22668 19.5856L10.17 19.7251L9.4874 20.4021C9.13076 20.7558 8.96808 21.2653 9.05229 21.7647L9.21346 22.7206L8.36989 22.2692C7.92914 22.0335 7.40266 22.0335 6.96181 22.2692L6.11823 22.7206L6.2794 21.7647C6.36362 21.2653 6.20093 20.7558 5.8443 20.4021L5.16169 19.7251L6.10471 19.5856Z" fill="#7E8D94"/>
<path d="M49.0223 25.2743L48.4774 22.0417L50.7855 19.7524C51.198 19.3434 51.3464 18.7317 51.1684 18.1744C50.9905 17.6171 50.5171 17.2109 49.9472 17.1267L46.7575 16.6551L45.3309 13.714C45.0761 13.1886 44.5502 12.8559 43.9743 12.8559C43.3984 12.8559 42.8725 13.1886 42.6176 13.714L41.1911 16.6551L38.0014 17.1267C37.4315 17.2109 36.958 17.6171 36.7802 18.1744C36.6022 18.7317 36.7506 19.3434 37.163 19.7524L39.4712 22.0417L38.9262 25.2743C38.8289 25.8518 39.0622 26.4355 39.5281 26.7799C39.994 27.1243 40.6115 27.1698 41.1214 26.8971L43.9744 25.3709L46.8274 26.8971C47.3413 27.172 47.9586 27.1216 48.4207 26.7799C48.8864 26.4355 49.1197 25.8519 49.0223 25.2743ZM45.7959 20.4019C45.4393 20.7556 45.2766 21.2651 45.3608 21.7645L45.522 22.7204L44.6784 22.2691C44.2376 22.0333 43.7111 22.0333 43.2703 22.2691L42.4267 22.7204L42.5879 21.7645C42.6721 21.2651 42.5094 20.7556 42.1528 20.4019L41.4702 19.7249L42.4135 19.5854C42.9063 19.5126 43.3321 19.1977 43.5526 18.7433L43.9745 17.8735L44.3964 18.7433C44.6169 19.1976 45.0427 19.5126 45.5355 19.5854L46.4788 19.7249L45.7959 20.4019Z" fill="#7E8D94"/>
<path d="M25.8198 15.9347C23.1446 15.9347 21.037 18.2884 21.3041 21.0186L24.3145 51.4951C24.3923 52.2817 25.0429 52.8805 25.8198 52.8805C26.5967 52.8805 27.2474 52.2817 27.3251 51.4951L30.3357 21.0173C30.6036 18.281 28.4868 15.9347 25.8198 15.9347ZM25.8198 35.9484C24.219 19.7141 24.307 20.7048 24.307 20.5529C24.307 19.7041 24.9856 19.0135 25.8198 19.0135C26.654 19.0135 27.3327 19.7041 27.3327 20.5529C27.3327 20.7061 27.4182 19.7387 25.8198 35.9484Z" fill="#7E8D94"/>
<path d="M18.1948 32.1152C17.8329 29.8756 15.9495 28.2499 13.7164 28.2499C11.2138 28.2499 9.17773 30.3217 9.17773 32.8682C9.17773 33.6095 9.35494 34.3469 9.69009 35.0011L18.4263 52.0528C18.77 52.7235 19.5413 53.0408 20.2462 52.8016C20.9512 52.5624 21.3813 51.8376 21.2607 51.0914L18.1948 32.1152ZM12.3731 33.5778C11.8533 32.5636 12.5784 31.3288 13.7164 31.3288C14.4609 31.3288 15.0886 31.8696 15.2091 32.6147L16.7426 42.1064L12.3731 33.5778Z" fill="#7E8D94"/>
<path d="M42.4605 32.8682C42.4605 30.3217 40.4245 28.2499 37.9219 28.2499C35.6888 28.2499 33.8055 29.8756 33.4435 32.1152L30.3776 51.0914C30.2571 51.8376 30.687 52.5623 31.3921 52.8016C32.098 53.041 32.869 52.7224 33.212 52.0528L41.9482 35.0012C42.2833 34.3469 42.4605 33.6095 42.4605 32.8682ZM39.2652 33.5779L34.8957 42.1064L36.4292 32.6148C36.5496 31.8696 37.1774 31.3288 37.922 31.3288C39.0598 31.3288 39.7849 32.5634 39.2652 33.5779Z" fill="#7E8D94"/>
<path d="M7.22227 42.5555C6.63155 41.9543 5.6736 41.9543 5.08277 42.5555C4.49194 43.1567 4.49194 44.1313 5.08277 44.7325L12.6471 52.4296C13.2379 53.0307 14.1958 53.0308 14.7866 52.4296C15.3775 51.8284 15.3775 50.8537 14.7866 50.2525L7.22227 42.5555Z" fill="#7E8D94"/>
<path d="M1.51287 40.5652C2.34841 40.5652 3.02575 39.876 3.02575 39.0258C3.02575 38.1756 2.34841 37.4864 1.51287 37.4864C0.677336 37.4864 0 38.1756 0 39.0258C0 39.876 0.677336 40.5652 1.51287 40.5652Z" fill="#7E8D94"/>
<path d="M44.4176 42.5555L36.8533 50.2525C36.2624 50.8537 36.2624 51.8284 36.8533 52.4296C37.444 53.0307 38.402 53.0308 38.9928 52.4296L46.5572 44.7325C47.148 44.1313 47.148 43.1567 46.5572 42.5555C45.9663 41.9543 45.0084 41.9543 44.4176 42.5555Z" fill="#7E8D94"/>
<path d="M50.1262 40.5652C50.9617 40.5652 51.639 39.876 51.639 39.0258C51.639 38.1756 50.9617 37.4864 50.1262 37.4864C49.2906 37.4864 48.6133 38.1756 48.6133 39.0258C48.6133 39.876 49.2906 40.5652 50.1262 40.5652Z" fill="#7E8D94"/>
</g>
<defs>
<clipPath id="clip0">
<rect width="51.6394" height="52.5454" fill="white" transform="translate(0 0.335327)"/>
</clipPath>
</defs>
</svg>
