<svg width="53" height="53" viewBox="0 0 53 53" fill="none" xmlns="http://www.w3.org/2000/svg">
<g clip-path="url(#clip0)">
<path d="M52.3082 49.9984L46.041 42.1644V39.4043C46.041 37.2705 44.6557 35.4553 42.7377 34.8075V24.4363H45.3184C46.1735 24.4363 46.8668 23.743 46.8668 22.8879C46.8668 22.0327 46.1735 21.3395 45.3184 21.3395H44.6399C47.6508 18.2899 45.4909 13.0813 41.1893 13.0813C36.8863 13.0813 34.7285 18.2907 37.7387 21.3395H37.0602C36.2051 21.3395 35.5118 22.0327 35.5118 22.8879C35.5118 23.743 36.2051 24.4363 37.0602 24.4363H38.7769C36.2643 27.9455 30.636 30.4234 26.3246 30.4234C22.0014 30.4234 16.4523 27.9384 13.9686 24.4363H15.589C16.4442 24.4363 17.1374 23.743 17.1374 22.8879C17.1374 22.0327 16.4442 21.3395 15.589 21.3395H14.9105C17.9214 18.2899 15.7615 13.0813 11.46 13.0813C7.15695 13.0813 4.9992 18.2907 8.0094 21.3395H7.33089C6.47576 21.3395 5.78249 22.0327 5.78249 22.8879C5.78249 23.743 6.47576 24.4363 7.33089 24.4363H9.91156V34.8074C7.99361 35.4552 6.6083 37.2704 6.6083 39.4042V42.1643L0.341091 49.9984C-0.468002 51.0098 0.253244 52.5141 1.55019 52.5141H51.0991C52.3943 52.514 53.1184 51.011 52.3082 49.9984ZM42.9442 41.159H39.4344V39.4042C39.4344 38.4365 40.2217 37.6493 41.1893 37.6493C42.1569 37.6493 42.9442 38.4365 42.9442 39.4042V41.159ZM41.1893 16.1781C42.1569 16.1781 42.9442 16.9653 42.9442 17.933C42.9442 18.9006 42.1569 19.6878 41.1893 19.6878C40.2217 19.6878 39.4344 18.9006 39.4344 17.933C39.4344 16.9653 40.2217 16.1781 41.1893 16.1781ZM26.3246 33.5202C30.8844 33.5202 36.2602 31.368 39.6409 28.1254V34.8074C37.7229 35.4552 36.3376 37.2704 36.3376 39.4042V41.159H16.3116V39.4042C16.3116 37.2704 14.9263 35.4552 13.0084 34.8074V28.0453C16.3606 31.3375 21.7385 33.5202 26.3246 33.5202ZM11.46 16.1781C12.4276 16.1781 13.2148 16.9653 13.2148 17.933C13.2148 18.9006 12.4276 19.6878 11.46 19.6878C10.4923 19.6878 9.70511 18.9006 9.70511 17.933C9.70511 16.9653 10.4923 16.1781 11.46 16.1781ZM9.70511 39.4042C9.70511 38.4365 10.4923 37.6493 11.46 37.6493C12.4276 37.6493 13.2148 38.4365 13.2148 39.4042V41.159H9.70511V39.4042ZM4.77179 49.4172L8.90087 44.2558H43.7484L47.8775 49.4172H4.77179Z" fill="#1C6434"/>
<path d="M21.0253 11.013L20.3082 15.1937C20.0916 16.4562 21.4205 17.4225 22.5548 16.8261L26.3095 14.8522C30.4476 17.0278 30.2754 17.0039 30.7844 17.0039C31.7361 17.0039 32.4743 16.1473 32.3108 15.1937L31.5937 11.013L34.6313 8.052C35.5487 7.15785 35.0414 5.5952 33.7732 5.41094L29.5753 4.80097L27.698 0.997062C27.131 -0.151543 25.4881 -0.152162 24.921 0.997062L23.0437 4.80097L18.8457 5.41094C17.5781 5.5952 17.07 7.15754 17.9876 8.052L21.0253 11.013ZM24.2947 7.74851C24.7989 7.67522 25.235 7.35842 25.4605 6.90143L26.3096 5.18095L27.1587 6.90143C27.3844 7.35842 27.8202 7.67522 28.3245 7.74851L30.2232 8.02433L28.8494 9.3636C28.4843 9.71932 28.3178 10.2318 28.404 10.7341L28.7284 12.6251L27.0303 11.7323C26.5791 11.4951 26.0402 11.4951 25.5892 11.7323L23.8911 12.6251L24.2154 10.7341C24.3015 10.2318 24.135 9.71932 23.7701 9.3636L22.3962 8.02444L24.2947 7.74851Z" fill="#1C6434"/>
</g>
<defs>
<clipPath id="clip0">
<rect width="52.6494" height="52.6494" fill="white"/>
</clipPath>
</defs>
</svg>
