<svg width="51" height="51" viewBox="0 0 51 51" fill="none" xmlns="http://www.w3.org/2000/svg">
<g clip-path="url(#clip0)">
<path d="M21.736 28.1313C21.736 25.4307 19.5389 23.2336 16.8383 23.2336C14.1376 23.2336 11.9404 25.4307 11.9404 28.1313H14.9131C14.9131 27.0698 15.7768 26.2062 16.8383 26.2062C17.8998 26.2062 18.7634 27.0698 18.7634 28.1313H21.736Z" fill="#7E8D94"/>
<path d="M33.8948 23.2335C31.1942 23.2335 28.9971 25.4306 28.9971 28.1312H31.9697C31.9697 27.0697 32.8333 26.2061 33.8948 26.2061C34.9563 26.2061 35.82 27.0697 35.82 28.1312H38.7927C38.7927 25.4306 36.5956 23.2335 33.8948 23.2335Z" fill="#7E8D94"/>
<path d="M25.3662 36.8293C23.4869 36.8293 21.7247 35.8214 20.7672 34.1989L18.207 35.7095C19.6966 38.2338 22.4398 39.8019 25.3661 39.8019C28.2925 39.8019 31.0357 38.2338 32.5253 35.7095L29.9651 34.1988C29.0078 35.8213 27.2455 36.8293 25.3662 36.8293Z" fill="#7E8D94"/>
<path d="M48.7993 22.8665C47.8526 21.9209 46.6638 21.2956 45.3734 21.0508C42.5866 12.4392 34.5027 6.51008 25.3667 6.51008H24.3702C21.9771 6.51008 20.0301 4.56304 20.0301 2.17001H17.0575C17.0575 3.7939 17.5902 5.29527 18.489 6.51008H17.5473C15.1541 6.51008 13.2072 4.56304 13.2072 2.17001H10.2345C10.2345 5.39985 12.34 8.1454 15.2498 9.11095C10.6477 11.641 7.0406 15.8578 5.36016 21.0508C4.06975 21.2956 2.88061 21.9211 1.93311 22.8676C0.686514 24.1155 0 25.7737 0 27.5367C0 29.2781 0.671775 30.9211 1.8917 32.1631C2.84512 33.1337 4.0492 33.7742 5.36016 34.0228C8.14672 42.6343 16.2307 48.5634 25.3667 48.5634C34.5028 48.5634 42.5866 42.6343 45.3733 34.0228C46.6842 33.7742 47.8883 33.1337 48.8417 32.1631C50.0617 30.9211 50.7334 29.2781 50.7334 27.5367C50.7334 25.7737 50.0469 24.1155 48.7993 22.8665ZM44.2022 31.1655L43.0867 31.1867L42.7955 32.2636C40.6735 40.1103 33.5065 45.5906 25.3666 45.5906C17.2267 45.5906 10.0599 40.1104 7.93797 32.2636L7.6467 31.1867L6.53126 31.1655C4.56897 31.1284 2.97255 29.5006 2.97255 27.5367C2.97255 26.5671 3.35025 25.655 4.03486 24.9695C4.70252 24.3026 5.58907 23.9255 6.53095 23.9078L7.6466 23.8869L7.93787 22.8097C10.0599 14.9631 17.2268 9.48283 25.3667 9.48283C28.0533 9.48283 30.239 11.6685 30.239 14.3551C30.239 17.0417 28.0533 19.2275 25.3667 19.2275C22.6801 19.2275 20.4944 17.0418 20.4944 14.3552H17.5218C17.5218 18.6809 21.041 22.2001 25.3667 22.2001C29.6924 22.2001 33.2116 18.6809 33.2116 14.3552C33.2116 13.1242 32.9259 11.959 32.4184 10.921C37.404 13.0417 41.3198 17.3532 42.7955 22.8098L43.0867 23.887L44.2024 23.9079C45.1444 23.9256 46.0308 24.3027 46.6974 24.9684C47.3832 25.6551 47.7609 26.5672 47.7609 27.5368C47.7608 29.5007 46.1644 31.1285 44.2022 31.1655Z" fill="#7E8D94"/>
</g>
<defs>
<clipPath id="clip0">
<rect width="50.7334" height="50.7334" fill="white"/>
</clipPath>
</defs>
</svg>
