<svg width="53" height="48" viewBox="0 0 53 48" fill="none" xmlns="http://www.w3.org/2000/svg">
<path d="M1.53948 17.5291H7.69742C8.54762 17.5291 9.2369 16.8399 9.2369 15.9896C9.2369 15.1394 8.54762 14.4502 7.69742 14.4502H1.53948C0.689278 14.4502 0 15.1394 0 15.9896C0 16.84 0.689278 17.5291 1.53948 17.5291Z" fill="#7E8D94"/>
<path d="M1.84774 24.7862C1.83891 25.6364 2.52111 26.3326 3.37121 26.3414L10.4675 26.4148C10.4731 26.4149 10.4783 26.4149 10.4837 26.4149C11.3265 26.4149 12.0141 25.7361 12.0228 24.8914C12.0316 24.0412 11.3494 23.3449 10.4993 23.3361L3.40303 23.2627C2.54923 23.2555 1.85657 23.9362 1.84774 24.7862Z" fill="#7E8D94"/>
<path d="M4.72112 8.71669H9.50081C10.351 8.71669 11.0403 8.02742 11.0403 7.17721C11.0403 6.327 10.351 5.63773 9.50081 5.63773H4.72112C3.87092 5.63773 3.18164 6.327 3.18164 7.17721C3.18164 8.02742 3.87092 8.71669 4.72112 8.71669Z" fill="#7E8D94"/>
<path d="M51.1302 15.3417C49.2437 13.455 46.174 13.4552 44.2875 15.3417L41.1843 18.445L37.6549 14.9156C41.0572 14.3217 43.6525 11.3485 43.6525 7.77866C43.6525 3.78277 40.4016 0.531998 36.4058 0.531998C32.8359 0.531998 29.8627 3.12747 29.269 6.53003L25.7879 3.04895C24.8742 2.13501 23.659 1.6316 22.3665 1.6316C21.0738 1.6316 19.8588 2.13491 18.9452 3.04885L12.4207 9.57339C10.5342 11.4599 10.5342 14.5294 12.4207 16.416C13.364 17.3593 14.6028 17.831 15.8419 17.8309C17.0808 17.8307 18.3201 17.3591 19.2633 16.416L22.3666 13.3127L24.852 15.7981L20.2454 20.4019C20.2454 20.402 20.2453 20.402 20.2453 20.402L20.2452 20.4021L1.41666 39.2291C-0.469616 41.1157 -0.469616 44.1851 1.41666 46.0716C2.3304 46.9855 3.54556 47.4889 4.83811 47.4889C6.13066 47.4889 7.34573 46.9856 8.25936 46.0717L21.3328 32.9981L25.2302 36.8955L22.9332 39.1924C21.0468 41.079 21.0469 44.1487 22.9333 46.0351C23.8471 46.949 25.0622 47.4523 26.3547 47.4523C27.6471 47.4523 28.8621 46.949 29.7759 46.035L35.4941 40.3169C36.4079 39.403 36.9112 38.188 36.9112 36.8955C36.9112 35.6032 36.408 34.3881 35.4941 33.4743L31.0759 29.0562L34.5951 25.541L37.763 28.7089C38.6768 29.6227 39.8919 30.1261 41.1843 30.1261C42.4766 30.1261 43.6917 29.6228 44.6055 28.7089L51.1303 22.1843C53.0166 20.2977 53.0166 17.2282 51.1302 15.3417ZM32.2381 7.77866C32.2381 5.48051 34.1077 3.61097 36.4057 3.61097C38.7038 3.61097 40.5734 5.48062 40.5734 7.77866C40.5734 10.0769 38.7038 11.9466 36.4057 11.9466C35.292 11.9466 34.2797 11.5066 33.5312 10.7922L33.3924 10.6534C32.6781 9.90509 32.2381 8.89263 32.2381 7.77866ZM23.4551 10.047C22.854 9.44581 21.8792 9.44581 21.278 10.047L17.086 14.2388C16.3998 14.9249 15.2836 14.925 14.5978 14.2389C13.9117 13.5528 13.9117 12.4366 14.5977 11.7506L21.1225 5.22588C21.4546 4.89377 21.8963 4.71067 22.3664 4.71067C22.8364 4.71067 23.2783 4.89366 23.6106 5.22599L29.7517 11.367C29.2078 11.6057 28.7072 11.9449 28.2747 12.3774L27.0297 13.6216L23.4551 10.047ZM33.8321 36.8955C33.8321 37.3655 33.6492 37.8073 33.3168 38.1396L27.5987 43.8579C27.2663 44.1902 26.8244 44.3732 26.3545 44.3732C25.8845 44.3732 25.4428 44.1902 25.1104 43.858C24.4245 43.1719 24.4245 42.0556 25.1103 41.3696L28.4958 37.9841C29.097 37.383 29.097 36.4082 28.4958 35.807L22.4212 29.7324C22.1326 29.4436 21.7409 29.2814 21.3327 29.2814C20.9243 29.2814 20.5327 29.4436 20.2441 29.7324L6.08212 43.8946C5.7499 44.2269 5.30807 44.41 4.83811 44.41C4.36806 44.41 3.92623 44.227 3.594 43.8945C2.90791 43.2084 2.90791 42.0923 3.5939 41.4063L21.3337 23.6681L33.317 35.6514C33.6491 35.9837 33.8321 36.4256 33.8321 36.8955ZM48.953 20.0072L42.4284 26.5317C42.0961 26.864 41.6543 27.0471 41.1843 27.0471C40.7143 27.0471 40.2724 26.8641 39.9401 26.5317L35.6843 22.276C35.0834 21.6749 34.109 21.6749 33.5078 22.2753L28.8988 26.8789L23.511 21.4912L30.4515 14.5549C30.7839 14.2226 31.2258 14.0396 31.6957 14.0396C32.1657 14.0396 32.6075 14.2226 32.9399 14.5549L40.0957 21.7107C40.3843 21.9994 40.7759 22.1615 41.1843 22.1615C41.5926 22.1615 41.9842 21.9994 42.2728 21.7107L46.4646 17.5188C47.1507 16.8327 48.2671 16.8327 48.9529 17.5188C49.639 18.2049 49.639 19.3211 48.953 20.0072Z" fill="#7E8D94"/>
</svg>
