<svg width="51" height="52" viewBox="0 0 51 52" fill="none" xmlns="http://www.w3.org/2000/svg">
<g clip-path="url(#clip0)">
<path d="M50.8969 19.831C51.0838 18.0638 50.9744 16.8862 50.8992 15.6784C49.7663 15.5033 48.641 15.2818 46.8337 15.3163C44.891 15.3546 42.6815 15.7426 41.4517 17.2803C40.6236 15.6864 39.5659 14.2152 38.3046 12.9216C39.6332 11.8823 41.2287 10.2205 41.3164 8.18754V8.18764C41.3783 6.75412 40.6896 5.11779 39.2694 3.32407C38.1736 1.94012 37.2778 1.18597 36.3854 0.38591C35.4408 1.09314 34.4995 1.74314 33.259 3.05517C31.6895 4.71527 30.8623 6.28365 30.8004 7.71718C30.6643 10.8688 34.2149 13.4558 34.9454 13.9537C39.0228 17.3078 39.8316 21.0237 40.4509 24.2274C41.4069 33.2818 34.4 41.1607 25.5009 41.1607C16.59 41.1607 9.59628 33.2705 10.5511 24.2274C10.7409 23.2455 11.1194 18.0152 16.0566 13.9537C16.7871 13.4558 20.3377 10.8689 20.2015 7.71708C20.1396 6.28365 19.3124 4.71516 17.7429 3.05517C16.532 1.77425 15.5746 1.10313 14.6165 0.38591C13.7366 1.17474 12.855 1.90635 11.7324 3.32407C10.3122 5.11779 9.62345 6.75412 9.6854 8.18744C9.77322 10.2205 11.3687 11.8822 12.6973 12.9215C11.436 14.2152 10.3782 15.6863 9.55007 17.2802C8.32 15.7421 6.10999 15.3544 4.16804 15.3162C2.40304 15.2827 1.24966 15.501 0.102503 15.6783C0.0285187 16.8692 -0.0865683 18.0208 0.104809 19.8309C0.347113 22.1212 0.997135 23.7738 2.03703 24.7429C3.4301 26.0409 5.58377 26.1722 7.45644 25.9231C7.46286 27.7824 7.74186 29.5774 8.25534 31.2689C6.32021 31.0703 4.49225 32.3804 3.08975 33.7533C1.83101 34.9855 1.17137 35.9596 0.466411 36.9345C1.23783 37.8254 1.95793 38.7247 3.35401 39.8691C4.69075 40.9649 6.42046 42.0285 8.13363 41.952C10.135 41.8626 11.7701 40.2337 12.7913 38.8805C13.7458 39.8453 14.8058 40.7016 15.9514 41.4317C13.9982 42.6013 13.5177 44.9952 13.4739 47.2936C13.4401 49.0706 13.6507 50.234 13.8296 51.4307C16.7219 51.6188 20.782 51.6353 22.738 49.462C24.0355 48.0202 24.111 45.8196 23.9224 44.1496C24.9637 44.2419 25.9832 44.2467 27.0792 44.1496C26.8905 45.8196 26.9661 48.0202 28.2636 49.462C30.2214 51.6372 34.2874 51.6183 37.172 51.4307C37.3485 50.251 37.5624 49.1139 37.5277 47.2936C37.484 44.995 37.0036 42.6013 35.0502 41.4318C36.1958 40.7018 37.2559 39.8453 38.2103 38.8805C39.2315 40.2338 40.8666 41.8626 42.8679 41.952H42.8678C44.584 42.0284 46.3147 40.9617 47.6475 39.8691C49.0105 38.7518 49.7502 37.8408 50.5351 36.9345C49.8401 35.9733 49.2012 35.0155 47.9117 33.7533C46.5104 32.3815 44.6805 31.069 42.7461 31.2694C43.2596 29.5778 43.5387 27.7824 43.5451 25.923C48.3285 26.5593 50.4067 24.4659 50.8969 19.831ZM33.805 7.85153C33.8458 6.90743 35.052 5.46636 36.2134 4.39914C37.2776 5.56296 38.3529 7.1036 38.3119 8.05299V8.0531C38.2731 8.95179 37.063 10.1112 35.9426 10.8847C35.8976 10.8521 35.8535 10.8186 35.8082 10.7863C34.8646 9.98106 33.7651 8.77573 33.805 7.85153ZM12.69 8.0532C12.6493 7.10941 13.7255 5.56724 14.7899 4.40067C15.9513 5.46809 17.1561 6.90795 17.1969 7.85142C17.2399 8.84815 15.7908 10.3557 15.0608 10.8835C14.0286 10.17 12.7316 9.01494 12.69 8.0532ZM4.06849 22.486C3.38389 21.8482 3.07321 19.9831 3.01517 18.3924C4.57766 18.3115 6.43069 18.4628 7.11509 19.1005C7.8404 19.7766 7.86065 21.9031 7.71339 22.783C6.38227 23.0428 4.72062 23.0937 4.06849 22.486ZM8.00181 38.895C7.07319 38.9321 5.55871 37.8414 4.41215 36.7583C5.46127 35.5765 6.8762 34.3506 7.80351 34.3091C8.67097 34.2685 9.8851 35.356 10.7384 36.4066C10.7551 36.4305 10.771 36.455 10.7878 36.4789C10.0272 37.6212 8.88601 38.8555 8.00181 38.895ZM20.52 47.3953C19.8931 48.092 18.0604 48.4081 16.497 48.4671C16.4176 46.8767 16.5662 44.9918 17.1931 44.2952C17.8708 43.5423 19.802 43.5695 20.8082 43.6748C21.0438 44.9227 21.1614 46.6827 20.52 47.3953ZM34.5048 48.4692C32.9434 48.412 31.1125 48.0962 30.4818 47.3953C29.883 46.73 29.9349 45.0315 30.1914 43.6766C31.4338 43.5474 33.1675 43.5827 33.8086 44.2952C34.4359 44.9921 34.5844 46.879 34.5048 48.4692ZM43.8866 19.1007C44.5715 18.4625 46.4262 18.3119 47.9887 18.3925C47.9325 19.9812 47.6223 21.8443 46.9334 22.4861C46.2813 23.0939 44.6184 23.0426 43.2885 22.7832C43.2811 22.7388 43.2742 22.6943 43.2664 22.6499C43.1551 21.3977 43.2104 19.731 43.8866 19.1007ZM43.1984 34.3091C44.1257 34.3506 45.541 35.577 46.5896 36.7582C45.4428 37.8416 43.9276 38.9338 43.0001 38.895H43C42.1157 38.8554 40.974 37.6204 40.2139 36.479C40.2269 36.4605 40.2392 36.4417 40.252 36.4232C41.0427 35.4474 42.2686 34.27 43.1984 34.3091Z" fill="#7E8D94"/>
<path d="M19.8253 27.8409L18.4854 35.7901L25.5011 32.037L32.5168 35.7901L31.177 27.8409L36.8528 22.2111L29.009 21.0514L25.5011 13.8189L21.9933 21.0514L14.1494 22.2111L19.8253 27.8409ZM23.9905 23.8485L25.5011 20.7339L27.0118 23.8485L30.3898 24.348L27.9454 26.7724L28.5225 30.1959L25.501 28.5796L22.4796 30.1959L23.0566 26.7724L20.6122 24.348L23.9905 23.8485Z" fill="#7E8D94"/>
</g>
<defs>
<clipPath id="clip0">
<rect width="51" height="51.8947" fill="white"/>
</clipPath>
</defs>
</svg>
