<svg width="56" height="56" viewBox="0 0 56 56" fill="none" xmlns="http://www.w3.org/2000/svg">
<path d="M51.831 23.2612C51.0262 22.8452 50.0364 23.1607 49.6204 23.9656L47.7113 27.6607L45.8735 23.9851C45.5956 23.4293 45.0276 23.0782 44.4061 23.0782C43.7846 23.0782 43.2165 23.4293 42.9387 23.9851L41.1248 27.6127L39.311 23.9851C39.017 23.3968 38.4012 23.0416 37.7432 23.0812L37.6439 23.0874C36.9128 23.1322 36.3235 23.6493 36.1535 24.3236C36.0417 23.8743 35.7426 23.4745 35.296 23.2513C34.4859 22.8463 33.5002 23.1745 33.095 23.985L31.2811 27.6127L29.4673 23.9851C29.1893 23.4293 28.6213 23.0782 27.9998 23.0782C27.3784 23.0782 26.8104 23.4293 26.5323 23.9851L24.7186 27.6127L22.9048 23.9851C22.4996 23.1747 21.514 22.8462 20.7036 23.2514C20.2571 23.4747 19.9579 23.8744 19.8461 24.3236C19.6763 23.6493 19.0869 23.1321 18.3558 23.0872L18.2565 23.0811C17.5998 23.0407 16.9828 23.3967 16.6887 23.985L14.8748 27.6127L13.0611 23.9851C12.4638 22.7935 10.7365 22.7644 10.1262 23.9851L8.28838 27.6608L6.37924 23.9659C5.96339 23.1609 4.97366 22.8455 4.16866 23.2614C3.36366 23.6773 3.04822 24.6671 3.46417 25.4721L6.8548 32.0346C7.47025 33.2259 9.17957 33.2156 9.77982 32.0152L11.5936 28.3873L13.4075 32.015C14.0116 33.2232 15.7396 33.2205 16.3423 32.015L19.3992 25.9009C19.6143 25.6919 19.7723 25.4236 19.8473 25.1205C19.8759 25.2331 19.9159 25.3443 19.97 25.4525L23.2512 32.015C23.8554 33.2232 25.5833 33.2205 26.1861 32.015L27.9998 28.3873L29.8136 32.015C30.4178 33.2232 32.1458 33.2206 32.7485 32.015L36.0297 25.4524C36.0837 25.3443 36.1238 25.2331 36.1523 25.1205C36.2273 25.4237 36.3854 25.6921 36.6005 25.9011L39.6575 32.015C40.2614 33.2232 41.9897 33.2205 42.5922 32.015L44.4061 28.3873L46.22 32.015C46.8194 33.2143 48.5289 33.2266 49.1449 32.0343L52.5355 25.4717C52.9514 24.6667 52.636 23.677 51.831 23.2612Z" fill="#1C6434"/>
<path d="M53.9254 17.4266C49.756 7.25058 39.6612 0 28 0C16.3358 0 6.24291 7.25309 2.07473 17.4265C0.820422 18.3194 0 19.784 0 21.4375V34.5625C0 36.216 0.820422 37.6806 2.07473 38.5735C6.24389 48.7492 16.3385 56 28 56C39.6642 56 49.757 48.7469 53.9254 38.5734C55.1796 37.6805 56 36.2159 56 34.5625V21.4375C56 19.7841 55.1796 18.3195 53.9254 17.4266ZM49.8799 16.5156H41.4923C40.4496 12.0482 38.8221 8.20181 36.7515 5.33116C36.6068 5.13067 36.4604 4.9362 36.3124 4.74655C42.0665 6.82937 46.9684 11.0126 49.8799 16.5156ZM29.6406 3.556C34.1299 5.0633 36.9371 11.8595 38.1157 16.5156H29.6406V3.556ZM26.3594 3.556V16.5156H17.8842C18.8266 12.7926 20.2028 9.61702 21.9097 7.25069C22.9352 5.82903 24.4605 4.19355 26.3594 3.556ZM19.6876 4.74655C19.5396 4.9362 19.3932 5.13056 19.2485 5.33116C17.1779 8.20181 15.5503 12.0482 14.5077 16.5156H6.12008C9.03164 11.0126 13.9334 6.82937 19.6876 4.74655ZM6.12008 39.4844H14.5077C15.4626 43.5755 17.1029 47.9407 19.6876 51.2535C13.9334 49.1706 9.03164 44.9874 6.12008 39.4844ZM26.3594 52.444C21.8701 50.9367 19.0627 44.1405 17.8842 39.4844H26.3594V52.444ZM29.6406 52.444V39.4625H38.1158C36.9354 44.1255 34.1204 50.9399 29.6406 52.444ZM36.3124 51.2535C38.8968 47.9411 40.5373 43.5545 41.4923 39.4625H49.8799C46.9684 44.9655 42.0666 49.1706 36.3124 51.2535ZM52.7188 34.5625C52.7188 35.4671 51.9828 36.2031 51.0781 36.2031C50.0372 36.2031 6.11188 36.2031 4.92188 36.2031C4.01723 36.2031 3.28125 35.4671 3.28125 34.5625V21.4375C3.28125 20.5329 4.01723 19.7969 4.92188 19.7969C6.17258 19.7969 49.9551 19.7969 51.0781 19.7969C51.9828 19.7969 52.7188 20.5329 52.7188 21.4375V34.5625Z" fill="#1C6434"/>
</svg>
