<svg width="54" height="54" viewBox="0 0 54 54" fill="none" xmlns="http://www.w3.org/2000/svg">
<g clip-path="url(#clip0)">
<path d="M52.8443 19.2336L34.7409 1.13025C33.2347 -0.37597 30.8763 -0.374599 29.3713 1.13025L1.13064 29.3709C0.38961 30.112 -0.0225677 31.1297 0.000424807 32.1619C0.0220462 33.1624 0.431692 34.0854 1.1549 34.7652L5.01068 38.621C5.67852 39.2901 6.73501 39.3677 7.49387 38.8067C9.70801 37.1714 12.7896 37.3846 14.6628 39.3048C16.5817 41.2708 16.8152 44.3594 15.2053 46.4896C14.6309 47.2497 14.7048 48.3157 15.3783 48.9892L19.2582 52.8692C19.9802 53.5905 20.9635 54.0008 21.9684 54.0008C21.9951 54.0008 22.0225 54.0001 22.0492 53.9995C23.0497 53.9779 23.9726 53.5689 24.6525 52.845L52.8684 24.6272C53.6094 23.8868 54.021 22.8698 53.9986 21.8369C53.977 20.8364 53.5681 19.9135 52.8443 19.2336ZM32.095 3.80866C32.0861 3.81373 32.0715 3.81626 32.0594 3.81879L30.7212 2.48058L32.095 3.80866ZM21.9436 50.1571L19.138 47.3515C20.8496 43.8818 20.2129 39.528 17.3939 36.6391C14.5845 33.7628 10.2091 33.1115 6.65359 34.8671L3.84291 32.057L32.0568 3.84368L50.1569 21.9437L21.9436 50.1571Z" fill="#1C6434"/>
<path d="M25.3338 7.62943L22.6187 10.3098L27.5156 15.2702L30.2307 12.5898L25.3338 7.62943Z" fill="#1C6434"/>
<path d="M41.4769 23.8288L38.7959 26.5449L43.7577 31.4426L46.4387 28.7265L41.4769 23.8288Z" fill="#1C6434"/>
<path d="M33.4041 15.6974L30.7061 18.3954L35.6668 23.3562L38.3648 20.6581L33.4041 15.6974Z" fill="#1C6434"/>
</g>
<defs>
<clipPath id="clip0">
<rect width="54" height="54" fill="white"/>
</clipPath>
</defs>
</svg>
