<svg width="56" height="56" viewBox="0 0 56 56" fill="none" xmlns="http://www.w3.org/2000/svg">
<path d="M28 6.5625C21.6675 6.5625 16.5156 11.7144 16.5156 18.0469C16.5156 21.9781 18.4982 25.5954 21.8189 27.723C25.2098 29.8955 29.3723 30.1264 33.2405 28.3467C34.0635 27.9681 34.4239 26.9937 34.0452 26.1706C33.6665 25.3475 32.6923 24.9872 31.869 25.3658C29.0406 26.6672 26.0225 26.5192 23.589 24.9601C21.2145 23.4388 19.7969 20.8544 19.7969 18.0469C19.7969 13.5237 23.4768 9.84375 28 9.84375C32.5232 9.84375 36.2031 13.5237 36.2031 18.0469C36.2031 18.9515 35.4671 19.6875 34.5625 19.6875C33.7358 19.6875 32.9637 19.0606 32.9221 18.0718C32.922 18.0635 32.9219 18.0552 32.9219 18.0469C32.9219 15.333 30.7139 13.125 28 13.125C25.2861 13.125 23.0781 15.333 23.0781 18.0469C23.0781 20.7608 25.2861 22.9688 28 22.9688C29.2596 22.9688 30.4096 22.4926 31.2811 21.7116C32.1525 22.4927 33.3028 22.9688 34.5625 22.9688C37.2764 22.9688 39.4844 20.7608 39.4844 18.0469C39.4844 11.7144 34.3325 6.5625 28 6.5625ZM29.6175 18.31C29.4909 19.0898 28.8148 19.6875 28 19.6875C27.0954 19.6875 26.3594 18.9515 26.3594 18.0469C26.3594 17.1422 27.0954 16.4062 28 16.4062C28.8412 16.4062 29.5356 17.0428 29.6291 17.8593C29.6046 18.0084 29.6006 18.1601 29.6175 18.31Z" fill="#1C6434"/>
<path d="M52.6093 21.5443C52.6088 21.12 52.438 20.6959 52.1288 20.3867L46.0469 14.3048V1.64062C46.0469 0.734562 45.3123 0 44.4062 0H11.5938C10.6877 0 9.95312 0.734562 9.95312 1.64062V14.3048L3.87122 20.3867C3.86553 20.3924 3.86072 20.3988 3.85514 20.4046C3.54769 20.7213 3.39139 21.1384 3.39073 21.5443C3.39073 21.5453 3.39062 21.5463 3.39062 21.5474V51.0781C3.39062 53.7955 5.60175 56 8.3125 56H47.6875C50.4043 56 52.6094 53.7899 52.6094 51.0781V21.5474C52.6094 21.5463 52.6093 21.5453 52.6093 21.5443ZM46.0469 18.9452L48.6486 21.5469L46.0469 24.1486V18.9452ZM13.2344 14.9849C13.2344 14.9846 13.2344 14.9842 13.2344 14.9838V3.28125H42.7656V14.9838C42.7656 14.9842 42.7656 14.9846 42.7656 14.9849V27.4298L33.883 36.3125H22.117L13.2344 27.4298V14.9849ZM9.95312 18.9452V24.1486L7.35142 21.5469L9.95312 18.9452ZM6.67188 50.3986V25.5077L19.1173 37.9531L6.67188 50.3986ZM8.99216 52.7188L22.117 39.5938H33.883L47.0078 52.7188H8.99216ZM49.3281 50.3986L36.8827 37.9531L49.3281 25.5077V50.3986Z" fill="#1C6434"/>
</svg>
