<svg width="58" height="58" viewBox="0 0 58 58" fill="none" xmlns="http://www.w3.org/2000/svg">
<path d="M29 0C13.0093 0 0 13.0093 0 29C0 44.9907 13.0093 58 29 58C44.9907 58 58 44.9907 58 29C58 13.0093 44.9907 0 29 0ZM29 54.6016C14.8832 54.6016 3.39844 43.1168 3.39844 29C3.39844 14.8832 14.8832 3.39844 29 3.39844C43.1168 3.39844 54.6016 14.8832 54.6016 29C54.6016 43.1168 43.1168 54.6016 29 54.6016Z" fill="#1C6434"/>
<path d="M29 6.79688C16.7571 6.79688 6.79688 16.7571 6.79688 29C6.79688 41.2429 16.7571 51.2031 29 51.2031C41.2429 51.2031 51.2031 41.2429 51.2031 29C51.2031 16.7571 41.2429 6.79688 29 6.79688ZM29 47.8047C18.631 47.8047 10.1953 39.369 10.1953 29C10.1953 18.631 18.631 10.1953 29 10.1953C39.369 10.1953 47.8047 18.631 47.8047 29C47.8047 39.369 39.369 47.8047 29 47.8047Z" fill="#1C6434"/>
<path d="M41.0954 19.3075L38.6924 16.9045L29 26.5969L19.3477 16.9446L16.9447 19.3477L26.5969 28.9999L24.1939 31.403L26.5969 33.806L29 31.403L31.403 33.806L33.806 31.403L31.403 28.9999L41.0954 19.3075Z" fill="#1C6434"/>
<path d="M27.3008 13.5938H30.6992V16.9922H27.3008V13.5938Z" fill="#1C6434"/>
<path d="M27.3008 41.0078H30.6992V44.4062H27.3008V41.0078Z" fill="#1C6434"/>
<path d="M13.5938 27.3008H16.9922V30.6992H13.5938V27.3008Z" fill="#1C6434"/>
<path d="M41.0078 27.3008H44.4062V30.6992H41.0078V27.3008Z" fill="#1C6434"/>
</svg>
