<svg width="56" height="56" viewBox="0 0 56 56" fill="none" xmlns="http://www.w3.org/2000/svg">
<g clip-path="url(#clip0)">
<path d="M23.9921 31.0516C23.9921 28.0706 21.5669 25.6454 18.586 25.6454C15.605 25.6454 13.1797 28.0706 13.1797 31.0516H16.4609C16.4609 29.8799 17.4143 28.9266 18.586 28.9266C19.7577 28.9266 20.7109 29.8799 20.7109 31.0516H23.9921Z" fill="#1C6434"/>
<path d="M37.414 25.6453C34.433 25.6453 32.0078 28.0704 32.0078 31.0514H35.2891C35.2891 29.8797 36.2423 28.9265 37.414 28.9265C38.5857 28.9265 39.539 29.8797 39.539 31.0514H42.8203C42.8203 28.0704 40.3951 25.6453 37.414 25.6453Z" fill="#1C6434"/>
<path d="M28.0001 40.6524C25.9256 40.6524 23.9805 39.5399 22.9236 37.749L20.0977 39.4164C21.7418 42.2027 24.7698 43.9335 27.9999 43.9335C31.2301 43.9335 34.2581 42.2027 35.9022 39.4164L33.0763 37.7489C32.0196 39.5398 30.0744 40.6524 28.0001 40.6524Z" fill="#1C6434"/>
<path d="M53.8651 25.2402C52.8201 24.1965 51.5079 23.5063 50.0835 23.236C47.0075 13.7305 38.0843 7.18587 28 7.18587H26.9C24.2585 7.18587 22.1094 5.0367 22.1094 2.39526H18.8282C18.8282 4.18773 19.4162 5.84495 20.4084 7.18587H19.3688C16.7273 7.18587 14.5782 5.0367 14.5782 2.39526H11.297C11.297 5.96038 13.621 8.99095 16.8328 10.0567C11.7531 12.8495 7.77147 17.5039 5.91659 23.236C4.49223 23.5063 3.17964 24.1967 2.13378 25.2414C0.75778 26.6189 0 28.4492 0 30.3953C0 32.3174 0.741511 34.1309 2.08807 35.5018C3.14046 36.5733 4.46954 37.2802 5.91659 37.5546C8.99242 47.0601 17.9156 53.6047 28 53.6047C38.0844 53.6047 47.0075 47.0601 50.0834 37.5546C51.5305 37.2802 52.8595 36.5733 53.9119 35.5018C55.2585 34.1309 56 32.3174 56 30.3953C56 28.4492 55.2422 26.6189 53.8651 25.2402ZM48.7907 34.4007L47.5595 34.4241L47.238 35.6128C44.8957 44.2741 36.9848 50.3233 27.9999 50.3233C19.015 50.3233 11.1042 44.2742 8.762 35.6128L8.44049 34.4241L7.20925 34.4007C5.04327 34.3598 3.28113 32.563 3.28113 30.3953C3.28113 29.3249 3.69804 28.3181 4.45371 27.5616C5.19069 26.8254 6.16926 26.4091 7.20892 26.3897L8.44038 26.3665L8.76189 25.1776C11.1042 16.5164 19.0151 10.4672 28 10.4672C30.9655 10.4672 33.3781 12.8798 33.3781 15.8453C33.3781 18.8108 30.9655 21.2234 28 21.2234C25.0345 21.2234 22.6219 18.8109 22.6219 15.8454H19.3407C19.3407 20.6202 23.2252 24.5047 28 24.5047C32.7748 24.5047 36.6593 20.6202 36.6593 15.8454C36.6593 14.4865 36.3439 13.2004 35.7836 12.0547C41.2869 14.3956 45.6091 19.1546 47.238 25.1777L47.5595 26.3666L48.791 26.3898C49.8307 26.4093 50.8092 26.8255 51.545 27.5604C52.302 28.3183 52.7189 29.325 52.7189 30.3954C52.7188 32.5631 50.9566 34.3599 48.7907 34.4007Z" fill="#1C6434"/>
</g>
<defs>
<clipPath id="clip0">
<rect width="56" height="56" fill="white"/>
</clipPath>
</defs>
</svg>
