<svg width="58" height="58" viewBox="0 0 58 58" fill="none" xmlns="http://www.w3.org/2000/svg">
<path d="M56.3008 27.3008H52.5398V21.7198C52.5398 17.7654 49.3406 14.5604 45.3805 14.5604H43.4396V5.33928C43.4396 2.39522 41.0443 0 38.1002 0H34.4602H16.2596H12.6195C9.69438 0 7.28025 2.36395 7.28025 5.33928V18.2004H5.3394C2.40995 18.2006 0 20.5681 0 23.5398C0 25.4694 1.02893 27.1629 2.56673 28.1011C2.0931 28.898 1.81998 29.8276 1.81998 30.8201C1.81998 32.7482 2.84755 34.4408 4.38353 35.3794C3.89903 36.1943 3.64007 37.1271 3.64007 38.1003C3.64007 40.1466 4.76132 41.782 6.20543 42.6639C5.7326 43.4604 5.46004 44.389 5.46004 45.3806C5.46004 46.9773 6.16556 48.4117 7.28002 49.3909V52.6607C7.28025 55.6048 9.67546 58 12.6195 58H38.1002C39.5273 58 40.8683 57.4442 41.8746 56.4365C42.8838 55.4285 43.4395 54.0876 43.4395 52.6606V50.7198H45.3805C48.743 50.7198 51.5713 48.3898 52.3362 45.2596H56.3008C57.2392 45.2596 58 44.4988 58 43.5604V29C58 28.0616 57.2392 27.3008 56.3008 27.3008ZM17.9588 3.39844H32.7609V5.33928C32.7609 6.39699 31.9058 7.28013 30.82 7.28013H19.8998C18.8398 7.28013 17.9588 6.42293 17.9588 5.33928V3.39844ZM3.39844 23.5398C3.39844 22.482 4.25394 21.599 5.3394 21.599H7.28025V25.4808H5.3394C4.26923 25.4807 3.39844 24.61 3.39844 23.5398ZM5.21841 30.8201C5.21841 29.7498 6.08921 28.8791 7.15938 28.8791H12.6195C13.6897 28.8791 14.5604 29.7498 14.5604 30.8201C14.5604 31.8903 13.6897 32.7609 12.6195 32.7609H7.15938C6.08921 32.7609 5.21841 31.8903 5.21841 30.8201ZM7.03862 38.1002C7.03862 37.0423 7.894 36.1594 8.97946 36.1594H12.6195C13.6796 36.1594 14.5604 37.0166 14.5604 38.1002C14.5604 39.1603 13.7034 40.0411 12.6195 40.0411H8.97946C7.91938 40.0412 7.03862 39.184 7.03862 38.1002ZM8.85859 45.3805C8.85859 44.3103 9.72927 43.4396 10.7994 43.4396C11.8696 43.4396 12.7404 44.3103 12.7404 45.3805C12.7404 46.4506 11.8696 47.3213 10.7994 47.3213C9.72927 47.3213 8.85859 46.4506 8.85859 45.3805ZM40.0412 52.6607C40.0412 53.7184 39.186 54.6016 38.1002 54.6016H12.6195C11.5494 54.6016 10.6786 53.7309 10.6786 52.6607V50.7168C10.7189 50.7177 10.7589 50.7199 10.7993 50.7199C13.7434 50.7199 16.1387 48.3246 16.1387 45.3806C16.1387 44.3891 15.8662 43.4606 15.3934 42.6641C16.4324 42.0297 17.9588 40.5353 17.9588 38.1003C17.9588 36.7347 17.4487 35.4488 16.522 34.4588C17.4123 33.5045 17.9588 32.2252 17.9588 30.8202C17.9588 27.876 15.5636 25.4808 12.6195 25.4808H10.6787V19.8998V5.33928C10.6787 4.28192 11.5335 3.39844 12.6195 3.39844H14.5604V5.33928C14.5604 8.27508 16.9341 10.6786 19.8998 10.6786H30.82C33.7558 10.6786 36.1594 8.3051 36.1594 5.33928V3.39844H38.1002C39.1704 3.39844 40.0412 4.26912 40.0412 5.33928V14.5604H30.8201C29.8817 14.5604 29.1209 15.3212 29.1209 16.2596C29.1209 22.2145 33.9656 27.059 39.9204 27.059H40.0412V52.6607ZM54.6016 41.8612H50.8406C49.9022 41.8612 49.1414 42.622 49.1414 43.5604C49.1414 45.6342 47.4542 47.3213 45.3805 47.3213H43.4396V25.3599C43.4396 24.4215 42.6788 23.6607 41.7404 23.6607H39.9203C36.424 23.6607 33.4859 21.2235 32.716 17.9589H45.3805C47.4593 17.9589 49.1414 19.6401 49.1414 21.7199V29C49.1414 29.9384 49.9022 30.6992 50.8406 30.6992H54.6016V41.8612Z" fill="#1C6434"/>
<path d="M29 47.3213H21.7197C20.7813 47.3213 20.0205 48.0821 20.0205 49.0205C20.0205 49.9589 20.7813 50.7197 21.7197 50.7197H29C29.9384 50.7197 30.6992 49.9589 30.6992 49.0205C30.6992 48.0821 29.9384 47.3213 29 47.3213Z" fill="#1C6434"/>
</svg>
