<svg width="53" height="53" viewBox="0 0 53 53" fill="none" xmlns="http://www.w3.org/2000/svg">
<path d="M33.8135 53C33.6824 53 33.5507 52.9995 33.418 52.9982C29.3337 52.9621 25.1445 51.7459 20.9669 49.3833C17.6866 47.5283 14.3892 44.9536 11.1666 41.7308C3.8233 34.3874 0.0669743 26.9355 0.00207251 19.5824C-0.0391251 14.9224 0.49044 8.14291 5.54242 3.09072C7.51649 1.1166 9.97924 0.0190465 12.4769 0.000310542L12.5433 0H12.5606C15.5836 0 18.3905 1.65405 19.8879 4.31994L21.5759 7.32526L21.6047 7.38519C22.4628 9.17288 22.8829 10.546 22.9667 11.8374C23.0867 13.6848 22.4903 15.2835 21.1941 16.5893L16.5033 21.4517C17.2005 23.3804 18.9847 27.5388 22.3753 30.9368C25.7316 34.2858 29.7781 35.9943 31.6949 36.6665L36.3972 31.786C37.7148 30.4708 39.2781 29.8431 41.0412 29.9198C42.3958 29.9789 43.824 30.4323 45.6716 31.3898L45.733 31.423L48.6802 33.0785C51.351 34.5788 53.0063 37.3935 53 40.4245L52.9996 40.4974C52.9809 42.9872 51.8835 45.45 49.9093 47.4241C47.7153 49.6182 44.9486 51.1809 41.6862 52.0684C39.3844 52.6945 36.8053 53 33.8135 53ZM12.5592 4.14055C12.5563 4.14055 12.5535 4.14055 12.5506 4.14055L12.5071 4.14076C11.1046 4.15132 9.67057 4.81815 8.47025 6.0185C4.5188 9.97004 4.10775 15.6313 4.14233 19.5458C4.1974 25.7751 7.54568 32.2542 14.0942 38.8029C20.7109 45.4198 27.2247 48.8027 33.4545 48.8578C37.3549 48.8924 43.0004 48.4775 46.9815 44.4961C48.1819 43.2958 48.8488 41.8618 48.8593 40.4584L48.8595 40.4084C48.8626 38.8832 48.0169 37.4549 46.6524 36.6884L43.7362 35.0503C40.861 33.5663 40.035 34.0097 39.3353 34.7033L32.9569 41.3242L31.7944 41.0328C31.5127 40.9622 24.8357 39.2424 19.449 33.8659L19.4462 33.8631C14.0825 28.4889 12.2256 21.7318 12.1492 21.4467L11.846 20.3158L18.2498 13.6782C18.8549 13.0718 19.3254 12.2285 17.9001 9.23571L16.278 6.34767C15.5128 4.98574 14.0884 4.14055 12.5592 4.14055ZM45.7236 7.2765C41.0315 2.58422 34.7928 0.000103514 28.1571 0.000103514V4.14066C39.5724 4.14066 48.8594 13.4279 48.8594 24.8434H52.9999C52.9999 18.2075 50.4158 11.9687 45.7236 7.2765ZM28.1571 16.5622V20.7028C30.4402 20.7028 32.2976 22.5602 32.2976 24.8433H36.438C36.438 20.2771 32.7232 16.5622 28.1571 16.5622ZM28.1571 8.28111V12.4217C35.0063 12.4217 40.5785 17.994 40.5785 24.8433H44.719C44.719 15.7109 37.2894 8.28111 28.1571 8.28111Z" fill="#1C6434"/>
</svg>
