<svg width="79" height="79" viewBox="0 0 79 79" fill="none" xmlns="http://www.w3.org/2000/svg">
<g filter="url(#filter0_d)">
<circle cx="39.5" cy="38.5" r="33.5" fill="white" stroke="#1C6434" stroke-width="4"/>
<path d="M62 27.8652C62 25.6844 60.2258 23.9102 58.0449 23.9102H56.7266V20.043C56.7266 17.8137 54.9129 16 52.6836 16H26.3164C24.0871 16 22.2734 17.8137 22.2734 20.043V23.9102H20.9551C18.7742 23.9102 17 25.6844 17 27.8652V34.4816H22.2734V54.823H24.0312V57.0449C24.0312 59.2258 25.8055 61 27.9863 61H29.7688C31.9496 61 33.7238 59.2258 33.7238 57.0449V54.823H45.2763V57.0449C45.2763 59.2258 47.0505 61 49.2313 61H51.0137C53.1945 61 54.9688 59.2258 54.9688 57.0449V54.823H56.7266V34.4816H62V27.8652ZM26.3164 18.6367H52.6836C53.459 18.6367 54.0898 19.2676 54.0898 20.043V21.2734H24.9102V20.043C24.9102 19.2676 25.541 18.6367 26.3164 18.6367ZM19.6367 31.8449V27.8652C19.6367 27.1383 20.2281 26.5469 20.9551 26.5469H22.2734V31.8449H19.6367ZM54.0898 49.5496V52.1863H45.7033V46.9129H33.2966V52.1863H24.9102V49.5496H30.2204V46.9129H24.9102V41.8588C29.7549 42.5736 34.6273 42.9324 39.5 42.9324C44.3727 42.9324 49.245 42.5736 54.0898 41.8588V46.9129H48.7795V49.5496H54.0898ZM43.0666 52.1863H35.9333V49.5496H43.0666V52.1863ZM31.0871 57.0449C31.0871 57.7719 30.4957 58.3633 29.7688 58.3633H27.9863C27.2594 58.3633 26.668 57.7719 26.668 57.0449V54.823H31.0871V57.0449ZM52.332 57.0449C52.332 57.7719 51.7406 58.3633 51.0137 58.3633H49.2313C48.5044 58.3633 47.913 57.7719 47.913 57.0449V54.823H52.332V57.0449ZM54.0898 39.1935C44.4025 40.6623 34.5975 40.6623 24.9102 39.1935V34.4816V23.9102H54.0898V34.4816V39.1935ZM59.3633 31.8449H56.7266V26.5469H58.0449C58.7719 26.5469 59.3633 27.1383 59.3633 27.8652V31.8449Z" fill="#1C6434"/>
</g>
<defs>
<filter id="filter0_d" x="0" y="0" width="79" height="79" filterUnits="userSpaceOnUse" color-interpolation-filters="sRGB">
<feFlood flood-opacity="0" result="BackgroundImageFix"/>
<feColorMatrix in="SourceAlpha" type="matrix" values="0 0 0 0 0 0 0 0 0 0 0 0 0 0 0 0 0 0 127 0" result="hardAlpha"/>
<feOffset dy="1"/>
<feGaussianBlur stdDeviation="2"/>
<feColorMatrix type="matrix" values="0 0 0 0 0 0 0 0 0 0 0 0 0 0 0 0 0 0 0.25 0"/>
<feBlend mode="normal" in2="BackgroundImageFix" result="effect1_dropShadow"/>
<feBlend mode="normal" in="SourceGraphic" in2="effect1_dropShadow" result="shape"/>
</filter>
</defs>
</svg>
