<svg width="52" height="52" viewBox="0 0 52 52" fill="none" xmlns="http://www.w3.org/2000/svg">
<path d="M39.2031 23.3594C40.325 23.3594 41.2344 22.45 41.2344 21.3281C41.2344 20.2063 40.325 19.2969 39.2031 19.2969C38.0813 19.2969 37.1719 20.2063 37.1719 21.3281C37.1719 22.45 38.0813 23.3594 39.2031 23.3594Z" fill="#1C6434"/>
<path d="M43.875 4.0625H41.2344V2.03125C41.2344 0.909391 40.325 0 39.2031 0C38.0813 0 37.1719 0.909391 37.1719 2.03125V4.0625H27.9297V2.03125C27.9297 0.909391 27.0203 0 25.8984 0C24.7766 0 23.8672 0.909391 23.8672 2.03125V4.0625H14.7266V2.03125C14.7266 0.909391 13.8172 0 12.6953 0C11.5735 0 10.6641 0.909391 10.6641 2.03125V4.0625H8.125C3.64488 4.0625 0 7.70738 0 12.1875V43.875C0 48.3551 3.64488 52 8.125 52H23.6641C24.7859 52 25.6953 51.0906 25.6953 49.9688C25.6953 48.8469 24.7859 47.9375 23.6641 47.9375H8.125C5.88494 47.9375 4.0625 46.1151 4.0625 43.875V12.1875C4.0625 9.94744 5.88494 8.125 8.125 8.125H10.6641V10.1562C10.6641 11.2781 11.5735 12.1875 12.6953 12.1875C13.8172 12.1875 14.7266 11.2781 14.7266 10.1562V8.125H23.8672V10.1562C23.8672 11.2781 24.7766 12.1875 25.8984 12.1875C27.0203 12.1875 27.9297 11.2781 27.9297 10.1562V8.125H37.1719V10.1562C37.1719 11.2781 38.0813 12.1875 39.2031 12.1875C40.325 12.1875 41.2344 11.2781 41.2344 10.1562V8.125H43.875C46.1151 8.125 47.9375 9.94744 47.9375 12.1875V23.7656C47.9375 24.8875 48.8469 25.7969 49.9688 25.7969C51.0906 25.7969 52 24.8875 52 23.7656V12.1875C52 7.70738 48.3551 4.0625 43.875 4.0625Z" fill="#1C6434"/>
<path d="M39.7109 27.4219C32.9347 27.4219 27.4219 32.9347 27.4219 39.7109C27.4219 46.4872 32.9347 52 39.7109 52C46.4872 52 52 46.4872 52 39.7109C52 32.9347 46.4872 27.4219 39.7109 27.4219ZM39.7109 47.9375C35.1749 47.9375 31.4844 44.2471 31.4844 39.7109C31.4844 35.1747 35.1749 31.4844 39.7109 31.4844C44.247 31.4844 47.9375 35.1747 47.9375 39.7109C47.9375 44.2471 44.247 47.9375 39.7109 47.9375Z" fill="#1C6434"/>
<path d="M42.6562 37.6797H41.7422V35.5469C41.7422 34.425 40.8328 33.5156 39.7109 33.5156C38.5891 33.5156 37.6797 34.425 37.6797 35.5469V39.7109C37.6797 40.8328 38.5891 41.7422 39.7109 41.7422H42.6562C43.7781 41.7422 44.6875 40.8328 44.6875 39.7109C44.6875 38.5891 43.7781 37.6797 42.6562 37.6797Z" fill="#1C6434"/>
<path d="M30.3672 23.3594C31.489 23.3594 32.3984 22.45 32.3984 21.3281C32.3984 20.2063 31.489 19.2969 30.3672 19.2969C29.2454 19.2969 28.3359 20.2063 28.3359 21.3281C28.3359 22.45 29.2454 23.3594 30.3672 23.3594Z" fill="#1C6434"/>
<path d="M21.5312 32.1953C22.6531 32.1953 23.5625 31.2859 23.5625 30.1641C23.5625 29.0422 22.6531 28.1328 21.5312 28.1328C20.4094 28.1328 19.5 29.0422 19.5 30.1641C19.5 31.2859 20.4094 32.1953 21.5312 32.1953Z" fill="#1C6434"/>
<path d="M12.6953 23.3594C13.8171 23.3594 14.7266 22.45 14.7266 21.3281C14.7266 20.2063 13.8171 19.2969 12.6953 19.2969C11.5735 19.2969 10.6641 20.2063 10.6641 21.3281C10.6641 22.45 11.5735 23.3594 12.6953 23.3594Z" fill="#1C6434"/>
<path d="M12.6953 32.1953C13.8171 32.1953 14.7266 31.2859 14.7266 30.1641C14.7266 29.0422 13.8171 28.1328 12.6953 28.1328C11.5735 28.1328 10.6641 29.0422 10.6641 30.1641C10.6641 31.2859 11.5735 32.1953 12.6953 32.1953Z" fill="#1C6434"/>
<path d="M12.6953 41.0312C13.8171 41.0312 14.7266 40.1218 14.7266 39C14.7266 37.8782 13.8171 36.9688 12.6953 36.9688C11.5735 36.9688 10.6641 37.8782 10.6641 39C10.6641 40.1218 11.5735 41.0312 12.6953 41.0312Z" fill="#1C6434"/>
<path d="M21.5312 41.0312C22.6531 41.0312 23.5625 40.1218 23.5625 39C23.5625 37.8782 22.6531 36.9688 21.5312 36.9688C20.4094 36.9688 19.5 37.8782 19.5 39C19.5 40.1218 20.4094 41.0312 21.5312 41.0312Z" fill="#1C6434"/>
<path d="M21.5312 23.3594C22.6531 23.3594 23.5625 22.45 23.5625 21.3281C23.5625 20.2063 22.6531 19.2969 21.5312 19.2969C20.4094 19.2969 19.5 20.2063 19.5 21.3281C19.5 22.45 20.4094 23.3594 21.5312 23.3594Z" fill="#1C6434"/>
</svg>
