<svg width="224" height="68" viewBox="0 0 224 68" fill="none" xmlns="http://www.w3.org/2000/svg">
<g clip-path="url(#clip0)">
<path fill-rule="evenodd" clip-rule="evenodd" d="M9.02368 0H58.3205V32.9075C59.2157 47.6718 46.5208 58.5407 33.8333 58.2759C19.2054 57.9679 9.02368 46.7339 9.02368 32.9075V0Z" fill="#00AEEF"/>
<path fill-rule="evenodd" clip-rule="evenodd" d="M29.8962 43.2274L31.1707 14.8233C30.2398 15.2817 29.3736 15.7757 28.9724 16.3555L28.8224 16.2411C29.5667 15.4035 30.0467 14.4938 30.4188 13.3698L27.5335 13.3553L26.7887 14.1863L24.2253 11.644L26.8604 8.90207L27.5907 9.58218H30.5262C30.154 8.62977 29.6745 7.71343 28.8651 6.93303L29.0085 6.78962C29.7744 7.3769 30.5693 7.75654 31.4716 8.09307L31.6506 5.47957L30.9058 4.76339L33.6196 2.07861L36.2186 4.48405L35.4382 5.33615L35.6314 8.22901C36.7628 7.77766 37.486 7.35535 38.3878 6.5965L38.5026 6.6968C37.7724 7.54891 37.2784 8.49384 36.9489 9.58218H39.6697L40.4787 8.64428L43.2141 11.2648L40.5218 14.0358L39.7485 13.2981H36.9489C37.0993 14.3864 37.9154 15.4321 38.617 16.1338L38.4956 16.2481C37.8441 15.6037 37.0707 15.1312 36.1469 14.8017L37.8441 42.9837L29.8962 43.2274Z" fill="white"/>
<path fill-rule="evenodd" clip-rule="evenodd" d="M33.8308 38.589L48.8525 53.2385C44.4489 56.7471 38.9788 58.3868 33.9022 58.3223C28.6466 58.265 23.2982 56.5393 19.2599 53.4822L33.8308 38.589Z" fill="#808285"/>
<path fill-rule="evenodd" clip-rule="evenodd" d="M20.7 22.1384L19.7837 23.1124L20.385 23.6566L19.4115 24.6662L20.0701 25.2605L19.4903 25.8403L18.8528 25.2389L17.5854 26.5776L18.5163 27.4583L19.0033 26.9502L19.5334 27.4512L19.0464 27.9668L19.8409 28.7116L21.1083 27.3795L20.521 26.8213L21.0581 26.2415L21.674 26.8138L22.0963 26.3343L22.6765 26.8855L22.2036 27.3795L22.8054 27.9527L22.2899 28.4965L21.6885 27.9307L20.4211 29.2628L21.2446 30.0502L21.7312 29.5346L22.2753 30.0577L21.7888 30.5658L22.9057 31.6255L24.1802 30.2939L23.5427 29.6921L24.0583 29.1409L24.6667 29.7854L25.576 28.7617L30.3376 33.3654L30.4379 31.7043L20.7 22.1384Z" fill="#FFDD00"/>
<path fill-rule="evenodd" clip-rule="evenodd" d="M46.689 22.2375L47.5768 23.1112L47.0326 23.6915L47.8918 24.5075L47.2974 25.1449L47.8416 25.6601L48.443 25.0231L49.7821 26.283L48.9088 27.2138L48.3928 26.7343L47.8918 27.2714L48.4073 27.7509L47.6555 28.5459L46.3164 27.2855L46.8681 26.6912L46.3239 26.1756L45.7652 26.7699L45.2712 26.2975L44.72 26.8773L45.2211 27.3498L44.6558 27.9516L45.1995 28.4671L45.7652 27.8658L47.1114 29.1257L46.331 29.9562L45.8154 29.4767L45.2998 30.0209L45.8154 30.5074L44.7556 31.6318L43.417 30.3645L44.0183 29.727L43.4671 29.2115L42.8653 29.8489L41.8417 28.8965L37.2736 33.5076L37.1588 31.8105L46.689 22.2375Z" fill="#FFDD00"/>
<path fill-rule="evenodd" clip-rule="evenodd" d="M30.0217 40.7746L30.1075 38.9485L26.1839 42.8509L25.3534 42.0204L24.5299 42.8509C25.3032 43.5451 24.8163 43.8676 23.9716 43.7316L22.4319 43.5024C22.2459 42.9438 21.6375 42.7863 21.0502 42.9438C20.5918 43.1875 20.3626 43.8104 20.8857 44.4834C20.499 44.8912 20.4128 45.4068 20.5417 45.7508C20.1123 46.1657 20.0265 46.5312 20.1409 47.0538C19.9187 47.3332 19.7186 47.7124 19.8831 48.0348C19.9262 48.6287 19.4106 48.6578 19.031 48.0991C18.7446 48.6648 18.7376 49.0585 19.038 49.5811C18.8379 49.882 18.8449 50.3404 18.888 50.6409C19.2888 50.8199 19.6183 50.8701 20.1624 50.6624C20.6991 51.0562 21.308 51.006 21.7734 50.5265C21.3295 50.2903 21.0643 50.0395 21.4655 49.7531C22.0026 49.6674 22.2604 49.8891 22.7755 49.4021C23.277 49.5671 23.6206 49.6243 24.1432 49.1447C24.5083 49.2591 24.9883 49.1447 25.3032 48.9081C25.8259 49.2662 26.3274 49.388 26.8715 48.9943C27.1865 48.7079 27.2507 47.7124 26.2271 47.3332V45.6862C26.1769 44.6194 26.7066 45.0201 27.1434 45.4284L27.9524 44.6194L27.0647 43.7316L30.0217 40.7746ZM21.4655 48.3855C21.5587 47.3187 21.6159 46.1014 22.117 45.3281C22.6682 44.4549 23.8067 44.9414 23.9787 45.9079C24.9953 46.13 25.5254 47.2329 24.58 47.6983C23.7781 48.085 22.5538 48.2064 21.4655 48.3855Z" fill="#FFDD00"/>
<path fill-rule="evenodd" clip-rule="evenodd" d="M37.7102 40.578L37.5958 38.6516L41.4978 42.5039L42.2928 41.6879L43.1088 42.518C42.3359 43.2201 42.8299 43.5351 43.6745 43.4062L45.2142 43.1699C45.4003 42.6112 46.0016 42.4538 46.5889 42.6183C47.0469 42.862 47.2761 43.4774 46.7534 44.1509C47.1472 44.5587 47.2259 45.0743 47.097 45.4179C47.5268 45.8406 47.6126 46.1983 47.5053 46.7213C47.7204 47.0077 47.9276 47.3869 47.756 47.7019C47.7129 48.2962 48.2355 48.3252 48.6151 47.7736C48.9015 48.3323 48.9086 48.726 48.6081 49.2486C48.8083 49.5495 48.7942 50.0149 48.7581 50.3154C48.3499 50.4944 48.0279 50.5446 47.4767 50.3299C46.9395 50.7307 46.3382 50.6735 45.8657 50.194C46.3096 49.9648 46.5814 49.707 46.1736 49.4277C45.6365 49.3419 45.3787 49.5566 44.8702 49.0696C44.3621 49.2416 44.0181 49.2917 43.503 48.8118C43.1378 48.9336 42.6508 48.8118 42.3429 48.5756C41.8203 48.9407 41.3118 49.0555 40.7676 48.6618C40.4596 48.375 40.3884 47.3869 41.4191 47.0077V45.3536C41.4622 44.2869 40.9396 44.6876 40.5028 45.1029L39.6863 44.2869L40.5745 43.4062L37.7102 40.578ZM46.1736 48.0529C46.0874 46.9932 46.0232 45.7689 45.5221 44.9956C44.978 44.1219 43.832 44.6159 43.6675 45.5828C42.6508 45.7975 42.1207 46.9074 43.0661 47.3658C43.8681 47.752 45.0853 47.8809 46.1736 48.0529Z" fill="#FFDD00"/>
</g>
<path d="M75.0054 18.7834H90.5488V21.9757L80.5837 31.326H90.9128V34.7596H74.0496V31.4446L83.9027 22.1941H75.0054V18.7834ZM104.32 32.1227H98.063L97.2016 34.7596H91.5909L98.2693 18.7834H104.257L110.94 34.7596H105.192L104.32 32.1227ZM103.17 28.6662L101.204 22.9234L99.2507 28.6662H103.17ZM112.719 18.7834H118.212V24.8201L123.971 18.7834H131.27L124.794 24.8094L131.56 34.7596H124.794L121.049 28.1863L118.212 30.8569V34.7596H112.719V18.7834ZM131.838 26.7803C131.838 24.1731 132.648 22.1429 134.262 20.6923C135.881 19.2377 138.131 18.5125 141.016 18.5125C143.975 18.5125 146.254 19.2269 147.856 20.6546C149.453 22.0795 150.256 24.0814 150.256 26.6509C150.256 28.518 149.905 30.0507 149.204 31.2438C148.506 32.4382 147.496 33.3684 146.176 34.0343C144.851 34.7003 143.209 35.0306 141.236 35.0306C139.232 35.0306 137.573 34.7448 136.257 34.1718C134.945 33.5948 133.882 32.6876 133.062 31.4446C132.246 30.2031 131.838 28.6487 131.838 26.7803ZM137.333 26.8032C137.333 28.4168 137.664 29.5748 138.33 30.2812C138.996 30.9836 139.906 31.3381 141.052 31.3381C142.232 31.3381 143.147 30.9917 143.793 30.3028C144.439 29.6112 144.765 28.3724 144.765 26.5875C144.765 25.0817 144.426 23.9843 143.751 23.2887C143.077 22.5972 142.162 22.2507 141.004 22.2507C139.898 22.2507 139.008 22.5999 138.338 23.3076C137.668 24.01 137.333 25.1774 137.333 26.8032ZM153.19 18.7834H162.318C164.305 18.7834 165.794 19.2081 166.783 20.06C167.773 20.908 168.269 22.1199 168.269 23.6864C168.269 25.3001 167.731 26.5619 166.651 27.4691C165.571 28.3764 163.924 28.8294 161.71 28.8294H158.705V34.7596H153.19V18.7834ZM158.705 25.594H160.051C161.11 25.594 161.85 25.4308 162.282 25.0992C162.708 24.7689 162.922 24.3443 162.922 23.8307C162.922 23.3292 162.736 22.9018 162.364 22.5554C161.996 22.2062 161.296 22.031 160.271 22.031H158.705V25.594ZM179.967 32.1227H173.71L172.85 34.7596H167.239L173.917 18.7834H179.905L186.588 34.7596H180.84L179.967 32.1227ZM178.816 28.6662L176.852 22.9234L174.897 28.6662H178.816ZM188.379 18.7834H193.512L200.202 27.6215V18.7834H205.379V34.7596H200.202L193.544 25.9889V34.7596H188.379V18.7834ZM209.016 18.7834H223.732V22.1941H214.52V24.7352H223.066V27.9935H214.52V31.14H224V34.7596H209.016V18.7834Z" fill="#808285"/>
<defs>
<clipPath id="clip0">
<rect width="67.5703" height="67.5703" fill="white"/>
</clipPath>
</defs>
</svg>
