<svg width="303" height="76" viewBox="0 0 303 76" fill="none" xmlns="http://www.w3.org/2000/svg">
<path d="M292.147 35.5678V33.17H293.357C295.069 33.17 296.344 31.989 296.344 30.2696C296.344 28.5616 295.069 27.3805 293.357 27.3805H289.904V35.5678H292.147ZM292.147 31.2516V29.3224H293.051C293.664 29.3224 294.101 29.7078 294.101 30.3044C294.101 30.8776 293.664 31.2516 293.051 31.2516H292.147ZM302.346 49.3192V40.4443H282.222V35.6033H287.228V27.3471H282.222V22.0745H301.985V13.1996H272.418V49.3192H302.346ZM297.631 35.5678H302.012V33.5327H299.874V27.3805H297.631V35.5678ZM256.534 49.3192H265.047V13.1996H255.243V32.9624L239.506 13.1996H230.991V49.3192H240.795V29.5564L256.534 49.3192ZM216.807 49.2445H227.494V48.7254L206.998 0L186.509 48.7254V49.2445H197.196L199.271 43.7451H214.68L216.807 49.2445ZM211.515 35.496H202.436L207.001 23.6154L211.515 35.496ZM187.804 25.9449C187.804 18.4111 182.231 13.1996 174.749 13.1996H157.862V49.3192H167.666V38.7413H174.749C182.231 38.7413 187.804 33.5299 187.804 25.9449ZM178 26.0999C178 28.6277 176.091 30.2788 173.408 30.2788H167.666V21.7652H173.408C176.091 21.7652 178 23.4682 178 26.0999ZM152.166 31.2893C152.166 21.0207 144.736 12.4558 132.713 12.4558C120.691 12.4558 113.209 21.0207 113.209 31.2893C113.209 41.5578 120.691 50.1234 132.713 50.1234C144.736 50.1234 152.166 41.5578 152.166 31.2893ZM142.208 31.2893C142.208 36.8107 138.647 40.9385 132.713 40.9385C126.779 40.9385 123.168 36.8107 123.168 31.2893C123.168 25.7685 126.779 21.5888 132.713 21.5888C138.647 21.5888 142.208 25.7685 142.208 31.2893ZM102.012 49.349H112.744V48.8847L99.5348 28.6064L112.435 13.6938V13.2295H100.825L87.3577 29.1738V13.2295H77.5535V49.349H87.3577V42.6415L93.2397 35.8814L102.012 49.349ZM60.7565 49.2445H72.704V48.7468L52.5963 0L32.3812 48.7468V49.2445H44.3287L47.4353 40.819C43.6275 38.2976 39.8063 37.8226 39.8063 37.8226C51.0824 36.2419 52.7975 46.6192 52.7975 46.6192C52.7975 46.6192 54.4956 36.2412 65.7781 37.8226C65.7781 37.8226 61.7058 38.3267 57.7793 41.0679L60.7565 49.2445ZM51.3434 41.1212L52.7918 39.6244L54.241 41.1212C54.241 41.1212 53.8428 41.565 53.4858 42.2419C53.1289 42.9195 52.7918 43.7764 52.7918 43.7764C52.7918 43.7764 52.4306 42.8491 52.1412 42.2838C51.8511 41.7178 51.3434 41.1212 51.3434 41.1212ZM52.2934 39.5107C51.2467 36.126 48.1699 35.449 48.1699 35.449C48.1699 28.0631 44.7233 24.9856 44.7233 24.9856C54.0782 30.2177 52.2934 39.5107 52.2934 39.5107ZM52.7918 34.5872C49.5301 27.1402 52.7918 22.0937 52.7918 22.0937C56.1154 29.048 52.7918 34.5872 52.7918 34.5872ZM60.8611 24.9856C60.8611 24.9856 57.4145 28.0631 57.4145 35.449C57.4145 35.449 54.337 36.126 53.291 39.5107C53.291 39.5107 51.5062 30.2177 60.8611 24.9856ZM0.000488281 49.349H30.0312V40.3711H13.4163L29.5156 20.7633V13.2295H0.516726V22.2082H16.203L0.000488281 41.9703V49.349Z" fill="#1C6434"/>
<path d="M4.61035 76C3.73576 76 2.94863 75.8565 2.24895 75.5696C1.54928 75.2707 0.999535 74.8523 0.599721 74.3143C0.199907 73.7764 0 73.1487 0 72.4314H2.28644C2.33641 72.9694 2.55506 73.4117 2.94238 73.7584C3.34219 74.1051 3.89819 74.2785 4.61035 74.2785C5.34751 74.2785 5.92224 74.1111 6.33455 73.7764C6.74686 73.4297 6.95301 72.9873 6.95301 72.4494C6.95301 72.0309 6.82182 71.6902 6.55945 71.4272C6.30956 71.1642 5.99096 70.961 5.60364 70.8175C5.22882 70.6741 4.70406 70.5186 4.02937 70.3513C3.17977 70.1361 2.48634 69.9209 1.94909 69.7057C1.42434 69.4786 0.974546 69.1319 0.599721 68.6656C0.224895 68.1994 0.0374822 67.5777 0.0374822 66.8006C0.0374822 66.0833 0.224895 65.4557 0.599721 64.9177C0.974546 64.3797 1.4993 63.9673 2.17399 63.6804C2.84867 63.3935 3.62956 63.25 4.51665 63.25C5.77856 63.25 6.80933 63.5549 7.60896 64.1646C8.42108 64.7623 8.87087 65.5872 8.95833 66.6392H6.59693C6.55945 66.185 6.33455 65.7964 5.92224 65.4736C5.50993 65.1508 4.96644 64.9895 4.29175 64.9895C3.67954 64.9895 3.17977 65.1389 2.79245 65.4378C2.40513 65.7366 2.21147 66.167 2.21147 66.7289C2.21147 67.1115 2.33016 67.4283 2.56755 67.6793C2.81744 67.9184 3.12979 68.1097 3.50462 68.2532C3.87944 68.3966 4.39171 68.552 5.0414 68.7194C5.9035 68.9466 6.60318 69.1737 7.14043 69.4008C7.69017 69.628 8.15245 69.9807 8.52728 70.4589C8.9146 70.9251 9.10826 71.5527 9.10826 72.3418C9.10826 72.9754 8.92709 73.5731 8.56476 74.135C8.21493 74.6969 7.69642 75.1512 7.00924 75.4979C6.33455 75.8326 5.53492 76 4.61035 76Z" fill="#1C6434"/>
<path d="M14.6772 74.0992H20.7306V75.8745H12.1471V74.2785L18.1818 65.1867H12.1471V63.4114H20.7306V65.0074L14.6772 74.0992Z" fill="#1C6434"/>
<path d="M26.189 74.2247H30.5932V75.8745H24.0525V63.4114H26.189V74.2247Z" fill="#1C6434"/>
<path d="M41.2189 73.3281H35.7652L34.8281 75.8745H32.5979L37.2645 63.3935H39.7383L44.4049 75.8745H42.1559L41.2189 73.3281ZM40.6192 71.6603L38.5014 65.8681L36.3649 71.6603H40.6192Z" fill="#1C6434"/>
<path d="M54.5982 75.8745L49.5568 70.2975V75.8745H47.4203V63.4114H49.5568V69.096L54.617 63.4114H57.297L51.6371 69.6519L57.3907 75.8745H54.5982Z" fill="#1C6434"/>
<path d="M70.4129 76C69.5383 76 68.7512 75.8565 68.0515 75.5696C67.3518 75.2707 66.8021 74.8523 66.4023 74.3143C66.0024 73.7764 65.8025 73.1487 65.8025 72.4314H68.089C68.1389 72.9694 68.3576 73.4117 68.7449 73.7584C69.1447 74.1051 69.7007 74.2785 70.4129 74.2785C71.15 74.2785 71.7248 74.1111 72.1371 73.7764C72.5494 73.4297 72.7555 72.9873 72.7555 72.4494C72.7555 72.0309 72.6244 71.6902 72.362 71.4272C72.1121 71.1642 71.7935 70.961 71.4062 70.8175C71.0313 70.6741 70.5066 70.5186 69.8319 70.3513C68.9823 70.1361 68.2889 69.9209 67.7516 69.7057C67.2269 69.4786 66.7771 69.1319 66.4023 68.6656C66.0274 68.1994 65.84 67.5777 65.84 66.8006C65.84 66.0833 66.0274 65.4557 66.4023 64.9177C66.7771 64.3797 67.3018 63.9673 67.9765 63.6804C68.6512 63.3935 69.4321 63.25 70.3192 63.25C71.5811 63.25 72.6119 63.5549 73.4115 64.1646C74.2236 64.7623 74.6734 65.5872 74.7609 66.6392H72.3995C72.362 66.185 72.1371 65.7964 71.7248 65.4736C71.3125 65.1508 70.769 64.9895 70.0943 64.9895C69.4821 64.9895 68.9823 65.1389 68.595 65.4378C68.2077 65.7366 68.014 66.167 68.014 66.7289C68.014 67.1115 68.1327 67.4283 68.3701 67.6793C68.62 67.9184 68.9323 68.1097 69.3071 68.2532C69.682 68.3966 70.1942 68.552 70.8439 68.7194C71.706 68.9466 72.4057 69.1737 72.943 69.4008C73.4927 69.628 73.955 69.9807 74.3298 70.4589C74.7171 70.9251 74.9108 71.5527 74.9108 72.3418C74.9108 72.9754 74.7296 73.5731 74.3673 74.135C74.0175 74.6969 73.4989 75.1512 72.8118 75.4979C72.1371 75.8326 71.3375 76 70.4129 76Z" fill="#1C6434"/>
<path d="M86.833 63.4114V65.0791H83.3659V75.8745H81.2294V65.0791H77.7435V63.4114H86.833Z" fill="#1C6434"/>
<path d="M99.6349 63.4114L95.3244 71.3555V75.8745H93.1879V71.3555L88.8587 63.4114H91.2388L94.2561 69.5264L97.2735 63.4114H99.6349Z" fill="#1C6434"/>
<path d="M104.453 74.2247H108.857V75.8745H102.317V63.4114H104.453V74.2247Z" fill="#1C6434"/>
<path d="M113.748 63.4114V71.3555C113.748 72.2999 114.004 73.0113 114.517 73.4895C115.041 73.9677 115.766 74.2068 116.691 74.2068C117.628 74.2068 118.352 73.9677 118.865 73.4895C119.389 73.0113 119.652 72.2999 119.652 71.3555V63.4114H121.788V71.3196C121.788 72.3358 121.557 73.1966 121.095 73.9019C120.633 74.6072 120.014 75.1333 119.24 75.48C118.465 75.8267 117.609 76 116.672 76C115.735 76 114.879 75.8267 114.104 75.48C113.342 75.1333 112.736 74.6072 112.287 73.9019C111.837 73.1966 111.612 72.3358 111.612 71.3196V63.4114H113.748Z" fill="#1C6434"/>
<path d="M133.473 74.0992H139.526V75.8745H130.943V74.2785L136.977 65.1867H130.943V63.4114H139.526V65.0074L133.473 74.0992Z" fill="#1C6434"/>
<path d="M150.701 73.3281H145.247L144.31 75.8745H142.08L146.746 63.3935H149.22L153.887 75.8745H151.638L150.701 73.3281ZM150.101 71.6603L147.983 65.8681L145.847 71.6603H150.101Z" fill="#1C6434"/>
<path d="M164.08 75.8745L159.039 70.2975V75.8745H156.902V63.4114H159.039V69.096L164.099 63.4114H166.779L161.119 69.6519L166.872 75.8745H164.08Z" fill="#1C6434"/>
<path d="M175.689 76C174.477 76 173.359 75.731 172.334 75.193C171.322 74.6431 170.517 73.884 169.917 72.9156C169.33 71.9353 169.036 70.8354 169.036 69.616C169.036 68.3966 169.33 67.3027 169.917 66.3344C170.517 65.366 171.322 64.6129 172.334 64.0749C173.359 63.525 174.477 63.25 175.689 63.25C176.914 63.25 178.032 63.525 179.044 64.0749C180.068 64.6129 180.874 65.366 181.461 66.3344C182.049 67.3027 182.342 68.3966 182.342 69.616C182.342 70.8354 182.049 71.9353 181.461 72.9156C180.874 73.884 180.068 74.6431 179.044 75.193C178.032 75.731 176.914 76 175.689 76ZM175.689 74.2247C176.551 74.2247 177.32 74.0394 177.994 73.6688C178.669 73.2862 179.194 72.7482 179.569 72.0549C179.956 71.3495 180.15 70.5366 180.15 69.616C180.15 68.6955 179.956 67.8885 179.569 67.1951C179.194 66.5018 178.669 65.9698 177.994 65.5992C177.32 65.2286 176.551 65.0432 175.689 65.0432C174.827 65.0432 174.059 65.2286 173.384 65.5992C172.709 65.9698 172.178 66.5018 171.791 67.1951C171.416 67.8885 171.229 68.6955 171.229 69.616C171.229 70.5366 171.416 71.3495 171.791 72.0549C172.178 72.7482 172.709 73.2862 173.384 73.6688C174.059 74.0394 174.827 74.2247 175.689 74.2247Z" fill="#1C6434"/>
<path d="M194.539 67.1234C194.539 67.757 194.383 68.3548 194.071 68.9167C193.758 69.4786 193.259 69.9388 192.572 70.2975C191.884 70.6442 191.003 70.8175 189.929 70.8175H187.568V75.8745H185.431V63.4114H189.929C190.929 63.4114 191.772 63.5788 192.459 63.9135C193.159 64.2363 193.677 64.6786 194.015 65.2405C194.364 65.8024 194.539 66.43 194.539 67.1234ZM189.929 69.1498C190.741 69.1498 191.347 68.9764 191.747 68.6297C192.147 68.2711 192.347 67.769 192.347 67.1234C192.347 65.7605 191.541 65.0791 189.929 65.0791H187.568V69.1498H189.929Z" fill="#1C6434"/>
<path d="M199.7 63.4114V75.8745H197.563V63.4114H199.7Z" fill="#1C6434"/>
<path d="M211.344 73.3281H205.89L204.953 75.8745H202.723L207.39 63.3935H209.863L214.53 75.8745H212.281L211.344 73.3281ZM210.744 71.6603L208.626 65.8681L206.49 71.6603H210.744Z" fill="#1C6434"/>
<path d="M228.247 75.8745H226.11L219.682 66.5675V75.8745H217.545V63.3935H219.682L226.11 72.6825V63.3935H228.247V75.8745ZM224.836 60.7395L220.694 62.6941V61.1878L224.836 59V60.7395Z" fill="#1C6434"/>
<path d="M236.33 76C235.456 76 234.669 75.8565 233.969 75.5696C233.269 75.2707 232.72 74.8523 232.32 74.3143C231.92 73.7764 231.72 73.1487 231.72 72.4314H234.006C234.056 72.9694 234.275 73.4117 234.662 73.7584C235.062 74.1051 235.618 74.2785 236.33 74.2785C237.068 74.2785 237.642 74.1111 238.055 73.7764C238.467 73.4297 238.673 72.9873 238.673 72.4494C238.673 72.0309 238.542 71.6902 238.279 71.4272C238.03 71.1642 237.711 70.961 237.324 70.8175C236.949 70.6741 236.424 70.5186 235.749 70.3513C234.9 70.1361 234.206 69.9209 233.669 69.7057C233.144 69.4786 232.695 69.1319 232.32 68.6656C231.945 68.1994 231.758 67.5777 231.758 66.8006C231.758 66.0833 231.945 65.4557 232.32 64.9177C232.695 64.3797 233.219 63.9673 233.894 63.6804C234.569 63.3935 235.35 63.25 236.237 63.25C237.499 63.25 238.529 63.5549 239.329 64.1646C240.141 64.7623 240.591 65.5872 240.678 66.6392H238.317C238.279 66.185 238.055 65.7964 237.642 65.4736C237.23 65.1508 236.686 64.9895 236.012 64.9895C235.4 64.9895 234.9 65.1389 234.512 65.4378C234.125 65.7366 233.931 66.167 233.931 66.7289C233.931 67.1115 234.05 67.4283 234.288 67.6793C234.537 67.9184 234.85 68.1097 235.225 68.2532C235.599 68.3966 236.112 68.552 236.761 68.7194C237.624 68.9466 238.323 69.1737 238.86 69.4008C239.41 69.628 239.872 69.9807 240.247 70.4589C240.635 70.9251 240.828 71.5527 240.828 72.3418C240.828 72.9754 240.647 73.5731 240.285 74.135C239.935 74.6969 239.416 75.1512 238.729 75.4979C238.055 75.8326 237.255 76 236.33 76Z" fill="#1C6434"/>
<path d="M251.514 75.8745L246.472 70.2975V75.8745H244.336V63.4114H246.472V69.096L251.532 63.4114H254.212L248.552 69.6519L254.306 75.8745H251.514Z" fill="#1C6434"/>
<path d="M259.318 63.4114V75.8745H257.182V63.4114H259.318Z" fill="#1C6434"/>
<path d="M265.246 65.0612V68.7194H269.744V70.3871H265.246V74.2068H270.306V75.8745H263.11V63.3935H270.306V65.0612H265.246Z" fill="#1C6434"/>
<path d="M283.351 66.9979C283.014 66.3762 282.545 65.91 281.946 65.5992C281.346 65.2764 280.652 65.115 279.865 65.115C279.003 65.115 278.235 65.3003 277.56 65.6709C276.885 66.0415 276.354 66.5675 275.967 67.2489C275.592 67.9304 275.405 68.7194 275.405 69.616C275.405 70.5127 275.592 71.3077 275.967 72.0011C276.354 72.6825 276.885 73.2085 277.56 73.5791C278.235 73.9497 279.003 74.135 279.865 74.135C281.027 74.135 281.971 73.8242 282.695 73.2025C283.42 72.5809 283.863 71.738 284.026 70.6741H279.134V69.0422H286.312V70.6382C286.175 71.6065 285.812 72.4972 285.225 73.3101C284.651 74.1231 283.895 74.7746 282.958 75.2648C282.033 75.743 281.002 75.9821 279.865 75.9821C278.641 75.9821 277.523 75.7131 276.511 75.1751C275.499 74.6252 274.693 73.866 274.093 72.8977C273.506 71.9293 273.212 70.8354 273.212 69.616C273.212 68.3966 273.506 67.3027 274.093 66.3344C274.693 65.366 275.499 64.6129 276.511 64.0749C277.535 63.525 278.653 63.25 279.865 63.25C281.252 63.25 282.483 63.5788 283.557 64.2363C284.644 64.8819 285.431 65.8024 285.919 66.9979H283.351Z" fill="#1C6434"/>
<path d="M295.347 76C294.135 76 293.017 75.731 291.992 75.193C290.98 74.6431 290.174 73.884 289.575 72.9156C288.987 71.9353 288.694 70.8354 288.694 69.616C288.694 68.3966 288.987 67.3027 289.575 66.3344C290.174 65.366 290.98 64.6129 291.992 64.0749C293.017 63.525 294.135 63.25 295.347 63.25C296.571 63.25 297.69 63.525 298.702 64.0749C299.726 64.6129 300.532 65.366 301.119 66.3344C301.706 67.3027 302 68.3966 302 69.616C302 70.8354 301.706 71.9353 301.119 72.9156C300.532 73.884 299.726 74.6431 298.702 75.193C297.69 75.731 296.571 76 295.347 76ZM295.347 74.2247C296.209 74.2247 296.977 74.0394 297.652 73.6688C298.327 73.2862 298.851 72.7482 299.226 72.0549C299.614 71.3495 299.807 70.5366 299.807 69.616C299.807 68.6955 299.614 67.8885 299.226 67.1951C298.851 66.5018 298.327 65.9698 297.652 65.5992C296.977 65.2286 296.209 65.0432 295.347 65.0432C294.485 65.0432 293.716 65.2286 293.042 65.5992C292.367 65.9698 291.836 66.5018 291.449 67.1951C291.074 67.8885 290.886 68.6955 290.886 69.616C290.886 70.5366 291.074 71.3495 291.449 72.0549C291.836 72.7482 292.367 73.2862 293.042 73.6688C293.716 74.0394 294.485 74.2247 295.347 74.2247Z" fill="#1C6434"/>
</svg>
