<svg width="235" height="39" viewBox="0 0 235 39" fill="none" xmlns="http://www.w3.org/2000/svg">
<path d="M227.073 27.6453V25.7817H228.014C229.344 25.7817 230.335 24.8636 230.335 23.5272C230.335 22.1997 229.344 21.2817 228.014 21.2817H225.33V27.6453H227.073ZM227.073 24.2905V22.7911H227.775C228.252 22.7911 228.592 23.0906 228.592 23.5543C228.592 23.9998 228.252 24.2905 227.775 24.2905H227.073ZM235 38.3337V31.4356H219.358V27.6729H223.25V21.2557H219.358V17.1576H234.719V10.2595H211.738V38.3337H235ZM231.335 27.6453H234.74V26.0635H233.079V21.2817H231.335V27.6453ZM199.392 38.3337H206.009V10.2595H198.389V25.6203L186.157 10.2595H179.539V38.3337H187.16V22.9729L199.392 38.3337ZM168.514 38.2756H176.821V37.8722L160.89 0L144.965 37.8722V38.2756H153.272L154.884 34.0012H166.861L168.514 38.2756ZM164.401 27.5895H157.344L160.893 18.3552L164.401 27.5895ZM145.972 20.1658C145.972 14.3101 141.64 10.2595 135.825 10.2595H122.699V38.3337H130.319V30.1119H135.825C141.64 30.1119 145.972 26.0613 145.972 20.1658ZM138.351 20.2863C138.351 22.2511 136.867 23.5344 134.782 23.5344H130.319V16.9171H134.782C136.867 16.9171 138.351 18.2408 138.351 20.2863ZM118.272 24.3198C118.272 16.3385 112.497 9.68138 103.152 9.68138C93.8072 9.68138 87.9919 16.3385 87.9919 24.3198C87.9919 32.3011 93.8072 38.9588 103.152 38.9588C112.497 38.9588 118.272 32.3011 118.272 24.3198ZM110.531 24.3198C110.531 28.6114 107.764 31.8197 103.152 31.8197C98.5399 31.8197 95.7328 28.6114 95.7328 24.3198C95.7328 20.0288 98.5399 16.7801 103.152 16.7801C107.764 16.7801 110.531 20.0288 110.531 24.3198ZM79.2893 38.3569H87.631V37.996L77.3637 22.2345L87.3906 10.6436V10.2827H78.3669L67.899 22.6756V10.2827H60.2786V38.3569H67.899V33.1434L72.4708 27.889L79.2893 38.3569ZM47.2231 38.2756H56.5093V37.8888L40.8805 0L25.1682 37.8888V38.2756H34.4544L36.8691 31.7269C33.9094 29.7671 30.9393 29.3979 30.9393 29.3979C39.7038 28.1692 41.0369 36.2351 41.0369 36.2351C41.0369 36.2351 42.3567 28.1687 51.1261 29.3979C51.1261 29.3979 47.9609 29.7897 44.909 31.9203L47.2231 38.2756ZM39.9066 31.9618L41.0324 30.7984L42.1588 31.9618C42.1588 31.9618 41.8493 32.3066 41.5719 32.8328C41.2944 33.3595 41.0324 34.0255 41.0324 34.0255C41.0324 34.0255 40.7517 33.3048 40.5267 32.8654C40.3012 32.4255 39.9066 31.9618 39.9066 31.9618ZM40.645 30.7099C39.8315 28.0792 37.44 27.553 37.44 27.553C37.44 21.8123 34.7611 19.4202 34.7611 19.4202C42.0322 23.4869 40.645 30.7099 40.645 30.7099ZM41.0324 26.8832C38.4973 21.0949 41.0324 17.1725 41.0324 17.1725C43.6157 22.5777 41.0324 26.8832 41.0324 26.8832ZM47.3043 19.4202C47.3043 19.4202 44.6254 21.8123 44.6254 27.553C44.6254 27.553 42.2334 28.0792 41.4204 30.7099C41.4204 30.7099 40.0332 23.4869 47.3043 19.4202ZM0 38.3569H23.3415V31.3787H10.4275L22.9408 16.1384V10.2827H0.401249V17.2615H12.5935L0 32.6217V38.3569Z" fill="#1C6434"/>
</svg>
