<svg width="61" height="61" viewBox="0 0 61 61" fill="none" xmlns="http://www.w3.org/2000/svg">
<circle cx="30.0061" cy="30.0182" r="28.0061" fill="white" stroke="#AB3D3D" stroke-width="4"/>
<g clip-path="url(#clip0)">
<path d="M37.8371 26.8988V21.6942L39.225 22.7351L40.6129 20.8846L30.8976 13.5981V10.6296H33.2108V8.31641H30.8976V6.00325H28.5845V8.31641H26.2713V10.6296H28.5845V13.5981L18.8692 20.8846L20.2571 22.7351L21.645 21.6942V26.8988H16.1684L10 36.1514H12.3923V45.4812H47.0897V36.1514H49.4821L43.3136 26.8988H37.8371ZM21.645 43.168H19.3318V38.4646H17.0187V43.168H14.7055V36.1514H21.645V43.168ZM21.645 33.8383H14.3221L17.4063 29.2119H21.6451V33.8383H21.645ZM30.8976 43.168H28.5845V38.4646H30.8976V43.168ZM35.5239 43.168H33.2108V36.1514H26.2713V43.168H23.9581V19.9593L29.741 15.6221L35.5239 19.9593V43.168ZM44.7766 43.168H42.4634V38.4646H40.1503V43.168H37.8371V36.1514H44.7766V43.168ZM37.8371 33.8383V29.2119H42.0758L45.16 33.8383H37.8371Z" fill="#AB3D3D"/>
<path d="M26.2713 25.741C26.2713 27.6543 27.8278 29.2108 29.741 29.2108C31.6543 29.2108 33.2108 27.6543 33.2108 25.741C33.2108 23.8278 31.6543 22.2713 29.741 22.2713C27.8278 22.2713 26.2713 23.8278 26.2713 25.741ZM30.8976 25.741C30.8976 26.3788 30.3788 26.8976 29.741 26.8976C29.1033 26.8976 28.5845 26.3788 28.5845 25.741C28.5845 25.1033 29.1033 24.5845 29.741 24.5845C30.3788 24.5845 30.8976 25.1033 30.8976 25.741Z" fill="#AB3D3D"/>
</g>
<defs>
<clipPath id="clip0">
<rect width="39.4821" height="39.4821" fill="white" transform="translate(10 6)"/>
</clipPath>
</defs>
</svg>
