<svg width="61" height="61" viewBox="0 0 61 61" fill="none" xmlns="http://www.w3.org/2000/svg">
<circle cx="30.0061" cy="30.0061" r="28.0061" fill="white" stroke="#1979D4" stroke-width="4"/>
<g clip-path="url(#clip0)">
<path d="M45.5359 30.8064C46.0782 30.8064 46.5179 30.3667 46.5179 29.8244V17.9098C46.5179 17.3675 46.0782 16.9279 45.5359 16.9279H38.0869L34.4466 13.2877C34.072 12.913 33.4491 12.8994 33.0608 13.2848L29.3873 16.9279H22.8851V13.982C22.8851 13.4397 22.4455 13 21.9032 13H17.9753C17.433 13 16.9933 13.4397 16.9933 13.982V16.9279H13.982C13.4397 16.9279 13 17.3675 13 17.9098V29.8244C13 30.3667 13.4397 30.8064 13.982 30.8064H14.9639V40.626H13.982C13.4397 40.626 13 41.0657 13 41.608V45.5359C13 46.0782 13.4397 46.5179 13.982 46.5179C15.4701 46.5179 45.3604 46.5179 45.5359 46.5179C46.0782 46.5179 46.5179 46.0782 46.5179 45.5359V41.608C46.5179 41.0657 46.0782 40.626 45.5359 40.626H44.5539V30.8064H45.5359ZM28.8424 26.2097L31.4179 28.8424H28.8424V26.2097ZM30.1948 24.7836C31.1446 24.7836 31.8738 24.7836 32.7703 24.7836V27.4163L30.1948 24.7836ZM18.9573 14.9639H20.9212V16.9279H18.9573V14.9639ZM26.8785 44.5539C26.27 44.5539 15.3853 44.5539 14.9639 44.5539V42.59H26.8785V44.5539ZM26.8785 40.626H16.9279V30.8064H26.8785V40.626ZM25.1338 22.5292C25.5156 22.9143 26.1374 22.9168 26.5225 22.535L26.8785 22.1819C26.8785 22.8575 26.8785 28.0652 26.8785 28.8424H15.9459H14.9639V18.8918C15.3517 18.8918 26.8289 18.8918 27.407 18.8918L25.1396 21.1405C24.7545 21.5224 24.7519 22.1442 25.1338 22.5292ZM34.7342 44.5539H32.7703V42.59H34.7342V44.5539ZM38.6621 44.5539H36.6982V41.608C36.6982 41.0657 36.2585 40.626 35.7162 40.626H31.7883C31.246 40.626 30.8064 41.0657 30.8064 41.608V44.5539H28.8424C28.8424 44.3381 28.8424 31.0139 28.8424 30.8064H38.6621C38.6621 31.0136 38.6621 44.3381 38.6621 44.5539ZM34.7342 22.8197H32.7703V21.8377C32.7703 21.2963 33.2108 20.8557 33.7523 20.8557C34.2937 20.8557 34.7342 21.2963 34.7342 21.8377V22.8197ZM37.3097 24.7836L34.7342 27.4163V24.7836C35.6485 24.7836 36.3252 24.7836 37.3097 24.7836ZM38.6621 28.8424H36.0866L38.6621 26.2097V28.8424ZM38.6621 22.8197H36.6982V21.8377C36.6982 20.2133 35.3766 18.8918 33.7523 18.8918C32.1279 18.8918 30.8064 20.2133 30.8064 21.8377V22.8197H28.8424V20.2805L33.7523 15.3707L38.6621 20.2805V22.8197ZM44.5539 44.5539C44.1239 44.5539 41.1258 44.5539 40.626 44.5539V42.59H44.5539V44.5539ZM40.626 40.626V30.8064H42.59V40.626H40.626ZM40.626 28.8424C40.626 28.0743 40.626 23.3496 40.626 22.2444L40.9137 22.5321C41.2971 22.9156 41.919 22.9156 42.3024 22.5321C42.6859 22.1486 42.6859 21.5269 42.3024 21.1434C41.8815 20.7225 40.5529 19.3939 40.0508 18.8918H44.5539V28.8424C44.1239 28.8424 41.1258 28.8424 40.626 28.8424Z" fill="#1979D4"/>
<path d="M23.8671 32.7703H19.9392C19.3969 32.7703 18.9573 33.21 18.9573 33.7523V37.6801C18.9573 38.2224 19.3969 38.6621 19.9392 38.6621H23.8671C24.4094 38.6621 24.8491 38.2224 24.8491 37.6801V33.7523C24.8491 33.21 24.4094 32.7703 23.8671 32.7703ZM22.8851 36.6982H20.9212V34.7342H22.8851V36.6982Z" fill="#1979D4"/>
<path d="M35.7162 32.7703H31.7883C31.246 32.7703 30.8063 33.21 30.8063 33.7523V37.6801C30.8063 38.2224 31.246 38.6621 31.7883 38.6621H35.7162C36.2585 38.6621 36.6981 38.2224 36.6981 37.6801V33.7523C36.6981 33.21 36.2585 32.7703 35.7162 32.7703ZM34.7342 36.6982H32.7703V34.7342H34.7342V36.6982Z" fill="#1979D4"/>
</g>
<defs>
<clipPath id="clip0">
<rect width="33.5179" height="33.5179" fill="white" transform="translate(13 13)"/>
</clipPath>
</defs>
</svg>
