<svg width="61" height="61" viewBox="0 0 61 61" fill="none" xmlns="http://www.w3.org/2000/svg">
<circle cx="30.0061" cy="30.0304" r="28.0061" fill="white" stroke="#906D38" stroke-width="4"/>
<g clip-path="url(#clip0)">
<path d="M47.5093 21.8656V17.6063C47.51 17.1902 47.2275 16.7408 46.777 16.6127L30.007 11.0528C29.7935 10.982 29.5628 10.9824 29.3495 11.0539L12.7555 16.613C12.3727 16.7383 12.0198 17.1045 12.0245 17.6063V21.8656C12.0245 22.4399 12.4901 22.9055 13.0643 22.9055H14.1005C14.0062 23.1971 13.9545 23.5078 13.9545 23.8305C13.9545 24.9456 14.5643 25.9204 15.4675 26.4409V36.3132C14.5644 36.8336 13.9545 37.8084 13.9545 38.9236C13.9545 39.2487 14.007 39.5616 14.1028 39.8551H13.0515C12.4772 39.8551 12.0117 40.3207 12.0117 40.895V45.4779C12.0117 46.0522 12.4772 46.5178 13.0515 46.5178H46.4657C47.04 46.5178 47.5056 46.0522 47.5056 45.4779V40.895C47.5056 40.3207 47.04 39.8551 46.4657 39.8551H45.3856C45.4813 39.5616 45.5338 39.2487 45.5338 38.9236C45.5338 37.8084 44.924 36.8336 44.0209 36.3132V26.4409C44.924 25.9204 45.5338 24.9456 45.5338 23.8305C45.5338 23.5078 45.4822 23.1971 45.3878 22.9055H46.4695C47.0437 22.9055 47.5093 22.4399 47.5093 21.8656ZM29.6815 13.1359L40.0285 16.5664H19.4418L29.6815 13.1359ZM20.3905 22.9055C20.8541 22.9586 21.2155 23.3529 21.2155 23.8305C21.2155 24.3442 20.7976 24.7621 20.2839 24.7621H16.9659C16.4522 24.7621 16.0343 24.3442 16.0343 23.8305C16.0343 23.3529 16.3958 22.9586 16.8594 22.9055H20.3905ZM31.5097 22.9055C31.9733 22.9586 32.3347 23.3529 32.3347 23.8305C32.3347 24.3442 31.9168 24.7621 31.4031 24.7621H28.0851C27.5714 24.7621 27.1536 24.3442 27.1536 23.8305C27.1536 23.3529 27.515 22.9586 27.9786 22.9055H31.5097ZM39.7857 35.9123V26.8418H41.941V35.9123H39.7857ZM37.706 26.4409V36.3132C36.8028 36.8337 36.193 37.8085 36.193 38.9236C36.193 39.2488 36.2454 39.5617 36.3413 39.8552H34.2663C34.362 39.5617 34.4145 39.2488 34.4145 38.9236C34.4145 37.8085 33.8047 36.8337 32.9016 36.3132V26.4409C33.8047 25.9204 34.4145 24.9456 34.4145 23.8305C34.4145 23.5078 34.3629 23.1971 34.2685 22.9055H36.339C36.2447 23.1971 36.193 23.5078 36.193 23.8305C36.193 24.9456 36.8028 25.9204 37.706 26.4409ZM30.8218 35.9123H28.6665V26.8418H30.8218V35.9123ZM27.1536 38.9236C27.1536 38.4099 27.5714 37.992 28.0851 37.992H31.4031C31.9168 37.992 32.3347 38.4099 32.3347 38.9236C32.3347 39.4373 31.9168 39.8551 31.4031 39.8551H28.0851C27.5714 39.8551 27.1536 39.4373 27.1536 38.9236ZM26.5868 26.4409V36.3132C25.6836 36.8337 25.0738 37.8085 25.0738 38.9236C25.0738 39.2488 25.1262 39.5617 25.222 39.8552H23.1471C23.2428 39.5617 23.2953 39.2488 23.2953 38.9236C23.2953 37.8085 22.6855 36.8337 21.7823 36.3132V26.4409C22.6855 25.9204 23.2953 24.9456 23.2953 23.8305C23.2953 23.5078 23.2437 23.1971 23.1493 22.9055H25.2198C25.1254 23.1971 25.0738 23.5078 25.0738 23.8305C25.0738 24.9456 25.6836 25.9204 26.5868 26.4409ZM19.7026 26.8418V35.9123H17.5473V26.8418H19.7026ZM16.0343 38.9236C16.0343 38.4099 16.4522 37.992 16.9659 37.992H20.284C20.7977 37.992 21.2156 38.4099 21.2156 38.9236C21.2156 39.4373 20.7977 39.8551 20.284 39.8551H16.9659C16.4522 39.8551 16.0343 39.4373 16.0343 38.9236ZM45.4258 44.4381H14.0914V41.9349H45.4259V44.4381H45.4258ZM39.2044 39.8551C38.6907 39.8551 38.2728 39.4373 38.2728 38.9236C38.2728 38.4099 38.6907 37.992 39.2044 37.992H42.5224C43.036 37.992 43.4539 38.4099 43.4539 38.9236C43.4539 39.4373 43.036 39.8551 42.5224 39.8551H39.2044ZM43.4539 23.8305C43.4539 24.3442 43.036 24.7621 42.5224 24.7621H39.2044C39.1445 24.7621 39.086 24.7558 39.0292 24.745C39.001 24.737 38.9725 24.7298 38.9435 24.7242C38.5565 24.611 38.2728 24.2536 38.2728 23.8305C38.2728 23.3529 38.6342 22.9586 39.0978 22.9055H42.6289C43.0925 22.9586 43.4539 23.3529 43.4539 23.8305ZM42.7118 20.8257C33.5589 20.819 23.2605 20.8233 14.1043 20.8257V18.6461H45.4296V20.8257H42.7118Z" fill="#906D38"/>
</g>
<defs>
<clipPath id="clip0">
<rect width="35.5179" height="35.5179" fill="white" transform="translate(12 11)"/>
</clipPath>
</defs>
</svg>
