<svg width="60" height="60" viewBox="0 0 60 60" fill="none" xmlns="http://www.w3.org/2000/svg">
<circle cx="30" cy="30" r="28" fill="white" stroke="#606E75" stroke-width="4"/>
<path d="M17.8892 33.9699C18.4879 33.9699 18.9732 33.4845 18.9732 32.8859V31.1443C18.9732 30.5456 18.4879 30.0603 17.8892 30.0603C17.2906 30.0603 16.8052 30.5456 16.8052 31.1443V32.8859C16.8052 33.4845 17.2906 33.9699 17.8892 33.9699Z" fill="#606E75"/>
<path d="M17.8892 40.3557C18.4879 40.3557 18.9732 39.8704 18.9732 39.2717V37.5301C18.9732 36.9315 18.4879 36.4461 17.8892 36.4461C17.2906 36.4461 16.8052 36.9315 16.8052 37.5301V39.2717C16.8052 39.8704 17.2906 40.3557 17.8892 40.3557Z" fill="#606E75"/>
<path d="M41.1108 33.9699C41.7094 33.9699 42.1948 33.4845 42.1948 32.8859V31.1443C42.1948 30.5456 41.7094 30.0603 41.1108 30.0603C40.5121 30.0603 40.0268 30.5456 40.0268 31.1443V32.8859C40.0268 33.4845 40.5121 33.9699 41.1108 33.9699Z" fill="#606E75"/>
<path d="M41.1108 40.3557C41.7094 40.3557 42.1948 39.8704 42.1948 39.2717V37.5301C42.1948 36.9315 41.7094 36.4461 41.1108 36.4461C40.5121 36.4461 40.0268 36.9315 40.0268 37.5301V39.2717C40.0268 39.8704 40.5121 40.3557 41.1108 40.3557Z" fill="#606E75"/>
<path d="M46.916 42.832H46.839V27.584H46.916C47.5147 27.584 48 27.0986 48 26.5C48 25.9014 47.5147 25.416 46.916 25.416H46.297L43.3558 21.4944V19.5336C43.3558 18.9349 42.8704 18.4496 42.2718 18.4496C41.6731 18.4496 41.1878 18.9349 41.1878 19.5336V20.7717H38.7115V19.5336C38.7115 18.9349 38.2261 18.4496 37.6275 18.4496C37.0289 18.4496 36.5435 18.9349 36.5435 19.5336V20.7717H34.0672V14.8893C34.0672 11.9385 31.6698 10.7147 30.584 10.4515V9.08398C30.584 8.48534 30.0986 8 29.5 8C28.9014 8 28.416 8.48534 28.416 9.08398V10.4515C27.3354 10.7134 24.9328 11.9349 24.9328 14.8894V20.7718H22.4565V19.5336C22.4565 18.9349 21.9712 18.4496 21.3725 18.4496C20.7739 18.4496 20.2885 18.9349 20.2885 19.5336V20.7717H17.8123V19.5336C17.8123 18.9349 17.3269 18.4496 16.7283 18.4496C16.1296 18.4496 15.6443 18.9349 15.6443 19.5336V21.4944L12.703 25.416H12.084C11.4853 25.416 11 25.9014 11 26.5C11 27.0986 11.4853 27.584 12.084 27.584H12.161V42.832H12.084C11.4853 42.832 11 43.3174 11 43.916C11 44.5147 11.4853 45 12.084 45H46.916C47.5147 45 48 44.5147 48 43.916C48 43.3174 47.5147 42.832 46.916 42.832ZM29.5 12.4901C30.5375 12.4901 31.8992 13.2627 31.8992 14.9664H27.1008C27.1008 13.2653 28.4576 12.4901 29.5 12.4901ZM27.1008 17.1344H31.8992V20.7717H31.2858L30.194 19.8619C29.792 19.5269 29.208 19.5269 28.8061 19.8619L27.7143 20.7717H27.1008V17.1344ZM29.5 22.1057L33.4724 25.416H25.5276L29.5 22.1057ZM21.4496 42.832H14.329V27.584H21.4496V42.832ZM22.1357 25.416H15.413L17.2702 22.9397H25.0543L22.1357 25.416ZM35.3824 42.832H23.6176V27.584H35.3824V42.832ZM33.9457 22.9397H41.7298L43.587 25.416H36.8644L33.9457 22.9397ZM44.671 42.832H37.5504V27.584H44.6709V42.832H44.671Z" fill="#606E75"/>
<path d="M27.1778 33.9699C27.7764 33.9699 28.2618 33.4845 28.2618 32.8859V31.1443C28.2618 30.5456 27.7764 30.0603 27.1778 30.0603C26.5791 30.0603 26.0938 30.5456 26.0938 31.1443V32.8859C26.0938 33.4845 26.5791 33.9699 27.1778 33.9699Z" fill="#606E75"/>
<path d="M27.1778 40.3557C27.7764 40.3557 28.2618 39.8704 28.2618 39.2717V37.5301C28.2618 36.9315 27.7764 36.4461 27.1778 36.4461C26.5791 36.4461 26.0938 36.9315 26.0938 37.5301V39.2717C26.0938 39.8704 26.5791 40.3557 27.1778 40.3557Z" fill="#606E75"/>
<path d="M31.8222 33.9699C32.4209 33.9699 32.9062 33.4845 32.9062 32.8859V31.1443C32.9062 30.5456 32.4209 30.0603 31.8222 30.0603C31.2236 30.0603 30.7382 30.5456 30.7382 31.1443V32.8859C30.7382 33.4845 31.2236 33.9699 31.8222 33.9699Z" fill="#606E75"/>
<path d="M31.8222 40.3557C32.4209 40.3557 32.9062 39.8704 32.9062 39.2717V37.5301C32.9062 36.9315 32.4209 36.4461 31.8222 36.4461C31.2236 36.4461 30.7382 36.9315 30.7382 37.5301V39.2717C30.7382 39.8704 31.2236 40.3557 31.8222 40.3557Z" fill="#606E75"/>
</svg>
