<svg width="61" height="61" viewBox="0 0 61 61" fill="none" xmlns="http://www.w3.org/2000/svg">
<circle cx="30.0061" cy="30.0425" r="28.0061" fill="white" stroke="#1C6434" stroke-width="4"/>
<g clip-path="url(#clip0)">
<path d="M29.5 7.53807L11 38.7808V44.4976H48V38.7808L29.5 7.53807ZM29.5 11.7931L45.0143 37.9937H42.4948L29.5 16.048L16.5052 37.9937H13.9857L29.5 11.7931ZM39.9753 37.9937H36.5422V32.1959L39.9753 37.9937ZM25.4434 27.1539L29.5 20.303L33.5566 27.1539H25.4434ZM28.416 29.3218V37.9937H24.6257V29.3218H28.416ZM30.584 29.3218H34.3742V37.9937H30.584V29.3218ZM22.4577 32.196V37.9937H19.0247L22.4577 32.196ZM25.4369 42.3296H13.168V40.1617H25.4369V42.3296ZM31.3952 42.3296H27.6048V40.1617H31.3952V42.3296ZM45.832 42.3296H33.5631V40.1617H45.832V42.3296Z" fill="#1C6434"/>
</g>
<defs>
<clipPath id="clip0">
<rect width="37" height="37" fill="white" transform="translate(11 7.51785)"/>
</clipPath>
</defs>
</svg>
