<svg width="80" height="114" viewBox="0 0 80 114" fill="none" xmlns="http://www.w3.org/2000/svg">
<path d="M40 1C18.4386 1 1 18.528 1 40.2C1 69.6 40 113 40 113C40 113 79 69.6 79 40.2C79 18.528 61.5614 1 40 1Z" fill="#1C6434" stroke="#1C6434"/>
<circle cx="40" cy="40" r="31" fill="white"/>
<path d="M47.0371 60.1866H58V59.7299L39.5493 15L21 59.7299V60.1866H31.9629L34.8136 52.4554C31.3196 50.1417 27.8132 49.7059 27.8132 49.7059C38.1601 48.2554 39.7339 57.7777 39.7339 57.7777C39.7339 57.7777 41.292 48.2548 51.6449 49.7059C51.6449 49.7059 47.9081 50.1685 44.3052 52.6838L47.0371 60.1866ZM38.3996 52.7327L39.7287 51.3593L41.0584 52.7327C41.0584 52.7327 40.6931 53.1399 40.3655 53.761C40.038 54.3828 39.7287 55.1691 39.7287 55.1691C39.7287 55.1691 39.3972 54.3182 39.1317 53.7995C38.8655 53.2802 38.3996 52.7327 38.3996 52.7327ZM39.2713 51.2549C38.3109 48.1491 35.4876 47.5279 35.4876 47.5279C35.4876 40.7506 32.325 37.9267 32.325 37.9267C40.909 42.7277 39.2713 51.2549 39.2713 51.2549ZM39.7287 46.7371C36.7358 39.9037 39.7287 35.2731 39.7287 35.2731C42.7784 41.6543 39.7287 46.7371 39.7287 46.7371ZM47.133 37.9267C47.133 37.9267 43.9704 40.7506 43.9704 47.5279C43.9704 47.5279 41.1465 48.1491 40.1867 51.2549C40.1867 51.2549 38.549 42.7277 47.133 37.9267Z" fill="#1C6434"/>
</svg>
