<svg width="96" height="130" viewBox="0 0 96 130" fill="none" xmlns="http://www.w3.org/2000/svg">
<g filter="url(#filter0_d)">
<path d="M48 5C26.4386 5 9 22.528 9 44.2C9 73.6 48 117 48 117C48 117 87 73.6 87 44.2C87 22.528 69.5614 5 48 5Z" fill="#AB3D3D"/>
<path d="M48 5C26.4386 5 9 22.528 9 44.2C9 73.6 48 117 48 117C48 117 87 73.6 87 44.2C87 22.528 69.5614 5 48 5Z" stroke="#9C1010"/>
</g>
<circle cx="48" cy="44" r="31" fill="white"/>
<g clip-path="url(#clip0)">
<path d="M57.3348 40.2809V34.0768L58.9892 35.3177L60.6436 33.1118L49.0627 24.4261V20.8875H51.8201V18.1302H49.0627V15.3728H46.3054V18.1302H43.548V20.8875H46.3054V24.4261L34.7245 33.1118L36.3789 35.3177L38.0333 34.0768V40.2809H31.5051L24.1522 51.3103H27.0039V62.4316H68.3642V51.3103H71.2159L63.863 40.2809H57.3348ZM38.0333 59.6743H35.276V54.0676H32.5186V59.6743H29.7613V51.3103H38.0333V59.6743ZM38.0333 48.5529H29.3043L32.9807 43.0382H38.0334V48.5529H38.0333ZM49.0627 59.6743H46.3054V54.0676H49.0627V59.6743ZM54.5774 59.6743H51.8201V51.3103H43.548V59.6743H40.7907V32.0088L47.684 26.8388L54.5774 32.0088V59.6743ZM65.6068 59.6743H62.8495V54.0676H60.0921V59.6743H57.3348V51.3103H65.6068V59.6743ZM57.3348 48.5529V43.0382H62.3874L66.0639 48.5529H57.3348Z" fill="#AB3D3D"/>
<path d="M43.548 38.9014C43.548 41.182 45.4035 43.0375 47.6841 43.0375C49.9647 43.0375 51.8201 41.182 51.8201 38.9014C51.8201 36.6208 49.9647 34.7654 47.6841 34.7654C45.4035 34.7654 43.548 36.6208 43.548 38.9014ZM49.0627 38.9014C49.0627 39.6616 48.4443 40.2801 47.6841 40.2801C46.9239 40.2801 46.3054 39.6616 46.3054 38.9014C46.3054 38.1412 46.9239 37.5227 47.6841 37.5227C48.4443 37.5227 49.0627 38.1412 49.0627 38.9014Z" fill="#AB3D3D"/>
</g>
<defs>
<filter id="filter0_d" x="0.5" y="0.5" width="95" height="129.248" filterUnits="userSpaceOnUse" color-interpolation-filters="sRGB">
<feFlood flood-opacity="0" result="BackgroundImageFix"/>
<feColorMatrix in="SourceAlpha" type="matrix" values="0 0 0 0 0 0 0 0 0 0 0 0 0 0 0 0 0 0 127 0"/>
<feOffset dy="4"/>
<feGaussianBlur stdDeviation="4"/>
<feColorMatrix type="matrix" values="0 0 0 0 0 0 0 0 0 0 0 0 0 0 0 0 0 0 0.25 0"/>
<feBlend mode="normal" in2="BackgroundImageFix" result="effect1_dropShadow"/>
<feBlend mode="normal" in="SourceGraphic" in2="effect1_dropShadow" result="shape"/>
</filter>
<clipPath id="clip0">
<rect width="47.0639" height="47.0639" fill="white" transform="translate(24.1522 15.3696)"/>
</clipPath>
</defs>
</svg>
