<svg width="96" height="130" viewBox="0 0 96 130" fill="none" xmlns="http://www.w3.org/2000/svg">
<g filter="url(#filter0_d)">
<path d="M48 5C26.4386 5 9 22.528 9 44.2C9 73.6 48 117 48 117C48 117 87 73.6 87 44.2C87 22.528 69.5614 5 48 5Z" fill="#DD4747"/>
<path d="M48 5C26.4386 5 9 22.528 9 44.2C9 73.6 48 117 48 117C48 117 87 73.6 87 44.2C87 22.528 69.5614 5 48 5Z" stroke="#BC2F2F"/>
</g>
<circle cx="47.5" cy="43.5" r="20.5" fill="white"/>
<defs>
<filter id="filter0_d" x="0.5" y="0.5" width="95" height="129.248" filterUnits="userSpaceOnUse" color-interpolation-filters="sRGB">
<feFlood flood-opacity="0" result="BackgroundImageFix"/>
<feColorMatrix in="SourceAlpha" type="matrix" values="0 0 0 0 0 0 0 0 0 0 0 0 0 0 0 0 0 0 127 0"/>
<feOffset dy="4"/>
<feGaussianBlur stdDeviation="4"/>
<feColorMatrix type="matrix" values="0 0 0 0 0 0 0 0 0 0 0 0 0 0 0 0 0 0 0.25 0"/>
<feBlend mode="normal" in2="BackgroundImageFix" result="effect1_dropShadow"/>
<feBlend mode="normal" in="SourceGraphic" in2="effect1_dropShadow" result="shape"/>
</filter>
</defs>
</svg>
