<svg width="80" height="114" viewBox="0 0 80 114" fill="none" xmlns="http://www.w3.org/2000/svg">
<path d="M40 1C18.4386 1 1 18.528 1 40.2C1 69.6 40 113 40 113C40 113 79 69.6 79 40.2C79 18.528 61.5614 1 40 1Z" fill="#1C6434" stroke="#1C6434"/>
<circle cx="40" cy="40" r="31" fill="white"/>
<path d="M55.4099 24.5901C51.1603 20.3404 45.5099 18 39.5 18C33.4901 18 27.8397 20.3404 23.5901 24.5901C19.3404 28.8397 17 34.4901 17 40.5C17 46.5099 19.3404 52.1603 23.5901 56.4099C27.8397 60.6596 33.4901 63 39.5 63C45.5099 63 51.1603 60.6596 55.4099 56.4099C59.6596 52.1603 62 46.5099 62 40.5C62 34.4901 59.6596 28.8397 55.4099 24.5901ZM53.5453 54.5453C49.7938 58.2972 44.8057 60.3633 39.5 60.3633C34.1943 60.3633 29.2062 58.2972 25.4547 54.5453C21.7028 50.7938 19.6367 45.8057 19.6367 40.5C19.6367 35.1943 21.7028 30.2062 25.4547 26.4547C29.2062 22.7028 34.1943 20.6367 39.5 20.6367C44.8057 20.6367 49.7938 22.7028 53.5453 26.4547C57.2972 30.2062 59.3633 35.1943 59.3633 40.5C59.3633 45.8057 57.2972 50.7938 53.5453 54.5453Z" fill="#1C6434"/>
<path d="M43.7484 47.2293H43.6876V37.8419C43.6876 36.7406 42.8088 35.8448 41.7291 35.8448H35.2516C34.1716 35.8448 33.2931 36.7406 33.2931 37.8419V41.084C33.2931 42.1853 34.1716 43.081 35.2516 43.081H35.3188V47.2293H35.2516C34.1716 47.2293 33.2931 48.1251 33.2931 49.2264V52.4685C33.2931 53.5698 34.1716 54.4655 35.2516 54.4655H43.7484C44.8284 54.4655 45.7069 53.5698 45.7069 52.4685V49.2264C45.7069 48.1254 44.8281 47.2293 43.7484 47.2293ZM43.101 51.8088H35.8987V49.8865H36.5247C37.2967 49.8865 37.9247 49.2461 37.9247 48.459V41.8514C37.9247 41.0643 37.2967 40.4243 36.5247 40.4243H35.8987V38.502H41.0817V48.459C41.0817 49.2461 41.7098 49.8865 42.4817 49.8865H43.101V51.8088Z" fill="#1C6434"/>
<path d="M39.8879 35.0689C42.241 35.0689 44.1551 33.1547 44.1551 30.8017C44.1551 28.449 42.241 26.5344 39.8879 26.5344C37.5348 26.5344 35.6207 28.449 35.6207 30.8017C35.6207 33.1547 37.5348 35.0689 39.8879 35.0689ZM39.8879 29.178C40.7832 29.178 41.5116 29.9067 41.5116 30.8017C41.5116 31.697 40.7832 32.4253 39.8879 32.4253C38.9926 32.4253 38.2642 31.697 38.2642 30.8017C38.2642 29.9067 38.9926 29.178 39.8879 29.178Z" fill="#1C6434"/>
</svg>
