<svg width="80" height="114" viewBox="0 0 80 114" fill="none" xmlns="http://www.w3.org/2000/svg">
<path d="M40 1C18.4386 1 1 18.528 1 40.2C1 69.6 40 113 40 113C40 113 79 69.6 79 40.2C79 18.528 61.5614 1 40 1Z" fill="#00AEEF" stroke="#0CA0D8"/>
<circle cx="40" cy="40" r="31" fill="white"/>
<path fill-rule="evenodd" clip-rule="evenodd" d="M21 18H59.9646V44.0104C60.6722 55.6802 50.638 64.2711 40.6098 64.0617C29.0477 63.8183 21 54.9389 21 44.0104V18Z" fill="#00AEEF"/>
<path fill-rule="evenodd" clip-rule="evenodd" d="M37.4978 52.1673L38.5051 29.7164C37.7693 30.0787 37.0847 30.4692 36.7676 30.9275L36.649 30.8371C37.2373 30.1751 37.6167 29.456 37.9108 28.5676L35.6302 28.5561L35.0415 29.2129L33.0154 27.2035L35.0982 25.0363L35.6754 25.5738H37.9957C37.7015 24.821 37.3225 24.0968 36.6827 23.4799L36.7961 23.3666C37.4014 23.8308 38.0298 24.1308 38.7429 24.3968L38.8844 22.3311L38.2958 21.765L40.4408 19.6429L42.495 21.5442L41.8782 22.2177L42.0308 24.5043C42.9252 24.1475 43.4968 23.8137 44.2096 23.2139L44.3003 23.2932C43.7231 23.9667 43.3327 24.7136 43.0722 25.5738H45.2228L45.8623 24.8325L48.0243 26.9038L45.8963 29.094L45.2851 28.5109H43.0722C43.1912 29.3712 43.8362 30.1977 44.3908 30.7523L44.2948 30.8427C43.7798 30.3333 43.1686 29.9598 42.4384 29.6994L43.7798 51.9747L37.4978 52.1673Z" fill="white"/>
<path fill-rule="evenodd" clip-rule="evenodd" d="M40.6078 48.5009L52.4811 60.08C49.0004 62.8532 44.6768 64.1492 40.6643 64.0982C36.5102 64.053 32.2827 62.689 29.0908 60.2726L40.6078 48.5009Z" fill="#808285"/>
<path fill-rule="evenodd" clip-rule="evenodd" d="M30.2291 35.4987L29.5048 36.2685L29.9801 36.6986L29.2106 37.4966L29.7311 37.9664L29.2729 38.4246L28.769 37.9493L27.7673 39.0074L28.503 39.7035L28.8879 39.3019L29.3069 39.6979L28.922 40.1055L29.55 40.6941L30.5517 39.6413L30.0875 39.2L30.5121 38.7417L30.9989 39.1941L31.3327 38.8151L31.7913 39.2508L31.4175 39.6413L31.8932 40.0943L31.4857 40.5241L31.0104 40.0769L30.0086 41.1298L30.6595 41.7522L31.0441 41.3447L31.4742 41.7581L31.0896 42.1597L31.9725 42.9974L32.9798 41.9448L32.476 41.4692L32.8835 41.0335L33.3643 41.5429L34.0831 40.7338L37.8467 44.3726L37.9259 43.0596L30.2291 35.4987Z" fill="#FFDD00"/>
<path fill-rule="evenodd" clip-rule="evenodd" d="M50.7711 35.5769L51.4727 36.2675L51.0426 36.7261L51.7217 37.3711L51.2519 37.8749L51.6821 38.2821L52.1574 37.7786L53.2158 38.7744L52.5256 39.5102L52.1177 39.1312L51.7217 39.5557L52.1292 39.9347L51.535 40.5631L50.4765 39.5669L50.9126 39.0971L50.4825 38.6896L50.0409 39.1594L49.6504 38.7859L49.2147 39.2442L49.6108 39.6176L49.1639 40.0933L49.5937 40.5008L50.0409 40.0255L51.1049 41.0213L50.488 41.6778L50.0805 41.2988L49.673 41.7289L50.0805 42.1135L49.2429 43.0022L48.1848 42.0005L48.6601 41.4967L48.2244 41.0891L47.7488 41.593L46.9396 40.8402L43.329 44.4849L43.2383 43.1434L50.7711 35.5769Z" fill="#FFDD00"/>
<path fill-rule="evenodd" clip-rule="evenodd" d="M37.5971 50.2286L37.6649 48.7853L34.5637 51.8698L33.9072 51.2133L33.2563 51.8698C33.8676 52.4185 33.4827 52.6734 32.8151 52.5659L31.5981 52.3848C31.451 51.9432 30.9701 51.8187 30.5059 51.9432C30.1436 52.1358 29.9624 52.6282 30.3759 53.1602C30.0702 53.4825 30.0021 53.89 30.104 54.1619C29.7646 54.4898 29.6968 54.7787 29.7872 55.1918C29.6116 55.4126 29.4534 55.7123 29.5834 55.9672C29.6175 56.4366 29.21 56.4596 28.9099 56.018C28.6836 56.4651 28.678 56.7763 28.9155 57.1894C28.7573 57.4272 28.7628 57.7896 28.7969 58.0271C29.1137 58.1686 29.3741 58.2082 29.8042 58.0441C30.2284 58.3553 30.7097 58.3156 31.0775 57.9366C30.7267 57.7499 30.517 57.5517 30.8342 57.3254C31.2587 57.2576 31.4625 57.4328 31.8696 57.0479C32.266 57.1783 32.5376 57.2235 32.9507 56.8445C33.2393 56.9349 33.6186 56.8445 33.8676 56.6574C34.2806 56.9405 34.677 57.0368 35.1072 56.7256C35.3561 56.4992 35.4069 55.7123 34.5978 55.4126V54.1108C34.5581 53.2676 34.9768 53.5844 35.322 53.907L35.9615 53.2676L35.2598 52.5659L37.5971 50.2286ZM30.8342 56.2443C30.9079 55.4011 30.9531 54.439 31.3491 53.8278C31.7848 53.1376 32.6847 53.5221 32.8206 54.286C33.6242 54.4616 34.0432 55.3333 33.2959 55.7012C32.6621 56.0069 31.6944 56.1028 30.8342 56.2443Z" fill="#FFDD00"/>
<path fill-rule="evenodd" clip-rule="evenodd" d="M43.6741 50.0729L43.5837 48.5503L46.6679 51.5952L47.2962 50.9502L47.9412 51.6063C47.3302 52.1612 47.7207 52.4102 48.3883 52.3083L49.6053 52.1216C49.7524 51.68 50.2277 51.5555 50.6919 51.6856C51.0539 51.8782 51.235 52.3647 50.8219 52.897C51.1331 53.2193 51.1954 53.6268 51.0935 53.8984C51.4332 54.2326 51.501 54.5152 51.4162 54.9287C51.5862 55.155 51.75 55.4548 51.6144 55.7037C51.5803 56.1735 51.9934 56.1964 52.2935 55.7604C52.5198 56.202 52.5254 56.5132 52.2879 56.9263C52.4461 57.1641 52.435 57.532 52.4065 57.7695C52.0838 57.911 51.8293 57.9506 51.3936 57.7809C50.969 58.0977 50.4937 58.0525 50.1203 57.6735C50.4711 57.4923 50.686 57.2886 50.3637 57.0678C49.9391 57 49.7354 57.1697 49.3334 56.7847C48.9318 56.9207 48.6599 56.9603 48.2527 56.581C47.9641 56.6773 47.5792 56.581 47.3358 56.3943C46.9227 56.6829 46.5208 56.7736 46.0907 56.4624C45.8473 56.2357 45.7909 55.4548 46.6056 55.155V53.8476C46.6397 53.0044 46.2266 53.3212 45.8813 53.6494L45.236 53.0044L45.938 52.3083L43.6741 50.0729ZM50.3637 55.9812C50.2955 55.1436 50.2448 54.1759 49.8487 53.5646C49.4186 52.8741 48.5128 53.2645 48.3828 54.0288C47.5792 54.1985 47.1602 55.0757 47.9074 55.4381C48.5413 55.7434 49.5034 55.8452 50.3637 55.9812Z" fill="#FFDD00"/>
</svg>
