<svg width="96" height="130" viewBox="0 0 96 130" fill="none" xmlns="http://www.w3.org/2000/svg">
<g filter="url(#filter0_d)">
<path d="M48 5C26.4386 5 9 22.528 9 44.2C9 73.6 48 117 48 117C48 117 87 73.6 87 44.2C87 22.528 69.5614 5 48 5Z" fill="#916D38"/>
<path d="M48 5C26.4386 5 9 22.528 9 44.2C9 73.6 48 117 48 117C48 117 87 73.6 87 44.2C87 22.528 69.5614 5 48 5Z" stroke="#684107"/>
</g>
<circle cx="48" cy="44" r="31" fill="white"/>
<g clip-path="url(#clip0)">
<path d="M68.8644 34.2673V29.1901C68.8653 28.6942 68.5284 28.1584 67.9915 28.0057L48.0012 21.3782C47.7466 21.2938 47.4716 21.2942 47.2174 21.3794L27.4369 28.0061C26.9805 28.1554 26.5598 28.5919 26.5655 29.1901V34.2673C26.5655 34.9519 27.1204 35.5069 27.805 35.5069H29.0402C28.9277 35.8545 28.8661 36.2249 28.8661 36.6095C28.8661 37.9388 29.593 39.1008 30.6697 39.7212V51.4892C29.5931 52.1097 28.8661 53.2716 28.8661 54.6009C28.8661 54.9885 28.9286 55.3615 29.0428 55.7114H27.7897C27.1052 55.7114 26.5502 56.2664 26.5502 56.9509V62.4139C26.5502 63.0984 27.1052 63.6534 27.7897 63.6534H67.6204C68.305 63.6534 68.86 63.0984 68.86 62.4139V56.9509C68.86 56.2664 68.305 55.7114 67.6204 55.7114H66.3329C66.447 55.3615 66.5095 54.9885 66.5095 54.6009C66.5095 53.2716 65.7827 52.1097 64.7061 51.4892V39.7212C65.7827 39.1008 66.5095 37.9388 66.5095 36.6095C66.5095 36.2249 66.4481 35.8545 66.3355 35.5069H67.6249C68.3094 35.5069 68.8644 34.9519 68.8644 34.2673ZM47.6132 23.8613L59.9471 27.9505H35.4071L47.6132 23.8613ZM36.538 35.5069C37.0906 35.5702 37.5214 36.0402 37.5214 36.6095C37.5214 37.2218 37.0233 37.72 36.411 37.72H32.4558C31.8435 37.72 31.3453 37.2218 31.3453 36.6095C31.3453 36.0402 31.7762 35.5702 32.3288 35.5069H36.538ZM49.7924 35.5069C50.3451 35.5702 50.7759 36.0402 50.7759 36.6095C50.7759 37.2218 50.2777 37.72 49.6654 37.72H45.7102C45.0979 37.72 44.5998 37.2218 44.5998 36.6095C44.5998 36.0402 45.0306 35.5702 45.5832 35.5069H49.7924ZM59.6576 51.0113V40.1991H62.2268V51.0113H59.6576ZM57.1785 39.7212V51.4893C56.102 52.1098 55.3751 53.2717 55.3751 54.601C55.3751 54.9886 55.4376 55.3616 55.5518 55.7115H53.0784C53.1925 55.3616 53.255 54.9886 53.255 54.601C53.255 53.2717 52.5282 52.1098 51.4516 51.4893V39.7212C52.5282 39.1008 53.255 37.9388 53.255 36.6095C53.255 36.2249 53.1936 35.8545 53.081 35.5069H55.5491C55.4366 35.8545 55.3751 36.2249 55.3751 36.6095C55.3751 37.9388 56.102 39.1008 57.1785 39.7212ZM48.9724 51.0113H46.4032V40.1991H48.9724V51.0113ZM44.5998 54.6009C44.5998 53.9886 45.0979 53.4904 45.7102 53.4904H49.6654C50.2777 53.4904 50.7759 53.9886 50.7759 54.6009C50.7759 55.2133 50.2777 55.7114 49.6654 55.7114H45.7102C45.0979 55.7114 44.5998 55.2133 44.5998 54.6009ZM43.9241 39.7212V51.4893C42.8475 52.1098 42.1207 53.2717 42.1207 54.601C42.1207 54.9886 42.1831 55.3616 42.2973 55.7115H39.8239C39.9381 55.3616 40.0006 54.9886 40.0006 54.601C40.0006 53.2717 39.2737 52.1098 38.1971 51.4893V39.7212C39.2737 39.1008 40.0006 37.9388 40.0006 36.6095C40.0006 36.2249 39.9391 35.8545 39.8266 35.5069H42.2946C42.1821 35.8545 42.1206 36.2249 42.1206 36.6095C42.1207 37.9388 42.8475 39.1008 43.9241 39.7212ZM35.718 40.1991V51.0113H33.1489V40.1991H35.718ZM31.3453 54.6009C31.3453 53.9886 31.8435 53.4904 32.4558 53.4904H36.411C37.0234 53.4904 37.5215 53.9886 37.5215 54.6009C37.5215 55.2133 37.0234 55.7114 36.411 55.7114H32.4558C31.8435 55.7114 31.3453 55.2133 31.3453 54.6009ZM66.3808 61.1744H29.0293V58.1906H66.3809V61.1744H66.3808ZM58.9646 55.7114C58.3523 55.7114 57.8542 55.2133 57.8542 54.6009C57.8542 53.9886 58.3523 53.4904 58.9646 53.4904H62.9198C63.5321 53.4904 64.0303 53.9886 64.0303 54.6009C64.0303 55.2133 63.5321 55.7114 62.9198 55.7114H58.9646ZM64.0303 36.6095C64.0303 37.2218 63.5321 37.72 62.9198 37.72H58.9646C58.8932 37.72 58.8236 37.7125 58.7559 37.6996C58.7223 37.6901 58.6883 37.6816 58.6537 37.6749C58.1924 37.5399 57.8542 37.1138 57.8542 36.6095C57.8542 36.0402 58.285 35.5702 58.8376 35.5069H63.0468C63.5995 35.5702 64.0303 36.0402 64.0303 36.6095ZM63.1456 33.0278C52.2351 33.0198 39.9591 33.0249 29.0446 33.0278V30.4296H66.3853V33.0278H63.1456Z" fill="#906D38"/>
</g>
<defs>
<filter id="filter0_d" x="0.5" y="0.5" width="95" height="129.248" filterUnits="userSpaceOnUse" color-interpolation-filters="sRGB">
<feFlood flood-opacity="0" result="BackgroundImageFix"/>
<feColorMatrix in="SourceAlpha" type="matrix" values="0 0 0 0 0 0 0 0 0 0 0 0 0 0 0 0 0 0 127 0"/>
<feOffset dy="4"/>
<feGaussianBlur stdDeviation="4"/>
<feColorMatrix type="matrix" values="0 0 0 0 0 0 0 0 0 0 0 0 0 0 0 0 0 0 0.25 0"/>
<feBlend mode="normal" in2="BackgroundImageFix" result="effect1_dropShadow"/>
<feBlend mode="normal" in="SourceGraphic" in2="effect1_dropShadow" result="shape"/>
</filter>
<clipPath id="clip0">
<rect width="42.3383" height="42.3383" fill="white" transform="translate(26.5363 21.3152)"/>
</clipPath>
</defs>
</svg>
