<svg width="96" height="130" viewBox="0 0 96 130" fill="none" xmlns="http://www.w3.org/2000/svg">
<g filter="url(#filter0_d)">
<path d="M48 5C26.4386 5 9 22.528 9 44.2C9 73.6 48 117 48 117C48 117 87 73.6 87 44.2C87 22.528 69.5614 5 48 5Z" fill="#1979D4"/>
<path d="M48 5C26.4386 5 9 22.528 9 44.2C9 73.6 48 117 48 117C48 117 87 73.6 87 44.2C87 22.528 69.5614 5 48 5Z" stroke="#07619D"/>
</g>
<circle cx="48" cy="43" r="31" fill="white"/>
<g clip-path="url(#clip0)">
<path d="M66.512 43.954C67.1584 43.954 67.6825 43.4299 67.6825 42.7834V28.5809C67.6825 27.9345 67.1584 27.4104 66.512 27.4104H57.6326L53.2932 23.0711C52.8467 22.6245 52.1042 22.6083 51.6413 23.0677L47.2624 27.4104H39.5117V23.8988C39.5117 23.2523 38.9876 22.7283 38.3411 22.7283H33.659C33.0125 22.7283 32.4884 23.2523 32.4884 23.8988V27.4104H28.8988C28.2524 27.4104 27.7283 27.9345 27.7283 28.5809V42.7834C27.7283 43.4299 28.2524 43.954 28.8988 43.954H30.0693V55.6593H28.8988C28.2524 55.6593 27.7283 56.1834 27.7283 56.8298V61.512C27.7283 62.1584 28.2524 62.6825 28.8988 62.6825C30.6727 62.6825 66.3029 62.6825 66.512 62.6825C67.1584 62.6825 67.6825 62.1584 67.6825 61.512V56.8298C67.6825 56.1834 67.1584 55.6593 66.512 55.6593H65.3415V43.954H66.512ZM46.6129 38.4746L49.683 41.6129H46.6129V38.4746ZM48.225 36.7747C49.3572 36.7747 50.2263 36.7747 51.295 36.7747V39.913L48.225 36.7747ZM34.8295 25.0693H37.1706V27.4104H34.8295V25.0693ZM44.2718 60.3414C43.5465 60.3414 30.5716 60.3414 30.0693 60.3414V58.0004H44.2718V60.3414ZM44.2718 55.6593H32.4104V43.954H44.2718V55.6593ZM42.1921 34.0874C42.6473 34.5464 43.3885 34.5494 43.8475 34.0942L44.2718 33.6734C44.2718 34.4787 44.2718 40.6864 44.2718 41.6129H31.2399H30.0693V29.7515C30.5315 29.7515 44.2128 29.7515 44.9018 29.7515L42.199 32.432C41.74 32.8872 41.7369 33.6284 42.1921 34.0874ZM53.6361 60.3414H51.295V58.0004H53.6361V60.3414ZM58.3183 60.3414H55.9772V56.8298C55.9772 56.1834 55.4531 55.6593 54.8066 55.6593H50.1245C49.4781 55.6593 48.954 56.1834 48.954 56.8298V60.3414H46.6129C46.6129 60.0842 46.6129 44.2013 46.6129 43.954H58.3183C58.3183 44.2009 58.3183 60.0842 58.3183 60.3414ZM53.6361 34.4336H51.295V33.2631C51.295 32.6176 51.8201 32.0925 52.4656 32.0925C53.111 32.0925 53.6361 32.6176 53.6361 33.2631V34.4336ZM56.7062 36.7747L53.6361 39.913V36.7747C54.726 36.7747 55.5326 36.7747 56.7062 36.7747ZM58.3183 41.6129H55.2482L58.3183 38.4746V41.6129ZM58.3183 34.4336H55.9772V33.2631C55.9772 31.3268 54.4019 29.7515 52.4656 29.7515C50.5293 29.7515 48.954 31.3268 48.954 33.2631V34.4336H46.6129V31.4068L52.4656 25.5542L58.3183 31.4068V34.4336ZM65.3415 60.3414C64.8288 60.3414 61.255 60.3414 60.6593 60.3414V58.0004H65.3415V60.3414ZM60.6593 55.6593V43.954H63.0004V55.6593H60.6593ZM60.6593 41.6129C60.6593 40.6972 60.6593 35.0652 60.6593 33.7479L61.0022 34.0908C61.4593 34.5479 62.2005 34.5479 62.6576 34.0908C63.1147 33.6337 63.1147 32.8926 62.6576 32.4354C62.1559 31.9337 60.5721 30.3499 59.9736 29.7515H65.3415V41.6129C64.8288 41.6129 61.255 41.6129 60.6593 41.6129Z" fill="#1979D4"/>
<path d="M40.6822 46.295H36.0001C35.3536 46.295 34.8295 46.8191 34.8295 47.4655V52.1477C34.8295 52.7941 35.3536 53.3182 36.0001 53.3182H40.6822C41.3287 53.3182 41.8527 52.7941 41.8527 52.1477V47.4655C41.8527 46.8191 41.3287 46.295 40.6822 46.295ZM39.5117 50.9772H37.1706V48.6361H39.5117V50.9772Z" fill="#1979D4"/>
<path d="M54.8067 46.295H50.1245C49.4781 46.295 48.954 46.8191 48.954 47.4655V52.1477C48.954 52.7941 49.4781 53.3182 50.1245 53.3182H54.8067C55.4531 53.3182 55.9772 52.7941 55.9772 52.1477V47.4655C55.9772 46.8191 55.4531 46.295 54.8067 46.295ZM53.6361 50.9772H51.295V48.6361H53.6361V50.9772Z" fill="#1979D4"/>
</g>
<defs>
<filter id="filter0_d" x="0.5" y="0.5" width="95" height="129.248" filterUnits="userSpaceOnUse" color-interpolation-filters="sRGB">
<feFlood flood-opacity="0" result="BackgroundImageFix"/>
<feColorMatrix in="SourceAlpha" type="matrix" values="0 0 0 0 0 0 0 0 0 0 0 0 0 0 0 0 0 0 127 0"/>
<feOffset dy="4"/>
<feGaussianBlur stdDeviation="4"/>
<feColorMatrix type="matrix" values="0 0 0 0 0 0 0 0 0 0 0 0 0 0 0 0 0 0 0.25 0"/>
<feBlend mode="normal" in2="BackgroundImageFix" result="effect1_dropShadow"/>
<feBlend mode="normal" in="SourceGraphic" in2="effect1_dropShadow" result="shape"/>
</filter>
<clipPath id="clip0">
<rect width="39.9543" height="39.9543" fill="white" transform="translate(27.7283 22.7283)"/>
</clipPath>
</defs>
</svg>
