<svg width="46" height="55" viewBox="0 0 46 55" fill="none" xmlns="http://www.w3.org/2000/svg">
<path d="M44.9838 22.9921C44.9838 10.8658 35.1184 1 22.9921 1C18.8575 1 14.8273 2.15524 11.3366 4.34095C10.8465 4.64776 10.698 5.2941 11.0048 5.78459C11.3121 6.27467 11.958 6.42357 12.4485 6.11635C15.6054 4.13927 19.2511 3.09449 22.9921 3.09449C33.9636 3.09449 42.8893 12.0206 42.8893 22.9921C42.8893 33.9636 33.9636 42.8897 22.9921 42.8897C12.0202 42.8897 3.09449 33.9636 3.09449 22.9921C3.09449 19.2507 4.13927 15.6054 6.11553 12.4489C6.42275 11.9588 6.27426 11.3125 5.78418 11.0057C5.2941 10.6985 4.64776 10.8469 4.34054 11.3374C2.15524 14.8273 1 18.8571 1 22.9921C1 31.7472 6.14335 39.3234 13.5669 42.859V48.1259C13.5669 48.7044 14.0357 49.1732 14.6142 49.1732H15.6614V53.5716C15.6614 54.15 16.1302 54.6188 16.7086 54.6188C17.2871 54.6188 17.7559 54.15 17.7559 53.5716V49.1732H28.2283V53.5716C28.2283 54.15 28.6971 54.6188 29.2756 54.6188C29.8536 54.6188 30.3228 54.15 30.3228 53.5716V49.1732H31.37C31.9481 49.1732 32.4173 48.7044 32.4173 48.1259V42.8594C39.8404 39.3234 44.9838 31.7476 44.9838 22.9921ZM30.3228 47.0787H15.6614V43.7263C17.9555 44.5395 20.4227 44.9842 22.9921 44.9842C25.5615 44.9842 28.0287 44.5395 30.3228 43.7263V47.0787Z" fill="#334171" stroke="#334171" stroke-width="0.5"/>
<path d="M27.9983 40.0797C31.6174 39.021 34.8745 36.7768 37.1691 33.7607C39.5409 30.6431 40.7943 26.9193 40.7943 22.9921C40.7943 13.1754 32.8079 5.18896 22.9916 5.18896C13.1749 5.18896 5.18848 13.1754 5.18848 22.9921C5.18848 26.9193 6.4423 30.6431 8.81415 33.7607C11.1091 36.7772 14.3662 39.0214 17.9853 40.0801C18.0835 40.1088 18.1825 40.1227 18.2798 40.1227C18.7331 40.1227 19.1508 39.8261 19.2845 39.3692C19.4469 38.814 19.1287 38.2323 18.5735 38.0699C14.9737 37.017 11.9624 34.7159 9.95752 31.7267L11.7252 30.7061C12.2259 30.4169 12.3977 29.7763 12.1085 29.2751C11.8192 28.7744 11.1786 28.6026 10.6779 28.8922L8.90782 29.9141C8.01317 28.1044 7.45928 26.1138 7.31896 24.0393H9.37745C9.95589 24.0393 10.4247 23.5705 10.4247 22.9921C10.4247 22.4137 9.95589 21.9448 9.37745 21.9448H7.31855C7.45764 19.8459 8.0103 17.8581 8.89637 16.0631L10.6779 17.0919C10.8428 17.1873 11.0228 17.2323 11.2003 17.2323C11.5623 17.2323 11.9146 17.0445 12.1085 16.7086C12.3977 16.2075 12.2259 15.5673 11.7252 15.2781L9.94607 14.2509C11.0878 12.5524 12.5519 11.0883 14.2504 9.94656L15.2776 11.7256C15.4715 12.0615 15.8237 12.2493 16.1853 12.2493C16.3629 12.2493 16.5433 12.2043 16.7081 12.1089C17.2089 11.8197 17.3807 11.1791 17.0915 10.6784L16.063 8.89686C17.8581 8.01079 19.8454 7.45813 21.9444 7.31904V9.37794C21.9444 9.95637 22.4132 10.4252 22.9916 10.4252C23.57 10.4252 24.0388 9.95637 24.0388 9.37794V7.31904C26.1378 7.45813 28.1251 8.01079 29.9202 8.89686L28.8918 10.6784C28.6025 11.1791 28.7739 11.8197 29.2751 12.1089C29.4399 12.2043 29.6199 12.2493 29.7975 12.2493C30.1595 12.2493 30.5113 12.0615 30.7056 11.7256L31.7324 9.94615C33.4309 11.0883 34.8954 12.5524 36.0371 14.2509L34.2581 15.2781C33.7569 15.5669 33.5855 16.2075 33.8747 16.7086C34.0686 17.0445 34.4205 17.2323 34.7825 17.2323C34.96 17.2323 35.1404 17.1868 35.3053 17.0919L37.0868 16.0631C37.9729 17.8581 38.5256 19.8459 38.6642 21.9448H36.6058C36.0273 21.9448 35.5585 22.4137 35.5585 22.9921C35.5585 23.5701 36.0273 24.0393 36.6058 24.0393H38.6642C38.5235 26.1138 37.9696 28.1044 37.0754 29.9141L35.3053 28.8918C34.8046 28.6026 34.164 28.7744 33.8747 29.2751C33.5855 29.7763 33.7569 30.4165 34.2581 30.7057L36.0257 31.7263C34.0208 34.7155 31.0096 37.0166 27.4105 38.0695C26.8554 38.2319 26.5371 38.8136 26.6995 39.3688C26.8619 39.9239 27.4432 40.2421 27.9983 40.0797Z" fill="#334171" stroke="#334171" stroke-width="0.5"/>
<path d="M27.1807 32.4173C27.1807 31.3577 26.7843 30.3895 26.1334 29.6507V15.6614C26.1334 13.9289 24.7237 12.5197 22.9917 12.5197C21.2593 12.5197 19.85 13.9289 19.85 15.6614V29.6507C19.1987 30.3895 18.8027 31.3577 18.8027 32.4173C18.8027 34.7269 20.6816 36.6062 22.9917 36.6062C25.3014 36.6062 27.1807 34.7269 27.1807 32.4173ZM22.9917 14.6141C23.5689 14.6141 24.0389 15.0838 24.0389 15.6614V28.3608C23.7039 28.2741 23.3529 28.2279 22.9917 28.2279C22.6301 28.2279 22.2791 28.2741 21.9445 28.3608V15.6614C21.9445 15.0838 22.4141 14.6141 22.9917 14.6141ZM22.9917 34.5117C21.8369 34.5117 20.8972 33.5721 20.8972 32.4173C20.8972 31.2624 21.8369 30.3228 22.9917 30.3228C24.1465 30.3228 25.0862 31.2624 25.0862 32.4173C25.0862 33.5721 24.1465 34.5117 22.9917 34.5117Z" fill="#1B86D0" stroke="#1B86D0" stroke-width="0.5"/>
<path d="M22.9912 38.7007C22.4127 38.7007 21.9443 39.1695 21.9443 39.748C21.9443 40.3264 22.4135 40.7952 22.9916 40.7952C23.57 40.7952 24.0388 40.3264 24.0388 39.748C24.0388 39.1695 23.57 38.7007 22.9916 38.7007H22.9912Z" fill="#334171" stroke="#334171" stroke-width="0.5"/>
<path d="M8.18201 9.22942C8.45037 9.22942 8.71831 9.12674 8.92285 8.9222C9.33193 8.51353 9.33193 7.85041 8.92285 7.44133C8.51418 7.03225 7.85106 7.03225 7.44198 7.44133L7.44158 7.44174C7.0325 7.85082 7.0325 8.51353 7.44158 8.92261C7.64611 9.12715 7.91406 9.22942 8.18201 9.22942Z" fill="#334171" stroke="#334171" stroke-width="0.5"/>
</svg>
