<svg width="54" height="54" viewBox="0 0 54 54" fill="none" xmlns="http://www.w3.org/2000/svg">
<path d="M36.0363 32.7984C34.4488 31.209 32.3088 30.2927 29.9247 30.2927C29.8653 30.2927 29.8031 30.2927 29.8031 30.2927H5.7867C4.93071 30.2927 4.19824 30.9639 4.19824 31.8811C4.19824 32.6758 4.93167 33.4093 5.7867 33.4093H29.8031C29.8644 33.4093 29.8644 33.4093 29.9247 33.4093C31.4528 33.4093 32.799 34.0211 33.8369 34.9977C34.8145 35.9753 35.4264 37.3809 35.4264 38.909C35.4264 40.4371 34.8145 41.7814 33.8369 42.8193C32.8594 43.7969 31.4528 44.4078 29.9247 44.4078C28.3985 44.4078 27.0532 43.7969 26.0153 42.8193C25.0377 41.8418 24.4269 40.4371 24.4269 38.909C24.4269 38.053 23.6934 37.3205 22.8384 37.3205C21.9815 37.3205 21.3103 38.054 21.3103 38.909C21.3103 41.2922 22.2879 43.4312 23.815 45.0206C25.4044 46.609 27.5434 47.5253 29.9247 47.5253C32.3088 47.5253 34.4488 46.5478 36.0363 45.0206C37.6257 43.4312 38.542 41.2922 38.542 38.909C38.542 36.5258 37.5654 34.3868 36.0363 32.7984Z" fill="#334171"/>
<path d="M46.3025 9.20997C44.3464 7.25385 41.721 6.09338 38.7844 6.09338C35.8526 6.09338 33.1631 7.31513 31.2701 9.20997C29.314 11.1651 28.1526 13.7925 28.1526 16.7271C28.1526 17.5831 28.886 18.3156 29.7401 18.3156C30.597 18.3156 31.3314 17.5822 31.3314 16.7271C31.3314 14.6484 32.1845 12.7546 33.5307 11.4093C34.8731 10.066 36.768 9.20997 38.8457 9.20997C40.9234 9.20997 42.8192 10.066 44.1626 11.4093C45.5069 12.7536 46.3638 14.6484 46.3638 16.7271C46.3638 18.8049 45.5069 20.6978 44.1626 22.044C42.8202 23.3864 40.9234 24.2424 38.8457 24.2424C38.7844 24.2424 38.7241 24.2424 38.7241 24.2424H7.80523C6.94829 24.2424 6.21582 24.9155 6.21582 25.8318C6.21582 26.7481 6.82669 27.3599 7.74395 27.3599H38.6638C38.725 27.3599 38.725 27.3599 38.7854 27.3599C41.721 27.3599 44.4086 26.1382 46.3035 24.2424C48.2596 22.2872 49.421 19.6589 49.421 16.7271C49.4201 13.7925 48.1974 11.1039 46.3025 9.20997Z" fill="#334171"/>
</svg>
