<svg width="53" height="55" viewBox="0 0 53 55" fill="none" xmlns="http://www.w3.org/2000/svg">
<path d="M24.6321 24.45C24.0857 24.2315 23.4615 24.4878 23.2381 25.0233C23.0148 25.5586 23.2767 26.17 23.8233 26.3889C27.9944 28.0588 30.7098 31.9894 30.7414 36.4027C30.7621 39.313 29.6246 42.057 27.5386 44.1291C25.4525 46.2013 22.6675 47.3538 19.6966 47.374C13.6422 47.4206 8.53897 42.4798 8.49674 36.5549C8.46488 32.0823 11.1736 28.0946 15.3974 26.3959C15.9436 26.1762 16.2045 25.5645 15.9804 25.0294C15.7561 24.4944 15.1318 24.2387 14.5855 24.4583C12.1661 25.4314 10.1088 27.0703 8.63614 29.198C7.12738 31.3777 6.33991 33.9267 6.35873 36.5695C6.40919 43.6412 12.4943 49.5158 19.7117 49.4686C23.2537 49.4444 26.574 48.0704 29.0611 45.5999C31.5482 43.1293 32.9043 39.8579 32.8795 36.3882C32.842 31.1268 29.6048 26.4408 24.6321 24.45Z" fill="#334171" stroke="#334171" stroke-width="0.5"/>
<path d="M50.5407 18.9562C50.5306 18.9326 50.5197 18.9094 50.5078 18.8863L42.4602 3.28822C41.7321 1.87696 40.2771 1.00031 38.6629 1.00031C37.0487 1.00031 35.5937 1.87706 34.8656 3.28833L29.1436 14.3804L23.4199 3.2878C22.6918 1.87654 21.2368 1 19.6228 1C18.0087 1 16.5537 1.87654 15.8256 3.2878L3.05706 28.0338C1.6721 30.7184 0.946423 33.7063 1.00308 36.7171C1.18696 46.5054 9.6307 54.6187 19.6235 54.6187C24.5821 54.6185 29.2449 52.7336 32.7607 49.3052C35.9315 46.2135 37.824 42.2029 38.1822 37.8838C38.3425 37.8896 38.5028 37.8933 38.6628 37.8933C46.0049 37.8933 51.978 32.0421 51.978 24.8499C51.9781 22.7805 51.4945 20.7981 50.5407 18.9562ZM31.2523 47.8209C28.1399 50.8557 24.0128 52.5243 19.6232 52.5242C10.7783 52.5242 3.30359 45.344 3.14066 36.6785C3.08721 33.8307 3.97849 31.4819 5.01152 28.8889L17.7338 4.23252C18.1015 3.51987 18.8077 3.09448 19.6228 3.09448C20.4378 3.09448 21.144 3.51987 21.5117 4.23252L34.2338 28.8884C35.5671 31.7413 36.1477 33.8485 36.103 36.7413C36.0087 40.9316 34.295 44.8539 31.2523 47.8209ZM38.6628 35.7988C38.5208 35.7988 38.3785 35.7961 38.2364 35.7907C38.1506 33.0852 37.4329 30.4459 36.1887 28.0325L30.3421 16.7011L36.774 4.23304C37.1416 3.52029 37.8477 3.0948 38.6629 3.0948C39.4781 3.0948 40.1843 3.52018 40.5519 4.23294L48.5624 19.7592C49.2715 21.4502 49.8399 22.9842 49.8399 24.8498C49.84 30.8871 44.8259 35.7988 38.6628 35.7988Z" fill="#334171" stroke="#334171" stroke-width="0.5"/>
<path d="M15.1298 43.0993C15.3117 43.2178 15.5173 43.2745 15.7205 43.2745C16.0665 43.2745 16.406 43.1103 16.6118 42.8069L24.4014 31.3278C24.7282 30.8461 24.5946 30.196 24.1029 29.8759C23.6113 29.5556 22.9477 29.6865 22.6208 30.1683L14.8312 41.6474C14.5044 42.129 14.638 42.779 15.1298 43.0993Z" fill="#1B86D0" stroke="#1B86D0" stroke-width="0.5"/>
<path d="M12.1875 32.6866C12.1875 34.6279 13.6978 36.2074 15.5543 36.2074C17.4108 36.2074 18.9211 34.6279 18.9211 32.6866C18.9211 30.7452 17.4108 29.1657 15.5543 29.1657C13.6978 29.1657 12.1875 30.7452 12.1875 32.6866ZM16.7828 32.6866C16.7828 33.473 16.2316 34.1129 15.5542 34.1129C14.8767 34.1129 14.3255 33.473 14.3255 32.6866C14.3255 31.9001 14.8767 31.2602 15.5542 31.2602C16.2316 31.2602 16.7828 31.9001 16.7828 32.6866Z" fill="#1B86D0" stroke="#1B86D0" stroke-width="0.5"/>
<path d="M20.1426 40.5351C20.1426 42.4765 21.6528 44.0559 23.5094 44.0559C25.3659 44.0559 26.8761 42.4765 26.8761 40.5351C26.8761 38.5937 25.3659 37.0143 23.5094 37.0143C21.6528 37.0143 20.1426 38.5937 20.1426 40.5351ZM24.7379 40.5351C24.7379 41.3216 24.1867 41.9615 23.5093 41.9615C22.8318 41.9615 22.2806 41.3216 22.2806 40.5351C22.2806 39.7486 22.8318 39.1088 23.5093 39.1088C24.1867 39.1088 24.7379 39.7486 24.7379 40.5351Z" fill="#1B86D0" stroke="#1B86D0" stroke-width="0.5"/>
<path d="M19.0279 25.407C19.8363 25.9255 20.9125 25.1748 20.6514 24.2567C20.5292 23.8268 20.1303 23.5124 19.6744 23.4902C19.2185 23.468 18.789 23.743 18.6252 24.1595C18.4458 24.6153 18.6188 25.1323 19.0279 25.407Z" fill="#334171" stroke="#334171" stroke-width="0.5"/>
</svg>
