<svg width="50" height="55" viewBox="0 0 38 55" fill="none" xmlns="http://www.w3.org/2000/svg">
<path d="M28.0201 32.7654V30.4979C28.0201 29.9195 27.5513 29.4507 26.9729 29.4507C26.3945 29.4507 25.9257 29.9195 25.9257 30.4979V33.2213C25.9257 33.5189 26.0524 33.8025 26.274 34.0011C28.5234 36.0172 29.8136 38.8989 29.8136 41.9073C29.8136 44.8162 28.6553 47.5325 26.552 49.556C24.4507 51.5775 21.6901 52.6298 18.7765 52.5161C13.2371 52.3016 8.76061 47.7925 8.5852 42.2505C8.48571 39.11 9.77402 36.1032 12.1195 34.0013C12.3412 33.8026 12.4678 33.519 12.4678 33.2214V9.82339C12.4678 6.11303 15.4864 3.09447 19.1967 3.09447C22.9071 3.09447 25.9257 6.11303 25.9257 9.82339V22.1199C25.9257 22.6983 26.3945 23.1672 26.9729 23.1672C27.5513 23.1672 28.0201 22.6983 28.0201 22.1199V9.82339C28.0201 4.95813 24.0619 1 19.1967 1C14.3315 1 10.3734 4.95813 10.3734 9.82339V32.7653C7.78752 35.261 6.37773 38.7152 6.49177 42.3167C6.70185 48.9528 12.0623 54.352 18.6955 54.6089C18.8652 54.6155 19.0342 54.6187 19.2029 54.6187C22.5022 54.6186 25.6109 53.3677 28.0042 51.0652C30.5217 48.6433 31.9082 45.3909 31.9082 41.9072C31.9081 38.4626 30.4968 35.1577 28.0201 32.7654Z" fill="#334171" stroke="#334171" stroke-width="0.5"/>
<path d="M26.972 27.3561C27.5504 27.3561 28.0193 26.8873 28.0193 26.3089C28.0193 25.7305 27.5504 25.2616 26.972 25.2616C26.3937 25.2616 25.9248 25.7305 25.9248 26.3089C25.9248 26.8873 26.3937 27.3561 26.972 27.3561Z" fill="#334171" stroke="#334171" stroke-width="0.5"/>
<path d="M2.04724 17.4202H7.23129C7.80968 17.4202 8.27853 16.9514 8.27853 16.373C8.27853 15.7946 7.80968 15.3257 7.23129 15.3257H2.04724C1.46885 15.3257 1 15.7946 1 16.373C1 16.9514 1.46885 17.4202 2.04724 17.4202Z" fill="#334171" stroke="#334171" stroke-width="0.5"/>
<path d="M4.64001 10.9401H7.23204C7.81043 10.9401 8.27928 10.4713 8.27928 9.89287C8.27928 9.31448 7.81043 8.84563 7.23204 8.84563H4.64001C4.06162 8.84563 3.59277 9.31448 3.59277 9.89287C3.59277 10.4713 4.06162 10.9401 4.64001 10.9401Z" fill="#334171" stroke="#334171" stroke-width="0.5"/>
<path d="M8.27864 29.3331C8.27864 28.7547 7.80979 28.2858 7.23139 28.2858H2.04724C1.46885 28.2858 1 28.7547 1 29.3331C1 29.9115 1.46885 30.3803 2.04724 30.3803H7.23129C7.80979 30.3803 8.27864 29.9115 8.27864 29.3331Z" fill="#334171" stroke="#334171" stroke-width="0.5"/>
<path d="M7.23204 21.8058H4.64001C4.06162 21.8058 3.59277 22.2747 3.59277 22.8531C3.59277 23.4315 4.06162 23.9003 4.64001 23.9003H7.23204C7.81043 23.9003 8.27928 23.4315 8.27928 22.8531C8.27928 22.2747 7.81043 21.8058 7.23204 21.8058Z" fill="#334171" stroke="#334171" stroke-width="0.5"/>
<path d="M31.1615 17.4201H36.3455C36.9239 17.4201 37.3928 16.9513 37.3928 16.3729C37.3928 15.7945 36.9239 15.3257 36.3455 15.3257H31.1615C30.5831 15.3257 30.1143 15.7945 30.1143 16.3729C30.1143 16.9513 30.5831 17.4201 31.1615 17.4201Z" fill="#334171" stroke="#334171" stroke-width="0.5"/>
<path d="M31.1615 10.94H33.7535C34.3319 10.94 34.8008 10.4712 34.8008 9.89281C34.8008 9.31442 34.3319 8.84557 33.7535 8.84557H31.1615C30.5831 8.84557 30.1143 9.31442 30.1143 9.89281C30.1143 10.4712 30.5831 10.94 31.1615 10.94Z" fill="#334171" stroke="#334171" stroke-width="0.5"/>
<path d="M36.3455 28.2858H31.1615C30.5831 28.2858 30.1143 28.7547 30.1143 29.3331C30.1143 29.9115 30.5831 30.3803 31.1615 30.3803H36.3455C36.9239 30.3803 37.3928 29.9115 37.3928 29.3331C37.3928 28.7547 36.9239 28.2858 36.3455 28.2858Z" fill="#334171" stroke="#334171" stroke-width="0.5"/>
<path d="M31.1615 23.9002H33.7535C34.3319 23.9002 34.8008 23.4314 34.8008 22.853C34.8008 22.2746 34.3319 21.8058 33.7535 21.8058H31.1615C30.5831 21.8058 30.1143 22.2746 30.1143 22.853C30.1143 23.4314 30.5831 23.9002 31.1615 23.9002Z" fill="#334171" stroke="#334171" stroke-width="0.5"/>
<path d="M22.8365 9.82309C22.8365 7.81637 21.204 6.18384 19.1973 6.18384C17.1905 6.18384 15.558 7.81637 15.558 9.82309V35.3179C13.175 36.6341 11.6699 39.15 11.6699 41.9071C11.6699 46.0577 15.0466 49.4344 19.1973 49.4344C23.3479 49.4344 26.7246 46.0577 26.7246 41.9071C26.7246 39.1499 25.2195 36.634 22.8365 35.3179V9.82309ZM19.1973 8.27831C20.0491 8.27831 20.742 8.97127 20.742 9.82309V21.8058H17.6525V9.82309C17.6525 8.97127 18.3454 8.27831 19.1973 8.27831ZM24.6301 41.9071C24.6301 44.9027 22.193 47.3399 19.1973 47.3399C16.2015 47.3399 13.7644 44.9028 13.7644 41.9071C13.7644 39.7476 15.0441 37.7929 17.0247 36.9272C17.4061 36.7605 17.6525 36.3838 17.6525 35.9677V23.9003H20.742V35.9677C20.742 36.3838 20.9884 36.7605 21.3698 36.9272C23.3504 37.7929 24.6301 39.7476 24.6301 41.9071Z" fill="#1B86D0" stroke="#1B86D0" stroke-width="0.5"/>
</svg>
