<?xml version="1.0" encoding="utf-8"?>
<!-- Generator: Adobe Illustrator 15.1.0, SVG Export Plug-In . SVG Version: 6.00 Build 0)  -->
<!DOCTYPE svg PUBLIC "-//W3C//DTD SVG 1.1//EN" "http://www.w3.org/Graphics/SVG/1.1/DTD/svg11.dtd">
<svg version="1.1" id="Warstwa_1" xmlns="http://www.w3.org/2000/svg" xmlns:xlink="http://www.w3.org/1999/xlink" x="0px" y="0px"
	 width="56px" height="56px" viewBox="0 0 56 56" enable-background="new 0 0 56 56" xml:space="preserve">
<g>
	<path fill="#334171" d="M45.902,20.127c0.146-0.797,0.225-1.619,0.225-2.438c0-7.373-5.998-13.365-13.367-13.365
		c-4.533,0-8.701,2.275-11.159,6.01c-1.156-0.5-2.398-0.752-3.652-0.752c-5.115,0-9.269,4.149-9.269,9.262
		c0,0.102,0,0.2,0.007,0.305c-4.123,1.354-7.003,5.25-7.003,9.676c0,5.619,4.564,10.189,10.182,10.189h5.022
		c1.588,0,1.505-2.65,0-2.65h-5.022c-4.153,0-7.537-3.383-7.537-7.539c0-3.58,2.544-6.684,6.052-7.388l1.252-0.252l-0.204-1.26
		c-0.067-0.396-0.099-0.749-0.099-1.081c0-3.646,2.97-6.614,6.619-6.614c1.213,0,2.408,0.34,3.455,0.984l1.208,0.743l0.657-1.251
		c1.866-3.539,5.501-5.73,9.491-5.73c5.908,0,10.717,4.805,10.717,10.714c0,1.125-0.178,2.235-0.521,3.306l-0.604,1.86l2.058-0.141
		c0.104-0.003,0.21-0.012,0.316-0.012c3.763,0,6.835,3.063,6.835,6.832c0,3.764-3.072,6.828-6.835,6.828h-5.73
		c-1.715,0-1.979,2.65,0,2.65h5.73c5.229,0,9.482-4.254,9.482-9.479C54.207,24.703,50.573,20.707,45.902,20.127"/>
	<path fill="#1B86D0" d="M19.884,42.443c-0.26,0-0.527-0.08-0.765-0.24c-0.598-0.424-0.736-1.252-0.315-1.846l2.438-3.467
		c0.42-0.598,1.249-0.742,1.844-0.32c0.604,0.422,0.742,1.246,0.324,1.85l-2.441,3.461C20.707,42.248,20.305,42.443,19.884,42.443"
		/>
	<path fill="#1B86D0" d="M25.73,42.443c-0.265,0-0.533-0.08-0.77-0.24c-0.594-0.424-0.742-1.252-0.322-1.846l2.445-3.467
		c0.422-0.598,1.252-0.742,1.849-0.32c0.598,0.422,0.739,1.246,0.319,1.85l-2.441,3.461C26.555,42.248,26.143,42.443,25.73,42.443"
		/>
	<path fill="#1B86D0" d="M31.572,42.443c-0.262,0-0.533-0.08-0.764-0.24c-0.596-0.424-0.743-1.252-0.322-1.846l2.439-3.467
		c0.426-0.598,1.254-0.742,1.849-0.32c0.597,0.422,0.743,1.246,0.319,1.85l-2.439,3.461C32.396,42.248,31.984,42.443,31.572,42.443"
		/>
	<path fill="#1B86D0" d="M13.642,51.953c-0.265,0-0.528-0.078-0.765-0.244c-0.594-0.42-0.739-1.248-0.312-1.848l2.433-3.461
		c0.421-0.596,1.251-0.736,1.853-0.316c0.597,0.418,0.74,1.244,0.318,1.846l-2.441,3.465C14.471,51.758,14.059,51.953,13.642,51.953
		"/>
	<path fill="#1B86D0" d="M19.488,51.953c-0.268,0-0.536-0.078-0.767-0.244c-0.594-0.42-0.74-1.248-0.319-1.848l2.442-3.461
		c0.421-0.596,1.248-0.736,1.847-0.316c0.597,0.418,0.738,1.244,0.316,1.846l-2.44,3.465C20.315,51.758,19.905,51.953,19.488,51.953
		"/>
	<path fill="#1B86D0" d="M25.324,51.953c-0.258,0-0.527-0.078-0.761-0.244c-0.597-0.42-0.737-1.248-0.313-1.848l2.436-3.461
		c0.422-0.596,1.246-0.736,1.846-0.316c0.598,0.418,0.741,1.244,0.32,1.846l-2.437,3.465C26.151,51.758,25.745,51.953,25.324,51.953
		"/>
</g>
</svg>
