<?xml version="1.0" encoding="utf-8"?>
<!-- Generator: Adobe Illustrator 15.1.0, SVG Export Plug-In . SVG Version: 6.00 Build 0)  -->
<!DOCTYPE svg PUBLIC "-//W3C//DTD SVG 1.1//EN" "http://www.w3.org/Graphics/SVG/1.1/DTD/svg11.dtd">
<svg version="1.1" id="Warstwa_1" xmlns="http://www.w3.org/2000/svg" xmlns:xlink="http://www.w3.org/1999/xlink" x="0px" y="0px"
	 width="56px" height="56px" viewBox="0 0 56 56" enable-background="new 0 0 56 56" xml:space="preserve">
<g>
	<path fill="#71B7D3" d="M46.582,27.161h-5.211l2.193-2.19c0.377-0.381,0.377-1,0-1.384c-0.387-0.385-1.008-0.385-1.389,0
		L38.6,27.161h-8.287l5.861-5.861h5.057c0.539,0,0.979-0.437,0.979-0.983c0-0.536-0.439-0.976-0.979-0.976h-3.1l3.688-3.682
		c0.383-0.389,0.383-1.005,0-1.39c-0.385-0.38-1.006-0.38-1.387,0l-3.688,3.68v-3.091c0-0.543-0.434-0.98-0.979-0.98
		c-0.539,0-0.98,0.438-0.98,0.98v5.053l-5.857,5.861v-8.285l3.572-3.573c0.383-0.382,0.383-1.004,0-1.386
		c-0.383-0.387-1.004-0.387-1.385,0l-2.188,2.183V9.504c0-0.538-0.443-0.98-0.979-0.98c-0.543,0-0.985,0.442-0.985,0.98v5.206
		l-2.187-2.183c-0.382-0.387-1.004-0.387-1.391,0c-0.379,0.382-0.379,1.004,0,1.386l3.578,3.573v8.285l-5.858-5.861v-5.055
		c0-0.541-0.44-0.981-0.979-0.981c-0.542,0-0.983,0.44-0.983,0.981v3.093l-3.686-3.68c-0.385-0.38-0.998-0.38-1.386,0
		c-0.381,0.385-0.381,1.001,0,1.39l3.68,3.682h-3.091c-0.538,0-0.977,0.439-0.977,0.976c0,0.547,0.439,0.983,0.977,0.983h5.057
		l5.857,5.861H17.29l-3.572-3.574c-0.385-0.385-1.002-0.385-1.388,0c-0.383,0.384-0.379,1.003,0,1.384l2.192,2.19H9.311
		c-0.541,0-0.98,0.441-0.98,0.982c0,0.539,0.439,0.978,0.98,0.978h5.211l-2.192,2.186c-0.379,0.387-0.383,1.008,0,1.387
		c0.192,0.195,0.442,0.287,0.695,0.287c0.249,0,0.502-0.092,0.693-0.287l3.572-3.572h8.286l-5.857,5.857h-5.057
		c-0.538,0-0.977,0.439-0.977,0.982c0,0.537,0.439,0.977,0.977,0.977h3.091l-3.68,3.684c-0.381,0.385-0.381,1.002,0,1.393
		c0.197,0.184,0.444,0.285,0.697,0.285c0.25,0,0.5-0.102,0.689-0.285l3.686-3.689v3.098c0,0.539,0.441,0.98,0.983,0.98
		c0.539,0,0.979-0.441,0.979-0.98v-5.059l5.858-5.857v8.289l-3.578,3.57c-0.379,0.385-0.379,1.004,0,1.389
		c0.193,0.188,0.449,0.287,0.698,0.287c0.253,0,0.502-0.1,0.693-0.287l2.187-2.188v5.205c0,0.547,0.441,0.982,0.985,0.982
		c0.535,0,0.979-0.436,0.979-0.982v-5.205l2.188,2.188c0.191,0.188,0.441,0.287,0.693,0.287s0.504-0.1,0.691-0.287
		c0.383-0.385,0.383-1.004,0-1.389l-3.572-3.57v-8.289l5.857,5.857v5.059c0,0.539,0.441,0.98,0.98,0.98
		c0.545,0,0.979-0.441,0.979-0.98v-3.098l3.688,3.689c0.189,0.184,0.439,0.285,0.686,0.285c0.254,0,0.506-0.102,0.701-0.285
		c0.383-0.391,0.383-1.008,0-1.393l-3.688-3.684h3.1c0.539,0,0.979-0.439,0.979-0.977c0-0.543-0.439-0.982-0.979-0.982h-5.057
		l-5.861-5.857H38.6l3.576,3.572c0.188,0.195,0.438,0.287,0.688,0.287c0.256,0,0.504-0.092,0.701-0.287c0.377-0.379,0.377-1,0-1.387
		l-2.193-2.186h5.211c0.539,0,0.979-0.439,0.979-0.978C47.561,27.602,47.121,27.161,46.582,27.161"/>
</g>
</svg>
