<svg width="57" height="57" viewBox="0 0 57 57" fill="none" xmlns="http://www.w3.org/2000/svg">
<g clip-path="url(#clip0)">
<path d="M30.4163 8.76876L33.1993 10.2909L34.7214 13.0739C35.0142 13.6092 35.5756 13.942 36.1856 13.942C36.7957 13.942 37.3572 13.6091 37.6499 13.0739L39.172 10.2909L41.955 8.76876C42.4903 8.47602 42.8231 7.91458 42.8231 7.30452C42.8231 6.69446 42.4902 6.13302 41.955 5.84028L39.172 4.31818L37.6499 1.53512C37.3572 0.99983 36.7957 0.667038 36.1856 0.667038C35.5756 0.667038 35.0142 0.999941 34.7214 1.53512L33.1993 4.31818L30.4163 5.84028C29.881 6.13302 29.5482 6.69446 29.5482 7.30452C29.5482 7.91458 29.8811 8.47602 30.4163 8.76876ZM35.2299 7.01212C35.5099 6.85902 35.7401 6.6287 35.8932 6.34876L36.1856 5.81413L36.4781 6.34876C36.6312 6.62881 36.8615 6.85902 37.1414 7.01212L37.676 7.30452L37.1414 7.59692C36.8614 7.75002 36.6312 7.98034 36.4781 8.26028L36.1856 8.7949L35.8932 8.26028C35.7401 7.98023 35.5098 7.75002 35.2299 7.59692L34.6953 7.30452L35.2299 7.01212Z" fill="current"/>
<path d="M27.6489 16.186C28.5706 16.186 29.3179 15.4388 29.3179 14.5171C29.3179 13.5953 28.5706 12.8481 27.6489 12.8481C26.7271 12.8481 25.9799 13.5953 25.9799 14.5171C25.9799 15.4388 26.7271 16.186 27.6489 16.186Z" fill="current"/>
<path d="M43.7029 34.0504C43.0511 34.7022 43.0511 35.7588 43.7029 36.4106C44.3547 37.0624 45.4114 37.0624 46.0632 36.4106C46.715 35.7588 46.715 34.7022 46.0632 34.0504C45.4114 33.3986 44.3547 33.3987 43.7029 34.0504Z" fill="current"/>
<path d="M44.3014 16.9156C45.2232 16.9156 45.9704 16.1684 45.9704 15.2467C45.9704 14.3249 45.2232 13.5777 44.3014 13.5777C43.3797 13.5777 42.6324 14.3249 42.6324 15.2467C42.6324 16.1684 43.3797 16.9156 44.3014 16.9156Z" fill="current"/>
<path d="M17.7469 10.2544C17.9317 10.3202 18.1204 10.3513 18.3059 10.3513C18.9923 10.3513 19.6354 9.92473 19.8785 9.24101L21.6327 4.30721C21.9415 3.43879 21.4877 2.48436 20.6193 2.17561C19.7505 1.86662 18.7963 2.32047 18.4877 3.189L16.7335 8.1228C16.4247 8.99122 16.8785 9.94553 17.7469 10.2544Z" fill="current"/>
<path d="M55.7386 16.6834C54.8449 16.4583 53.9377 17 53.7124 17.8937L52.5571 22.4766C51.6421 21.9217 50.762 21.306 49.9289 20.6376C49.2665 20.1061 48.3696 19.9817 47.5882 20.3133C46.808 20.6443 46.2748 21.3742 46.1968 22.2183C46.0765 23.5197 45.9819 24.8363 45.9144 26.1493C45.0242 25.6942 44.1398 25.2068 43.2749 24.73C42.6366 24.3782 41.9766 24.0144 41.3191 23.666C40.6041 23.2871 39.7618 23.3085 39.0661 23.7234C38.3698 24.1385 37.9501 24.87 37.9434 25.68C37.931 27.1849 37.9295 28.7124 37.9393 30.2199C37.9452 31.1379 38.6912 31.8781 39.608 31.8781H39.6191C40.5408 31.8722 41.2832 31.12 41.2772 30.1984C41.2713 29.2823 41.2696 28.3588 41.272 27.4375C41.4033 27.5097 41.5339 27.5818 41.6638 27.6534C43.0337 28.4084 44.4502 29.1893 45.9214 29.8641C46.6237 30.1862 47.4353 30.1365 48.0925 29.7309C48.7476 29.3266 49.1548 28.626 49.1817 27.8568C49.222 26.7029 49.2844 25.5406 49.3679 24.3827C50.2629 25.0049 51.1952 25.5752 52.1546 26.087C52.7105 26.3835 53.3356 26.4355 53.9144 26.2333C54.5593 26.0082 55.087 25.4863 55.4002 24.7638C55.4362 24.6809 55.4653 24.5954 55.4874 24.5078L56.949 18.7096C57.1742 17.8158 56.6324 16.9087 55.7386 16.6834Z" fill="current"/>
<path d="M51.9356 10.0799C54.7102 10.0799 56.9674 7.82271 56.9674 5.0481C56.9674 2.2735 54.7102 0.0162811 51.9356 0.0162811C49.161 0.0162811 46.9037 2.27361 46.9037 5.0481C46.9037 7.8226 49.1611 10.0799 51.9356 10.0799ZM51.9356 3.35421C52.8696 3.35421 53.6295 4.11415 53.6295 5.0481C53.6295 5.98206 52.8695 6.74199 51.9356 6.74199C51.0016 6.74199 50.2417 5.98206 50.2417 5.0481C50.2417 4.11415 51.0016 3.35421 51.9356 3.35421Z" fill="current"/>
<path d="M31.1459 22.5501C31.347 22.5501 31.5516 22.5135 31.7503 22.4363L36.6308 20.539C37.4899 20.205 37.9156 19.2379 37.5817 18.3787C37.2477 17.5197 36.2804 17.094 35.4214 17.4279L30.5409 19.3251C29.6818 19.6592 29.2561 20.6263 29.59 21.4855C29.8467 22.1458 30.4775 22.5501 31.1459 22.5501Z" fill="current"/>
<path d="M19.1937 16.3956C18.1963 15.3983 16.8703 14.8489 15.4598 14.8489C14.0493 14.8489 12.7232 15.3983 11.7258 16.3956C10.7285 17.393 10.1792 18.7191 10.1792 20.1296C10.1792 21.5401 10.7285 22.8661 11.7258 23.8635L12.4337 24.5715C8.77611 33.5166 3.79302 45.7038 0.124182 54.6832C-0.130168 55.3054 0.0135854 56.0194 0.488796 56.4947C0.808014 56.814 1.23494 56.9837 1.66942 56.9837C1.88183 56.9837 2.09601 56.9431 2.30029 56.8596C9.98833 53.7181 24.8233 47.6573 32.4168 44.5542L33.4573 45.5948C34.4547 46.5921 35.7808 47.1414 37.1913 47.1414C38.6018 47.1414 39.9279 46.5921 40.9252 45.5948C41.9226 44.5974 42.4719 43.2713 42.4719 41.8608C42.4719 40.4503 41.9226 39.1243 40.9252 38.1269L19.1937 16.3956ZM27.6979 39.8354L12.8279 32.4285L14.9935 27.1311L27.6979 39.8354ZM18.5378 46.6194L8.8472 42.1661L11.5614 35.5268L26.9391 43.1867L18.5378 46.6194ZM7.58291 45.2587L14.3062 48.3484L4.7184 52.266L7.58291 45.2587ZM38.5648 43.2346C38.198 43.6016 37.7101 43.8036 37.1912 43.8036C36.6722 43.8036 36.1844 43.6016 35.8175 43.2346L15.5954 23.0125C15.5856 23.0024 15.5756 22.9926 15.5656 22.9827L14.0861 21.5032C13.7193 21.1363 13.5171 20.6484 13.5171 20.1296C13.5171 19.6107 13.7191 19.1228 14.0861 18.7559C14.4648 18.3771 14.9623 18.1879 15.4598 18.1879C15.9572 18.1879 16.4547 18.3772 16.8334 18.7559L38.5648 40.4873C38.9317 40.8542 39.1338 41.342 39.1338 41.861C39.1339 42.3799 38.9318 42.8677 38.5648 43.2346Z" fill="current"/>
</g>
<defs>
<clipPath id="clip0">
<rect width="57" height="57" fill="white"/>
</clipPath>
</defs>
</svg>
