<svg width="61" height="61" viewBox="0 0 61 61" fill="none" xmlns="http://www.w3.org/2000/svg">
<path d="M1.78711 60.2469H59.2129C60.2 60.2469 61 59.4568 61 58.4819C61 55.9055 61 39.6143 61 37.1836C61 36.7157 60.812 36.2666 60.4764 35.9357L53.8516 29.3922V24.8283H55.6387C56.6258 24.8283 57.4258 24.0382 57.4258 23.0633C57.4258 22.0884 56.6258 21.2982 55.6387 21.2982H53.8516V19.5332C53.8516 18.5583 53.0516 17.7681 52.0645 17.7681C51.0774 17.7681 50.2773 18.5583 50.2773 19.5332V21.2982H48.4902C47.5031 21.2982 46.7031 22.0884 46.7031 23.0633C46.7031 24.0382 47.5031 24.8283 48.4902 24.8283H50.2773V29.3922L46.7031 32.9222V26.5934C46.7031 26.1227 46.5128 25.6713 46.1744 25.3404L32.2871 11.7376V7.06018H34.0742C35.0613 7.06018 35.8613 6.27005 35.8613 5.29514C35.8613 4.32023 35.0613 3.53009 34.0742 3.53009H32.2871V1.76505C32.2871 0.790134 31.4871 0 30.5 0C29.5129 0 28.7129 0.790134 28.7129 1.76505V3.53009H26.9258C25.9387 3.53009 25.1387 4.32023 25.1387 5.29514C25.1387 6.27005 25.9387 7.06018 26.9258 7.06018H28.7129V11.7417L14.9396 25.3454C14.604 25.6764 14.416 26.1254 14.416 26.5934V32.9222L10.8418 29.3922V24.8283H12.6289C13.616 24.8283 14.416 24.0382 14.416 23.0633C14.416 22.0884 13.616 21.2982 12.6289 21.2982H10.8418V19.5332C10.8418 18.5583 10.0418 17.7681 9.05469 17.7681C8.06759 17.7681 7.26758 18.5583 7.26758 19.5332V21.2982H5.48047C4.49337 21.2982 3.69336 22.0884 3.69336 23.0633C3.69336 24.0382 4.49337 24.8283 5.48047 24.8283H7.26758V29.3839L0.533806 35.9251C0.192207 36.257 0 36.7107 0 37.1836V58.4819C0 59.4568 0.800011 60.2469 1.78711 60.2469ZM3.57422 48.5135L9.04445 43.1995L14.416 48.5052V56.7168H10.8418V51.304C10.8418 50.3291 10.0418 49.539 9.05469 49.539C8.06759 49.539 7.26758 50.3291 7.26758 51.304V56.7168H3.57422V48.5135ZM28.7129 26.5929C28.7129 25.6198 29.5148 24.8283 30.5 24.8283C31.4852 24.8283 32.2871 25.6203 32.2871 26.5934C32.2871 27.5664 31.4852 28.3584 30.5 28.3584C29.5148 28.3584 28.7129 27.5669 28.7129 26.5938C28.7129 26.5934 28.7129 26.5934 28.7129 26.5929ZM26.2235 29.7829C27.2032 31.0611 28.7552 31.8885 30.5 31.8885C32.2499 31.8885 33.8066 31.0561 34.7858 29.7709L43.1289 37.9205V46.0089H35.8613V44.2438C35.8613 43.2689 35.0613 42.4788 34.0742 42.4788H26.9258C25.9387 42.4788 25.1387 43.2689 25.1387 44.2438V46.0089H17.9902V37.9149L26.2235 29.7829ZM17.9902 49.539H25.1387V56.7168H17.9902V49.539ZM28.7129 46.0089H32.2871V56.7168H28.7129V46.0089ZM35.8613 49.539H43.1289V56.7168H35.8613V49.539ZM53.8516 56.7168V51.304C53.8516 50.3291 53.0516 49.539 52.0645 49.539C51.0774 49.539 50.2773 50.3291 50.2773 51.304V56.7168H46.7031V48.5052L52.0645 43.2101L57.4258 48.5052V56.7168H53.8516ZM57.4258 43.5125L53.328 39.4658C52.6304 38.7763 51.4985 38.7763 50.8009 39.4658L46.7031 43.5125V37.9149L52.0645 32.6198L57.4258 37.9149V43.5125ZM17.9902 27.3247L30.5051 14.9638L43.1289 27.3288V32.9553L35.8004 25.7973C35.4108 23.254 33.1825 21.2982 30.5 21.2982C27.8156 21.2982 25.5859 23.2568 25.1987 25.8032L17.9902 32.9222V27.3247ZM9.04445 32.6092L14.416 37.9149V43.5125L10.3182 39.4658C9.62433 38.7805 8.50087 38.7759 7.80138 39.4552L3.57422 43.5622V37.9232L9.04445 32.6092Z" fill="current"/>
</svg>
