<svg width="55" height="55" viewBox="0 0 55 55" fill="none" xmlns="http://www.w3.org/2000/svg">
<path d="M46.9455 8.05454C41.7514 2.86053 34.8454 0 27.5 0C20.1546 0 13.2486 2.86053 8.05454 8.05454C2.86053 13.2486 0 20.1546 0 27.5C0 34.8454 2.86053 41.7514 8.05454 46.9455C13.2486 52.1395 20.1546 55 27.5 55C34.8454 55 41.7514 52.1395 46.9455 46.9455C52.1395 41.7514 55 34.8454 55 27.5C55 20.1546 52.1395 13.2486 46.9455 8.05454ZM44.6665 44.6665C40.0814 49.2521 33.9848 51.7773 27.5 51.7773C21.0152 51.7773 14.9186 49.2521 10.3335 44.6665C5.74791 40.0814 3.22266 33.9848 3.22266 27.5C3.22266 21.0152 5.74791 14.9186 10.3335 10.3335C14.9186 5.74791 21.0152 3.22266 27.5 3.22266C33.9848 3.22266 40.0814 5.74791 44.6665 10.3335C49.2521 14.9186 51.7773 21.0152 51.7773 27.5C51.7773 33.9848 49.2521 40.0814 44.6665 44.6665Z" fill="current"/>
<path d="M32.9687 35.8811H32.8936V24.4956C32.8936 23.16 31.8068 22.0736 30.4716 22.0736H22.4611C21.1255 22.0736 20.0391 23.16 20.0391 24.4956V28.4278C20.0391 29.7635 21.1255 30.8499 22.4611 30.8499H22.5442V35.8811H22.4611C21.1255 35.8811 20.0391 36.9675 20.0391 38.3031V42.2353C20.0391 43.571 21.1255 44.6573 22.4611 44.6573H32.9687C34.3044 44.6573 35.3907 43.571 35.3907 42.2353V38.3031C35.3907 36.9679 34.3039 35.8811 32.9687 35.8811ZM32.1681 41.4351H23.2613V39.1037H24.0355C24.9901 39.1037 25.7668 38.327 25.7668 37.3724V29.3585C25.7668 28.4039 24.9901 27.6276 24.0355 27.6276H23.2613V25.2962H29.6709V37.3724C29.6709 38.327 30.4477 39.1037 31.4023 39.1037H32.1681V41.4351Z" fill="current"/>
<path d="M27.7147 20.7463C30.5832 20.7463 32.9167 18.4128 32.9167 15.5443C32.9167 12.6762 30.5832 10.3423 27.7147 10.3423C24.8462 10.3423 22.5127 12.6762 22.5127 15.5443C22.5127 18.4128 24.8462 20.7463 27.7147 20.7463ZM27.7147 13.565C28.8061 13.565 29.694 14.4533 29.694 15.5443C29.694 16.6357 28.8061 17.5236 27.7147 17.5236C26.6233 17.5236 25.7354 16.6357 25.7354 15.5443C25.7354 14.4533 26.6233 13.565 27.7147 13.565Z" fill="current"/>
</svg>
