<svg width="60" height="60" viewBox="0 0 60 60" fill="none" xmlns="http://www.w3.org/2000/svg">
<g clip-path="url(#clip0)">
<path d="M36.2193 52.1368C35.3209 51.7731 34.2942 52.1977 33.9261 53.0848L32.3578 56.8643C31.9896 57.7516 32.4195 58.7655 33.3177 59.1291C34.2161 59.4927 35.2426 59.0683 35.6108 58.1811L37.1792 54.4016C37.5474 53.5143 37.1176 52.5004 36.2193 52.1368Z" fill="current"/>
<path d="M6.92239 52.1368C6.02403 51.7731 4.99735 52.1977 4.62927 53.0848L3.06095 56.8643C2.69274 57.7516 3.12259 58.7655 4.02083 59.1291H4.02095C4.91931 59.4927 5.94587 59.0683 6.31407 58.1811L7.88239 54.4016C8.25048 53.5143 7.82075 52.5004 6.92239 52.1368Z" fill="current"/>
<path d="M16.6882 52.1368C15.79 51.7731 14.7633 52.1977 14.3951 53.0848L12.8266 56.8643C12.4584 57.7515 12.8882 58.7655 13.7865 59.1291C14.6848 59.4928 15.7115 59.0683 16.0797 58.1811L17.6481 54.4016C18.0162 53.5144 17.5865 52.5004 16.6882 52.1368Z" fill="current"/>
<path d="M26.4537 52.1368C25.5553 51.7731 24.5287 52.1977 24.1606 53.0848L22.5923 56.8643C22.2241 57.7516 22.6539 58.7655 23.5521 59.1291H23.5523C24.4506 59.4927 25.4772 59.0683 25.8454 58.1811L27.4137 54.4016C27.7818 53.5143 27.3521 52.5004 26.4537 52.1368Z" fill="current"/>
<path d="M58.2422 16.2037H55.8984C54.9277 16.2037 54.1406 16.981 54.1406 17.9398C54.1406 18.8986 54.9277 19.6759 55.8984 19.6759H58.2422C59.213 19.6759 60 18.8986 60 17.9398C60 16.981 59.213 16.2037 58.2422 16.2037Z" fill="current"/>
<path d="M50.5366 9.3464C51.2231 10.0244 52.336 10.0244 53.0225 9.3464L54.6798 7.7096C55.3663 7.03159 55.3663 5.9324 54.6798 5.25439C53.9933 4.57638 52.8804 4.57638 52.1939 5.25439L50.5366 6.89119C49.8501 7.5692 49.8501 8.66839 50.5366 9.3464Z" fill="current"/>
<path d="M41.8359 5.78704C42.8067 5.78704 43.5938 5.00972 43.5938 4.05093V1.73611C43.5938 0.777315 42.8067 0 41.8359 0C40.8652 0 40.0781 0.777315 40.0781 1.73611V4.05093C40.0781 5.00972 40.8652 5.78704 41.8359 5.78704Z" fill="current"/>
<path d="M30.6494 9.34654C31.3358 10.0245 32.4488 10.0245 33.1353 9.34654C33.8217 8.66853 33.8217 7.56934 33.1353 6.89133L31.478 5.25452C30.7915 4.57652 29.6786 4.57652 28.9921 5.25452C28.3056 5.93253 28.3056 7.03172 28.9921 7.70973L30.6494 9.34654Z" fill="current"/>
<path d="M53.0225 26.5331C52.336 25.8551 51.223 25.8551 50.5366 26.5331C49.8501 27.2111 49.8501 28.3103 50.5366 28.9883L52.1939 30.6251C52.8804 31.3031 53.9934 31.3031 54.6798 30.6251C55.3663 29.9471 55.3663 28.8479 54.6798 28.1699L53.0225 26.5331Z" fill="current"/>
<path d="M46.4823 26.6348C49.6398 24.9839 51.7969 21.7075 51.7969 17.9398C51.7969 12.5152 47.3284 8.10185 41.8359 8.10185C38.5806 8.10185 35.5833 9.6662 33.7372 12.2133C31.2475 10.7074 28.3225 9.83796 25.1953 9.83796C16.6971 9.83796 9.68731 16.253 8.86887 24.4373C3.84762 25.2332 0 29.5421 0 34.7222C0 39.6163 3.43535 43.7322 8.04926 44.8431L7.35199 46.5234C6.98379 47.4106 7.41363 48.4245 8.31188 48.7882H8.31199C9.21035 49.1517 10.2369 48.7273 10.6051 47.8402L11.726 45.1389H17.6922L17.1177 46.5234C16.7495 47.4106 17.1793 48.4245 18.0776 48.7882H18.0777C18.9761 49.1517 20.0026 48.7273 20.3708 47.8402L21.4916 45.1389H27.4577L26.8832 46.5234C26.515 47.4105 26.9447 48.4245 27.843 48.7882C28.7413 49.1518 29.768 48.7273 30.1362 47.8402L31.2572 45.1389H37.2233L36.6489 46.5234C36.2807 47.4106 36.7105 48.4245 37.6088 48.7882C38.5071 49.1517 39.5337 48.7273 39.9019 47.8402L41.0513 45.0703C46.3002 44.4765 50.3906 40.0626 50.3906 34.7222C50.3906 31.4611 48.865 28.5462 46.4823 26.6348ZM41.8359 11.5741C45.3899 11.5741 48.2813 14.4297 48.2813 17.9398C48.2813 21.4499 45.3899 24.3056 41.8359 24.3056C41.7259 24.3056 41.6159 24.3012 41.5059 24.2956C41.0809 20.3964 39.2504 16.9069 36.5254 14.3334C37.7134 12.6269 39.6879 11.5741 41.8359 11.5741ZM39.8438 41.6667H10.5469C6.66984 41.6667 3.51563 38.5514 3.51563 34.7222C3.51563 31.4472 5.82363 28.6964 8.91703 27.9682C9.10617 29.5373 9.52441 31.0631 10.1695 32.523C10.4579 33.1758 11.1038 33.5652 11.7816 33.5652C12.0162 33.5652 12.2549 33.5184 12.4838 33.4198C13.3736 33.0363 13.7801 32.013 13.3918 31.1341C12.6798 29.5227 12.3176 27.8086 12.3154 26.0392C12.4036 19.0939 18.1424 13.3102 25.1953 13.3102C31.7639 13.3102 37.2004 18.1878 37.9875 24.4685C35.877 24.8367 33.933 25.8286 32.3859 27.3566C31.6995 28.0346 31.6995 29.1338 32.3859 29.8118C32.7292 30.1508 33.1791 30.3204 33.6288 30.3204C34.0786 30.3204 34.5286 30.1509 34.8717 29.8118C36.1999 28.5001 37.9657 27.7778 39.8438 27.7778C43.7208 27.7778 46.875 30.8931 46.875 34.7222C46.875 38.5514 43.7208 41.6667 39.8438 41.6667Z" fill="current"/>
</g>
<defs>
<clipPath id="clip0">
<rect width="60" height="59.2593" fill="white"/>
</clipPath>
</defs>
</svg>
