<svg width="55" height="55" viewBox="0 0 55 55" fill="none" xmlns="http://www.w3.org/2000/svg">
<path d="M50.166 0H4.83398C2.16853 0 0 2.16853 0 4.83398V50.166C0 52.8315 2.16853 55 4.83398 55H50.166C52.8315 55 55 52.8315 55 50.166V4.83398C55 2.16853 52.8315 0 50.166 0ZM51.7773 50.166C51.7773 51.0545 51.0545 51.7773 50.166 51.7773H4.83398C3.9455 51.7773 3.22266 51.0545 3.22266 50.166V4.83398C3.22266 3.9455 3.9455 3.22266 4.83398 3.22266H50.166C51.0545 3.22266 51.7773 3.9455 51.7773 4.83398V50.166Z" fill="current"/>
<path d="M43.6133 12.998H13.7096C11.6256 12.998 9.7827 14.3263 9.12377 16.3033L6.63545 23.7677C6.58066 23.9321 6.55273 24.1042 6.55273 24.2773V33.9453C6.55273 36.6108 8.72126 38.7793 11.3867 38.7793H13.2752C13.9404 40.6547 15.7314 42.002 17.832 42.002C19.9327 42.002 21.7237 40.6547 22.3889 38.7793H32.6111C33.2763 40.6547 35.0673 42.002 37.168 42.002C39.2686 42.002 41.0597 40.6547 41.7248 38.7793H43.6133C46.2787 38.7793 48.4473 36.6108 48.4473 33.9453V17.832C48.4473 15.1666 46.2787 12.998 43.6133 12.998ZM29.1113 16.2207H35.5566V22.666H29.1113V16.2207ZM19.4434 16.2207H25.8887V22.666H19.4434V16.2207ZM12.1811 17.3224C12.4007 16.6635 13.0149 16.2207 13.7096 16.2207H16.2207V22.666H10.3997L12.1811 17.3224ZM19.4434 37.168C19.4434 37.1683 19.4434 37.1686 19.4434 37.169C19.4427 38.057 18.7202 38.7793 17.832 38.7793C16.9435 38.7793 16.2207 38.0565 16.2207 37.168C16.2207 36.2795 16.9435 35.5566 17.832 35.5566C18.7202 35.5566 19.4427 36.2789 19.4434 37.1669C19.4434 37.1672 19.4434 37.1677 19.4434 37.168ZM37.168 38.7793C36.2798 38.7793 35.5573 38.057 35.5566 37.169C35.5566 37.1687 35.5566 37.1683 35.5566 37.168C35.5566 37.1677 35.5566 37.1673 35.5566 37.1669C35.5572 36.2789 36.2797 35.5566 37.168 35.5566C38.0565 35.5566 38.7793 36.2795 38.7793 37.168C38.7793 38.0565 38.0565 38.7793 37.168 38.7793ZM45.2246 33.9453C45.2246 34.8338 44.5018 35.5566 43.6133 35.5566H41.7248C41.0597 33.6813 39.2686 32.334 37.168 32.334C35.0673 32.334 33.2763 33.6813 32.6111 35.5566H22.3889C21.7237 33.6813 19.9327 32.334 17.832 32.334C15.7314 32.334 13.9404 33.6813 13.2752 35.5566H11.3867C10.4982 35.5566 9.77539 34.8338 9.77539 33.9453V32.334H11.3867C12.2766 32.334 12.998 31.6125 12.998 30.7227C12.998 29.8328 12.2766 29.1113 11.3867 29.1113H9.77539V25.8887H45.2246V33.9453ZM45.2246 22.666H38.7793V16.2207H43.6133C44.5018 16.2207 45.2246 16.9435 45.2246 17.832V22.666Z" fill="current"/>
</svg>
