<svg width="58" height="58" viewBox="0 0 58 58" fill="none" xmlns="http://www.w3.org/2000/svg">
<path d="M38.6828 38.3213C44.8547 28.6366 44.0789 29.8449 44.2567 29.5923C46.5038 26.423 47.6914 22.6927 47.6914 18.8047C47.6914 8.49383 39.3243 0 29 0C18.7093 0 10.3086 8.47706 10.3086 18.8047C10.3086 22.6902 11.5212 26.5181 13.8418 29.7302L19.3169 38.3215C13.4631 39.221 3.51172 41.9018 3.51172 47.8047C3.51172 49.9565 4.91618 53.023 11.607 55.4125C16.279 57.0811 22.4559 58 29 58C41.2372 58 54.4883 54.5481 54.4883 47.8047C54.4883 41.9008 44.5485 39.2228 38.6828 38.3213ZM16.6805 27.861C16.6619 27.8317 16.6424 27.8032 16.622 27.7751C14.6909 25.1184 13.707 21.9699 13.707 18.8047C13.707 10.3066 20.5499 3.39844 29 3.39844C37.4325 3.39844 44.293 10.3096 44.293 18.8047C44.293 21.975 43.3277 25.0167 41.501 27.6034C41.3373 27.8193 42.1914 26.4925 29 47.1917L16.6805 27.861ZM29 54.6016C15.6335 54.6016 6.91016 50.6726 6.91016 47.8047C6.91016 45.8771 11.3925 42.7076 21.325 41.4722L27.567 51.2668C27.879 51.7564 28.4193 52.0527 28.9999 52.0527C29.5805 52.0527 30.1209 51.7563 30.4328 51.2668L36.6747 41.4722C46.6074 42.7076 51.0898 45.8771 51.0898 47.8047C51.0898 50.6483 42.445 54.6016 29 54.6016Z" fill="current"/>
<path d="M29 10.3086C24.3153 10.3086 20.5039 14.1199 20.5039 18.8047C20.5039 23.4894 24.3153 27.3008 29 27.3008C33.6847 27.3008 37.4961 23.4894 37.4961 18.8047C37.4961 14.1199 33.6847 10.3086 29 10.3086ZM29 23.9023C26.1892 23.9023 23.9023 21.6155 23.9023 18.8047C23.9023 15.9938 26.1892 13.707 29 13.707C31.8108 13.707 34.0977 15.9938 34.0977 18.8047C34.0977 21.6155 31.8108 23.9023 29 23.9023Z" fill="current"/>
</svg>
