<svg width="38" height="38" viewBox="0 0 38 38" fill="none" xmlns="http://www.w3.org/2000/svg">
<path d="M16.2506 32.4995C19.8562 32.4987 23.3578 31.2918 26.198 29.0708L35.1277 38L38 35.1279L29.0703 26.1986C31.2926 23.3583 32.5003 19.856 32.5012 16.2497C32.5012 7.29004 25.2108 0 16.2506 0C7.29043 0 0 7.29004 0 16.2497C0 25.2094 7.29043 32.4995 16.2506 32.4995ZM16.2506 4.06243C22.9723 4.06243 28.4386 9.52844 28.4386 16.2497C28.4386 22.971 22.9723 28.437 16.2506 28.437C9.52895 28.437 4.06265 22.971 4.06265 16.2497C4.06265 9.52844 9.52895 4.06243 16.2506 4.06243Z" fill="current"/>
</svg>
