<svg width="40" height="40" viewBox="0 0 40 40" fill="none" xmlns="http://www.w3.org/2000/svg">
<path d="M0.689697 22.0691H4.27582C5.2182 29.1837 10.8163 34.7818 17.9309 35.7242V39.3103C17.9321 39.6909 18.2404 39.9988 18.6206 40H21.3794C21.7596 39.9988 22.0679 39.6909 22.0691 39.3103V35.7242C29.1837 34.7818 34.7818 29.1837 35.7242 22.0691H39.3103C39.6909 22.0679 39.9988 21.7596 40 21.3794V18.6206C39.9988 18.2404 39.6909 17.9321 39.3103 17.9309H35.7242C34.7818 10.8163 29.1837 5.2182 22.0691 4.27582V0.689697C22.0679 0.309143 21.7596 0.0012207 21.3794 0H18.6206C18.2404 0.0012207 17.9321 0.309143 17.9309 0.689697V4.27582C10.8163 5.2182 5.2182 10.8163 4.27582 17.9309H0.689697C0.309143 17.9321 0.0012207 18.2404 0 18.6206V21.3794C0.0012207 21.7596 0.309143 22.0679 0.689697 22.0691ZM20 8.27576C26.4749 8.27576 31.7242 13.5251 31.7242 20C31.7242 26.4749 26.4749 31.7242 20 31.7242C13.5251 31.7242 8.27576 26.4749 8.27576 20C8.28491 13.5287 13.5287 8.28491 20 8.27576Z" fill="#1C6434"/>
<path d="M25.5172 20C25.5172 23.0472 23.0471 25.5173 19.9999 25.5173C16.9528 25.5173 14.4827 23.0472 14.4827 20C14.4827 16.9528 16.9528 14.4827 19.9999 14.4827C23.0471 14.4827 25.5172 16.9528 25.5172 20Z" fill="#1C6434"/>
</svg>
