<?xml version="1.0" encoding="utf-8"?>
<!-- Generator: Adobe Illustrator 15.1.0, SVG Export Plug-In . SVG Version: 6.00 Build 0)  -->
<!DOCTYPE svg PUBLIC "-//W3C//DTD SVG 1.1//EN" "http://www.w3.org/Graphics/SVG/1.1/DTD/svg11.dtd">
<svg version="1.1" id="Warstwa_1" xmlns="http://www.w3.org/2000/svg" xmlns:xlink="http://www.w3.org/1999/xlink" x="0px" y="0px"
	 width="56px" height="56px" viewBox="0 0 56 56" enable-background="new 0 0 56 56" xml:space="preserve">
<g>
	<path fill="#334171" d="M36.739,33.527c-3.176,0-6.103-0.901-8.658-2.705c-7.161-5.054-13.196-5.335-19.577-0.914
		c-0.462,0.316-1.102,0.203-1.421-0.256c-0.317-0.465-0.207-1.103,0.259-1.428c7.094-4.919,14.063-4.621,21.917,0.926
		c6.17,4.353,13.293,1.879,18.192-0.971c0.483-0.277,1.112-0.114,1.396,0.373c0.285,0.491,0.123,1.118-0.366,1.401
		C44.383,32.331,40.4,33.527,36.739,33.527"/>
	<path fill="#334171" d="M36.739,41.271c-3.176,0-6.103-0.899-8.658-2.703c-7.161-5.055-13.196-5.343-19.577-0.916
		c-0.462,0.32-1.102,0.205-1.421-0.257c-0.317-0.466-0.207-1.107,0.259-1.423c7.094-4.921,14.063-4.627,21.917,0.926
		c6.164,4.351,13.293,1.871,18.192-0.967c0.491-0.286,1.112-0.118,1.396,0.36c0.285,0.498,0.123,1.121-0.366,1.406
		C44.383,40.075,40.4,41.271,36.739,41.271"/>
	<path fill="#334171" d="M36.739,25.783c-3.176,0-6.103-0.9-8.658-2.704c-7.161-5.056-13.196-5.337-19.577-0.915
		c-0.462,0.324-1.102,0.203-1.421-0.261c-0.317-0.462-0.207-1.097,0.259-1.419c7.094-4.919,14.063-4.627,21.917,0.92
		c6.164,4.357,13.293,1.879,18.192-0.967c0.491-0.28,1.112-0.115,1.396,0.373c0.285,0.491,0.123,1.114-0.366,1.399
		C44.383,24.586,40.4,25.783,36.739,25.783"/>
</g>
</svg>
