<?xml version="1.0" encoding="utf-8"?>
<!-- Generator: Adobe Illustrator 15.1.0, SVG Export Plug-In . SVG Version: 6.00 Build 0)  -->
<!DOCTYPE svg PUBLIC "-//W3C//DTD SVG 1.1//EN" "http://www.w3.org/Graphics/SVG/1.1/DTD/svg11.dtd">
<svg version="1.1" id="Warstwa_1" xmlns="http://www.w3.org/2000/svg" xmlns:xlink="http://www.w3.org/1999/xlink" x="0px" y="0px"
	 width="56px" height="56px" viewBox="0 0 56 56" enable-background="new 0 0 56 56" xml:space="preserve">
<g>
	<path fill="#334171" d="M45.902,19.357c0.146-0.802,0.225-1.615,0.225-2.434c0-7.375-5.998-13.367-13.367-13.367
		c-4.533,0-8.701,2.271-11.159,6.009c-1.156-0.497-2.398-0.758-3.652-0.758c-5.115,0-9.268,4.159-9.268,9.266
		c0,0.101,0.006,0.202,0.006,0.306c-4.123,1.349-7.003,5.247-7.003,9.68c0,5.615,4.565,10.183,10.182,10.183h5.023
		c1.587,0,1.504-2.648,0-2.648h-5.023c-4.153,0-7.537-3.383-7.537-7.535c0-3.581,2.544-6.693,6.052-7.39l1.252-0.254l-0.204-1.259
		c-0.068-0.398-0.099-0.747-0.099-1.083c0-3.649,2.97-6.615,6.619-6.615c1.213,0,2.408,0.345,3.455,0.987l1.208,0.741l0.657-1.248
		c1.867-3.542,5.501-5.736,9.491-5.736c5.908,0,10.717,4.806,10.717,10.721c0,1.122-0.178,2.236-0.521,3.299l-0.604,1.861
		l2.058-0.135c0.104-0.008,0.21-0.01,0.316-0.01c3.763,0,6.835,3.062,6.835,6.824c0,3.764-3.072,6.832-6.835,6.832h-5.73
		c-1.715,0-1.979,2.648,0,2.648h5.73v-0.004c5.229,0,9.482-4.252,9.482-9.477C54.207,23.931,50.573,19.938,45.902,19.357"/>
	<path fill="#71B7D3" d="M37.297,41.17l-5.082,0.014v0.008c-0.107-0.414-0.272-0.811-0.492-1.17l2.281-2.295
		c0.42-0.426,0.42-1.111-0.004-1.533c-0.427-0.42-1.111-0.416-1.537,0.01l-2.279,2.295c-0.359-0.217-0.756-0.383-1.164-0.482
		l-0.022-5.082c0-0.602-0.487-1.086-1.091-1.08c-0.592,0.002-1.086,0.488-1.074,1.088l0.012,5.082
		c-0.417,0.102-0.803,0.268-1.162,0.486l-2.173-2.156c-0.423-0.426-1.109-0.422-1.535,0c-0.422,0.428-0.422,1.115,0,1.535
		l2.177,2.162l0.005-0.006c-0.216,0.361-0.384,0.758-0.49,1.182c0.008-0.004,0.008-0.006,0.008-0.006l-5.086,0.014
		c-0.598,0-1.081,0.49-1.075,1.092c0,0.6,0.485,1.08,1.084,1.078l5.08-0.021v-0.006c0.109,0.416,0.274,0.812,0.49,1.172l-2.28,2.295
		c-0.422,0.424-0.42,1.121,0.008,1.539c0.208,0.211,0.489,0.314,0.769,0.314c0.276-0.008,0.55-0.111,0.763-0.32l2.28-2.297
		c0.359,0.215,0.755,0.375,1.17,0.48l0.019,5.08c0,0.604,0.491,1.084,1.083,1.08c0.603,0,1.084-0.484,1.082-1.084l-0.014-5.088
		c0.416-0.104,0.813-0.275,1.17-0.488h-0.002l2.168,2.16c0.211,0.215,0.49,0.314,0.768,0.314s0.555-0.107,0.769-0.322
		c0.423-0.426,0.421-1.105-0.003-1.533l-2.177-2.154c0,0,0,0.004-0.005,0.004c0.216-0.361,0.378-0.754,0.484-1.172l5.084-0.021
		c0.592-0.004,1.084-0.486,1.074-1.09C38.377,41.652,37.893,41.164,37.297,41.17 M27.948,43.979
		c-0.935,0.004-1.694-0.75-1.696-1.682c-0.009-0.936,0.751-1.699,1.69-1.705c0.931,0,1.696,0.752,1.696,1.691
		C29.646,43.217,28.887,43.977,27.948,43.979"/>
</g>
</svg>
