<?xml version="1.0" encoding="utf-8"?>
<!-- Generator: Adobe Illustrator 15.1.0, SVG Export Plug-In . SVG Version: 6.00 Build 0)  -->
<!DOCTYPE svg PUBLIC "-//W3C//DTD SVG 1.1//EN" "http://www.w3.org/Graphics/SVG/1.1/DTD/svg11.dtd">
<svg version="1.1" id="Warstwa_1" xmlns="http://www.w3.org/2000/svg" xmlns:xlink="http://www.w3.org/1999/xlink" x="0px" y="0px"
	 width="56px" height="56px" viewBox="0 0 56 56" enable-background="new 0 0 56 56" xml:space="preserve">
<g>
	<g>
		<g>
			<path fill="#F5A714" d="M37.098,7.408c-0.58,0-1.056-0.474-1.056-1.054V3.442c0-0.577,0.476-1.051,1.056-1.051
				c0.575,0,1.048,0.474,1.048,1.051v2.913C38.146,6.934,37.673,7.408,37.098,7.408"/>
			<path fill="#F5A714" d="M49.54,16.974h-2.911c-0.579,0-1.051-0.47-1.051-1.049c0-0.582,0.472-1.053,1.051-1.053h2.911
				c0.578,0,1.056,0.471,1.056,1.053C50.596,16.504,50.118,16.974,49.54,16.974"/>
			<path fill="#F5A714" d="M44.138,10.163c-0.268,0-0.538-0.1-0.739-0.308c-0.413-0.411-0.413-1.078,0-1.487l2.055-2.059
				c0.409-0.409,1.078-0.409,1.489,0c0.408,0.414,0.408,1.082,0,1.491l-2.06,2.055C44.682,10.063,44.408,10.163,44.138,10.163"/>
			<path fill="#F5A714" d="M46.193,25.86c-0.265,0-0.539-0.101-0.74-0.303l-2.057-2.059c-0.411-0.414-0.411-1.077,0-1.491
				c0.412-0.409,1.076-0.409,1.487,0l2.058,2.059c0.41,0.411,0.41,1.077,0,1.491C46.734,25.759,46.465,25.86,46.193,25.86"/>
			<path fill="#F5A714" d="M30.374,10.307c-0.271,0-0.539-0.102-0.745-0.307l-2.058-2.059c-0.409-0.41-0.409-1.076,0-1.484
				c0.409-0.412,1.078-0.412,1.49,0l2.057,2.055c0.409,0.41,0.409,1.074,0,1.488C30.913,10.205,30.64,10.307,30.374,10.307"/>
			<path fill="#F5A714" d="M38.401,9.205c-3.57-0.655-6.994,1.71-7.645,5.281c-0.055,0.308-0.085,0.606-0.092,0.905
				c-0.053,0.443,0.291,0.849,0.771,0.904c0.901,0.113,0.892-0.882,1.002-1.498c0.482-2.637,3.018-4.393,5.656-3.909
				c2.634,0.484,4.394,3.019,3.904,5.651c-0.107,0.605-0.257,1.195-0.611,1.71c-0.45,0.642-1.092,1.155-1.677,1.537
				c-0.492,0.327-0.232,1.102,0.36,1.217c0.71,0.146,1.283-0.373,1.792-0.833c0.618-0.555,1.085-1.286,1.419-2.042
				c0.183-0.406,0.321-0.844,0.404-1.282C44.338,13.279,41.973,9.854,38.401,9.205"/>
		</g>
		<path fill="#334171" d="M40.631,30.254c0.118-0.642,0.182-1.289,0.182-1.944c0-5.868-4.775-10.644-10.646-10.644
			c-3.617,0-6.933,1.808-8.894,4.788c-0.917-0.398-1.908-0.605-2.908-0.605c-4.071,0-7.377,3.313-7.377,7.382v0.244
			c-3.284,1.079-5.584,4.181-5.584,7.707c0,4.477,3.645,8.119,8.121,8.119h3.994c1.272,0,1.201-2.114,0-2.114h-3.994
			c-3.314,0-6.008-2.692-6.008-6.005c0-2.847,2.027-5.326,4.821-5.884l0.997-0.2l-0.164-1.006c-0.05-0.315-0.073-0.595-0.073-0.861
			c0-2.907,2.362-5.27,5.267-5.27c0.968,0,1.919,0.273,2.756,0.787l0.965,0.59l0.521-0.996c1.485-2.816,4.379-4.563,7.56-4.563
			c4.708,0,8.535,3.826,8.535,8.533c0,0.897-0.143,1.782-0.415,2.637l-0.48,1.479l1.635-0.107c0.085-0.006,0.172-0.014,0.257-0.014
			c2.997,0,5.44,2.441,5.44,5.44c0,3.002-2.443,5.441-5.44,5.441h-4.563c-1.364,0-1.582,2.114,0,2.114h4.563
			c4.165,0,7.55-3.391,7.55-7.556C47.248,33.897,44.356,30.711,40.631,30.254"/>
	</g>
	<g>
		<path fill="#1B86D0" d="M22.029,53.609c-0.099,0-0.197-0.021-0.296-0.062c-0.381-0.164-0.562-0.604-0.399-0.988l5.297-12.479
			c0.162-0.384,0.605-0.562,0.99-0.4c0.382,0.164,0.562,0.606,0.4,0.99l-5.299,12.479C22.602,53.436,22.323,53.609,22.029,53.609"/>
		<path fill="#1B86D0" d="M26.906,50.306c-0.095,0-0.194-0.021-0.29-0.06c-0.384-0.157-0.569-0.598-0.409-0.984l3.753-9.099
			c0.156-0.384,0.599-0.567,0.983-0.41c0.386,0.158,0.568,0.601,0.412,0.983l-3.753,9.104
			C27.482,50.127,27.201,50.306,26.906,50.306"/>
		<path fill="#1B86D0" d="M20.019,50.306c-0.098,0-0.195-0.021-0.289-0.06c-0.384-0.157-0.568-0.598-0.407-0.984l3.749-9.099
			c0.157-0.384,0.601-0.567,0.985-0.41c0.385,0.158,0.569,0.601,0.409,0.983l-3.751,9.104
			C20.597,50.127,20.315,50.306,20.019,50.306"/>
	</g>
</g>
</svg>
