<?xml version="1.0" encoding="utf-8"?>
<!-- Generator: Adobe Illustrator 15.1.0, SVG Export Plug-In . SVG Version: 6.00 Build 0)  -->
<!DOCTYPE svg PUBLIC "-//W3C//DTD SVG 1.1//EN" "http://www.w3.org/Graphics/SVG/1.1/DTD/svg11.dtd">
<svg version="1.1" id="Warstwa_1" xmlns="http://www.w3.org/2000/svg" xmlns:xlink="http://www.w3.org/1999/xlink" x="0px" y="0px"
	 width="56px" height="56px" viewBox="0 0 56 56" enable-background="new 0 0 56 56" xml:space="preserve">
<g>
	<path fill="#1B86D0" d="M20.544,54.342c-0.174,0-0.346-0.035-0.52-0.107c-0.669-0.289-0.986-1.061-0.701-1.733l9.303-21.918
		c0.285-0.676,1.062-0.987,1.737-0.705c0.673,0.289,0.99,1.065,0.703,1.74l-9.304,21.916C21.55,54.037,21.06,54.342,20.544,54.342"
		/>
	<path fill="#1B86D0" d="M29.109,48.541c-0.168,0-0.342-0.037-0.51-0.105c-0.674-0.274-1-1.051-0.719-1.729l6.592-15.98
		c0.273-0.674,1.051-0.996,1.728-0.721c0.678,0.279,0.998,1.055,0.725,1.729l-6.592,15.988
		C30.122,48.227,29.628,48.541,29.109,48.541"/>
	<path fill="#1B86D0" d="M17.013,48.541c-0.172,0-0.344-0.037-0.508-0.105c-0.674-0.274-0.998-1.051-0.715-1.729l6.584-15.98
		c0.276-0.674,1.055-0.996,1.731-0.721c0.676,0.279,1,1.055,0.719,1.729l-6.588,15.988C18.029,48.227,17.534,48.541,17.013,48.541"
		/>
	<path fill="#334171" d="M45.958,17.46c0.147-0.805,0.228-1.618,0.228-2.441c0-7.367-5.994-13.362-13.363-13.362
		c-4.541,0-8.703,2.269-11.164,6.01c-1.152-0.5-2.396-0.76-3.652-0.76c-5.11,0-9.26,4.16-9.26,9.268v0.306
		c-4.123,1.355-7.01,5.247-7.01,9.674c0,5.621,4.575,10.193,10.194,10.193h5.015c1.598,0,1.508-2.654,0-2.654H11.93
		c-4.16,0-7.541-3.379-7.541-7.539c0-3.574,2.545-6.686,6.052-7.386l1.252-0.252l-0.205-1.262c-0.064-0.396-0.093-0.746-0.093-1.08
		c0-3.649,2.966-6.617,6.611-6.617c1.215,0,2.41,0.343,3.461,0.988l1.211,0.741l0.654-1.251c1.865-3.535,5.498-5.729,9.49-5.729
		c5.91,0,10.715,4.803,10.715,10.712c0,1.128-0.18,2.238-0.521,3.31l-0.604,1.857l2.053-0.135c0.107-0.008,0.217-0.018,0.322-0.018
		c3.764,0,6.83,3.064,6.83,6.829c0,3.77-3.066,6.832-6.83,6.832h-5.729c-1.713,0-1.986,2.654,0,2.654h5.729
		c5.229,0,9.479-4.257,9.479-9.486C54.266,22.034,50.634,18.035,45.958,17.46"/>
</g>
</svg>
