<?xml version="1.0" encoding="utf-8"?>
<!-- Generator: Adobe Illustrator 15.1.0, SVG Export Plug-In . SVG Version: 6.00 Build 0)  -->
<!DOCTYPE svg PUBLIC "-//W3C//DTD SVG 1.1//EN" "http://www.w3.org/Graphics/SVG/1.1/DTD/svg11.dtd">
<svg version="1.1" id="Warstwa_1" xmlns="http://www.w3.org/2000/svg" xmlns:xlink="http://www.w3.org/1999/xlink" x="0px" y="0px"
	 width="56px" height="56px" viewBox="0 0 56 56" enable-background="new 0 0 56 56" xml:space="preserve">
<g>
	<g>
		<g>
			<g>
				<g>
					<path fill="#F5A714" d="M37.098,7.275c-0.58,0-1.056-0.474-1.056-1.054V3.309c0-0.577,0.476-1.052,1.056-1.052
						c0.575,0,1.048,0.475,1.048,1.052v2.912C38.146,6.801,37.673,7.275,37.098,7.275"/>
					<path fill="#F5A714" d="M49.54,16.841h-2.911c-0.579,0-1.051-0.471-1.051-1.05c0-0.582,0.472-1.053,1.051-1.053h2.911
						c0.578,0,1.056,0.471,1.056,1.053C50.596,16.371,50.118,16.841,49.54,16.841"/>
					<path fill="#F5A714" d="M44.138,10.03c-0.268,0-0.538-0.1-0.739-0.309c-0.413-0.411-0.413-1.078,0-1.486l2.055-2.059
						c0.409-0.409,1.078-0.409,1.489,0c0.408,0.414,0.408,1.081,0,1.49l-2.06,2.055C44.682,9.93,44.408,10.03,44.138,10.03"/>
					<path fill="#F5A714" d="M46.193,25.727c-0.265,0-0.539-0.101-0.74-0.304l-2.057-2.059c-0.411-0.413-0.411-1.077,0-1.49
						c0.412-0.409,1.076-0.409,1.487,0l2.058,2.059c0.41,0.411,0.41,1.077,0,1.49C46.734,25.626,46.465,25.727,46.193,25.727"/>
					<path fill="#F5A714" d="M30.374,10.173c-0.271,0-0.539-0.102-0.745-0.307l-2.058-2.059c-0.409-0.41-0.409-1.076,0-1.484
						c0.409-0.412,1.078-0.412,1.49,0l2.057,2.055c0.409,0.41,0.409,1.074,0,1.488C30.913,10.072,30.64,10.173,30.374,10.173"/>
					<path fill="#F5A714" d="M38.401,9.072c-3.57-0.654-6.994,1.711-7.645,5.281c-0.055,0.308-0.085,0.606-0.092,0.905
						c-0.053,0.442,0.291,0.849,0.771,0.903c0.901,0.113,0.892-0.882,1.002-1.497c0.482-2.637,3.018-4.393,5.656-3.909
						c2.634,0.484,4.394,3.019,3.904,5.651c-0.107,0.605-0.257,1.195-0.611,1.711c-0.45,0.642-1.092,1.154-1.677,1.536
						c-0.492,0.327-0.232,1.102,0.36,1.217c0.71,0.146,1.283-0.372,1.792-0.832c0.618-0.556,1.085-1.286,1.419-2.042
						c0.183-0.406,0.321-0.844,0.404-1.281C44.338,13.146,41.973,9.721,38.401,9.072"/>
				</g>
				<path fill="#334171" d="M40.631,30.121c0.118-0.642,0.182-1.289,0.182-1.945c0-5.868-4.775-10.644-10.646-10.644
					c-3.617,0-6.933,1.808-8.894,4.787c-0.917-0.398-1.908-0.605-2.908-0.605c-4.071,0-7.377,3.313-7.377,7.382v0.244
					c-3.284,1.079-5.584,4.181-5.584,7.708c0,4.477,3.645,8.119,8.121,8.119h3.994c1.272,0,1.201-2.115,0-2.115h-3.994
					c-3.314,0-6.008-2.691-6.008-6.004c0-2.848,2.027-5.326,4.821-5.885l0.997-0.199l-0.164-1.007
					c-0.05-0.315-0.073-0.595-0.073-0.861c0-2.907,2.362-5.27,5.267-5.27c0.968,0,1.919,0.272,2.756,0.787l0.965,0.59l0.521-0.996
					c1.485-2.816,4.379-4.563,7.56-4.563c4.708,0,8.535,3.825,8.535,8.532c0,0.898-0.143,1.783-0.415,2.638l-0.48,1.479l1.635-0.107
					c0.085-0.006,0.172-0.014,0.257-0.014c2.997,0,5.44,2.441,5.44,5.439c0,3.002-2.443,5.441-5.44,5.441h-4.563
					c-1.364,0-1.582,2.115,0,2.115h4.563c4.165,0,7.55-3.391,7.55-7.557C47.248,33.766,44.356,30.578,40.631,30.121"/>
			</g>
		</g>
	</g>
	<path fill="#71B7D3" d="M31.024,48.158c0.406-0.534,0.306-1.291-0.225-1.701c-0.528-0.403-1.29-0.304-1.7,0.228
		c-0.403,0.528-0.306,1.289,0.229,1.695C29.854,48.789,30.616,48.688,31.024,48.158"/>
	<path fill="#71B7D3" d="M23.552,48.158c0.408-0.534,0.307-1.295-0.221-1.701c-0.536-0.403-1.296-0.304-1.704,0.228
		c-0.406,0.528-0.306,1.289,0.224,1.695C22.386,48.789,23.146,48.688,23.552,48.158"/>
	<path fill="#71B7D3" d="M27.287,53.267c0.406-0.531,0.307-1.288-0.226-1.698c-0.531-0.408-1.29-0.304-1.696,0.227
		c-0.408,0.53-0.305,1.291,0.225,1.697C26.122,53.9,26.879,53.8,27.287,53.267"/>
	<path fill="#71B7D3" d="M27.287,43.046c0.406-0.533,0.307-1.292-0.226-1.698c-0.531-0.408-1.29-0.307-1.696,0.226
		c-0.408,0.528-0.305,1.288,0.225,1.694C26.122,43.676,26.879,43.578,27.287,43.046"/>
</g>
</svg>
