<?xml version="1.0" encoding="utf-8"?>
<!-- Generator: Adobe Illustrator 15.1.0, SVG Export Plug-In . SVG Version: 6.00 Build 0)  -->
<!DOCTYPE svg PUBLIC "-//W3C//DTD SVG 1.1//EN" "http://www.w3.org/Graphics/SVG/1.1/DTD/svg11.dtd">
<svg version="1.1" id="Warstwa_1" xmlns="http://www.w3.org/2000/svg" xmlns:xlink="http://www.w3.org/1999/xlink" x="0px" y="0px"
	 width="56px" height="56px" viewBox="0 0 56 56" enable-background="new 0 0 56 56" xml:space="preserve">
<g>
	<path fill="#F5A714" d="M31.083,10.484c-0.733,0-1.326-0.59-1.326-1.326V4.197c0-0.73,0.593-1.322,1.326-1.322
		c0.728,0,1.323,0.592,1.323,1.322v4.961C32.406,9.895,31.811,10.484,31.083,10.484"/>
	<path fill="#F5A714" d="M14.815,26.791H9.851c-0.731,0-1.322-0.592-1.322-1.324c0-0.729,0.591-1.321,1.322-1.321h4.965
		c0.727,0,1.324,0.593,1.324,1.321C16.14,26.199,15.542,26.791,14.815,26.791"/>
	<path fill="#F5A714" d="M52.312,26.793h-4.961c-0.733,0-1.329-0.594-1.329-1.326c0-0.729,0.596-1.322,1.329-1.322h4.961
		c0.728,0,1.321,0.594,1.321,1.322C53.633,26.199,53.039,26.793,52.312,26.793"/>
	<path fill="#F5A714" d="M43.1,15.172c-0.339,0-0.68-0.129-0.934-0.387c-0.519-0.516-0.519-1.355,0-1.873l3.502-3.504
		c0.522-0.52,1.358-0.52,1.873,0c0.52,0.516,0.52,1.355,0,1.869l-3.504,3.508C43.776,15.043,43.437,15.172,43.1,15.172"/>
	<path fill="#F5A714" d="M46.61,41.953c-0.341,0-0.681-0.125-0.94-0.387l-3.502-3.508c-0.521-0.516-0.521-1.354,0-1.873
		c0.514-0.52,1.346-0.52,1.868,0l3.507,3.512c0.518,0.512,0.518,1.354,0,1.869C47.284,41.828,46.95,41.953,46.61,41.953"/>
	<path fill="#F5A714" d="M19.613,15.42c-0.336,0-0.676-0.131-0.939-0.389l-3.502-3.51c-0.522-0.516-0.522-1.352,0-1.869
		c0.519-0.518,1.349-0.518,1.873,0l3.505,3.506c0.514,0.52,0.514,1.352,0,1.873C20.286,15.289,19.948,15.42,19.613,15.42"/>
	<path fill="#334171" d="M28.992,53.402H8.979c-3.711,0-6.722-3.021-6.722-6.723c0-2.793,1.737-5.264,4.265-6.26
		c0.096-3.312,2.818-5.984,6.158-5.984c0.692,0,1.381,0.121,2.031,0.354c1.611-2.219,4.195-3.551,6.989-3.551
		c4.774,0,8.655,3.885,8.655,8.658c0,0.354-0.02,0.709-0.061,1.059c2.84,0.602,4.985,3.133,4.985,6.154
		C35.281,50.578,32.457,53.402,28.992,53.402 M12.681,37.086c-1.937,0-3.515,1.572-3.515,3.514c0,0.175,0.023,0.355,0.058,0.566
		l0.208,1.268l-1.26,0.252c-1.89,0.377-3.268,2.057-3.268,3.994c0,2.244,1.828,4.072,4.075,4.072h20.013
		c2.006,0,3.645-1.635,3.645-3.643s-1.639-3.645-3.645-3.645c-0.058,0-0.115,0.006-0.168,0.01l-1.968,0.137l0.562-1.863
		c0.197-0.6,0.291-1.224,0.291-1.852c0-3.312-2.694-6.014-6.008-6.014c-2.239,0-4.278,1.236-5.318,3.217l-0.659,1.252l-1.208-0.742
		C13.963,37.266,13.326,37.086,12.681,37.086"/>
	<path fill="#F5A714" d="M43.081,25.467c0-6.629-5.374-12-11.998-12c-6.627,0-12.006,5.371-12.006,12
		c0,0.688,0.062,1.355,0.178,2.008c0.044,0.764,0.678,1.352,1.419,1.312c0.418-0.02,0.978-0.254,1.134-0.65
		c0.184-0.481,0.066-1.049,0-1.541c-0.054-0.377-0.077-0.75-0.077-1.129c0-5.154,4.195-9.352,9.353-9.352
		c5.154,0,9.349,4.197,9.349,9.352c0,0.396-0.063,0.797-0.11,1.184c-0.052,0.393-0.112,0.777-0.197,1.156
		c-0.176,0.746-0.457,1.469-0.83,2.138c-0.366,0.669-0.817,1.293-1.331,1.858c-0.506,0.56-1.085,1.051-1.726,1.449
		c-0.664,0.412-1.38,0.721-2.097,1.012c-0.295,0.125-0.629,0.135-0.914,0.279c-0.272,0.135-0.5,0.403-0.614,0.678
		c-0.07,0.156-0.104,0.346-0.104,0.514c0,0.744,0.616,1.346,1.389,1.357c0.006,0,0.011,0.004,0.017,0
		C39.089,36.062,43.081,31.117,43.081,25.467"/>
</g>
</svg>
