<?xml version="1.0" encoding="utf-8"?>
<!-- Generator: Adobe Illustrator 15.1.0, SVG Export Plug-In . SVG Version: 6.00 Build 0)  -->
<!DOCTYPE svg PUBLIC "-//W3C//DTD SVG 1.1//EN" "http://www.w3.org/Graphics/SVG/1.1/DTD/svg11.dtd">
<svg version="1.1" id="Warstwa_1" xmlns="http://www.w3.org/2000/svg" xmlns:xlink="http://www.w3.org/1999/xlink" x="0px" y="0px"
	 width="56px" height="56px" viewBox="0 0 56 56" enable-background="new 0 0 56 56" xml:space="preserve">
<g>
	<path fill="#334171" d="M45.972,17.622c0.143-0.805,0.225-1.62,0.225-2.445c0-7.398-6.02-13.414-13.412-13.414
		c-4.553,0-8.732,2.282-11.204,6.03c-1.156-0.498-2.398-0.756-3.665-0.756c-5.126,0-9.298,4.172-9.298,9.297
		c0,0.102,0.003,0.203,0.003,0.307c-4.133,1.356-7.027,5.268-7.027,9.708c0,5.641,4.585,10.224,10.226,10.224h5.033
		c1.602,0,1.513-2.66,0-2.66h-5.033c-4.172,0-7.563-3.387-7.563-7.563c0-3.588,2.554-6.711,6.07-7.413l1.261-0.25l-0.21-1.27
		c-0.066-0.396-0.099-0.754-0.099-1.083c0-3.661,2.976-6.639,6.638-6.639c1.223,0,2.424,0.342,3.472,0.99l1.216,0.744l0.66-1.254
		c1.868-3.55,5.517-5.753,9.521-5.753c5.924,0,10.752,4.823,10.752,10.755c0,1.132-0.18,2.247-0.52,3.316l-0.611,1.868l2.065-0.139
		c0.104-0.006,0.21-0.02,0.323-0.02c3.775,0,6.854,3.073,6.854,6.858c0,3.78-3.078,6.852-6.854,6.852h-5.756
		c-1.721,0-1.982,2.66,0,2.66h5.756c5.24,0,9.504-4.269,9.504-9.512C54.298,22.215,50.661,18.203,45.972,17.622"/>
	<path fill="#71B7D3" d="M29.491,53.697c0.695-0.907,0.523-2.204-0.387-2.905c-0.91-0.698-2.209-0.521-2.903,0.387
		c-0.698,0.908-0.521,2.211,0.384,2.906C27.496,54.783,28.791,54.611,29.491,53.697"/>
	<path fill="#71B7D3" d="M29.491,36.207c0.695-0.913,0.523-2.213-0.387-2.908c-0.91-0.697-2.209-0.524-2.903,0.387
		c-0.698,0.904-0.521,2.205,0.384,2.9C27.496,37.285,28.791,37.116,29.491,36.207"/>
	<path fill="#71B7D3" d="M25.658,42.004l-2.221,0.006v0.003c-0.047-0.181-0.119-0.354-0.215-0.511l0.997-1.003
		c0.184-0.187,0.184-0.486-0.002-0.67c-0.186-0.184-0.485-0.183-0.671,0.004l-0.996,1.003c-0.157-0.095-0.33-0.167-0.509-0.211
		l-0.01-2.221c0-0.263-0.213-0.475-0.477-0.472c-0.259,0.001-0.475,0.213-0.469,0.476l0.005,2.221
		c-0.182,0.044-0.351,0.116-0.508,0.212l-0.949-0.942c-0.185-0.186-0.484-0.184-0.671,0c-0.184,0.188-0.184,0.487,0,0.671
		l0.952,0.945l0.002-0.003c-0.094,0.158-0.168,0.331-0.214,0.517c0.004-0.002,0.004-0.003,0.004-0.003l-2.223,0.006
		c-0.261,0-0.472,0.215-0.47,0.478c0,0.262,0.212,0.472,0.474,0.471l2.22-0.009v-0.003c0.048,0.182,0.12,0.355,0.214,0.512
		l-0.997,1.003c-0.184,0.186-0.183,0.49,0.003,0.673c0.091,0.092,0.214,0.138,0.336,0.138c0.121-0.004,0.24-0.049,0.333-0.141
		l0.996-1.003c0.157,0.094,0.33,0.163,0.511,0.21l0.008,2.22c0,0.264,0.214,0.474,0.473,0.472c0.263,0,0.474-0.212,0.473-0.474
		l-0.006-2.224c0.182-0.045,0.355-0.12,0.511-0.213h-0.001l0.947,0.943c0.092,0.095,0.214,0.138,0.335,0.138
		s0.243-0.047,0.336-0.141c0.185-0.187,0.184-0.483-0.001-0.67l-0.951-0.941c0,0,0,0.002-0.002,0.002
		c0.094-0.158,0.165-0.33,0.211-0.513l2.222-0.009c0.259-0.002,0.474-0.213,0.469-0.477C26.13,42.214,25.918,42.001,25.658,42.004
		 M21.573,43.23c-0.409,0.002-0.741-0.327-0.741-0.734c-0.004-0.409,0.328-0.743,0.738-0.745c0.407,0,0.741,0.328,0.741,0.739
		C22.315,42.897,21.983,43.229,21.573,43.23"/>
	<path fill="#71B7D3" d="M37.931,43.925l-2.221,0.006v0.003c-0.047-0.181-0.119-0.354-0.216-0.511l0.998-1.003
		c0.184-0.187,0.184-0.486-0.002-0.67c-0.187-0.184-0.486-0.183-0.672,0.004l-0.996,1.003c-0.157-0.095-0.33-0.167-0.509-0.211
		l-0.01-2.221c0-0.263-0.213-0.475-0.477-0.472c-0.259,0.001-0.475,0.213-0.47,0.476l0.006,2.221
		c-0.182,0.044-0.352,0.116-0.508,0.212l-0.949-0.942c-0.186-0.186-0.484-0.184-0.672,0c-0.184,0.188-0.184,0.487,0,0.671
		l0.952,0.945l0.002-0.003c-0.095,0.158-0.168,0.331-0.214,0.517c0.004-0.002,0.004-0.003,0.004-0.003l-2.223,0.006
		c-0.262,0-0.473,0.215-0.471,0.478c0,0.262,0.213,0.472,0.475,0.471l2.219-0.009v-0.003c0.049,0.182,0.12,0.355,0.215,0.512
		l-0.996,1.003c-0.185,0.186-0.184,0.49,0.003,0.673c0.091,0.092,0.214,0.138,0.337,0.138c0.12-0.004,0.24-0.049,0.333-0.141
		l0.996-1.003c0.157,0.094,0.33,0.163,0.511,0.21l0.009,2.22c0,0.264,0.214,0.474,0.474,0.472c0.263,0,0.473-0.212,0.473-0.474
		l-0.006-2.224c0.182-0.045,0.355-0.12,0.511-0.213h-0.001l0.947,0.943c0.092,0.095,0.215,0.138,0.336,0.138
		s0.242-0.047,0.336-0.141c0.184-0.187,0.184-0.483-0.002-0.67l-0.951-0.941c0,0,0,0.002-0.002,0.002
		c0.094-0.158,0.165-0.33,0.211-0.513l2.223-0.009c0.258-0.002,0.473-0.213,0.469-0.477C38.402,44.135,38.191,43.922,37.931,43.925
		 M33.846,45.151c-0.408,0.002-0.74-0.327-0.741-0.734c-0.004-0.409,0.328-0.743,0.738-0.745c0.407,0,0.741,0.328,0.741,0.739
		C34.588,44.818,34.256,45.15,33.846,45.151"/>
</g>
</svg>
