<?xml version="1.0" encoding="utf-8"?>
<!-- Generator: Adobe Illustrator 15.1.0, SVG Export Plug-In . SVG Version: 6.00 Build 0)  -->
<!DOCTYPE svg PUBLIC "-//W3C//DTD SVG 1.1//EN" "http://www.w3.org/Graphics/SVG/1.1/DTD/svg11.dtd">
<svg version="1.1" id="Warstwa_1" xmlns="http://www.w3.org/2000/svg" xmlns:xlink="http://www.w3.org/1999/xlink" x="0px" y="0px"
	 width="56px" height="56px" viewBox="0 0 56 56" enable-background="new 0 0 56 56" xml:space="preserve">
<g>
	<g>
		<g>
			<g>
				<path fill="#F5A714" d="M37.098,7.871c-0.58,0-1.056-0.474-1.056-1.054V3.905c0-0.577,0.476-1.052,1.056-1.052
					c0.575,0,1.049,0.475,1.049,1.052v2.912C38.146,7.397,37.673,7.871,37.098,7.871"/>
				<path fill="#F5A714" d="M49.54,17.438h-2.911c-0.579,0-1.051-0.471-1.051-1.05c0-0.582,0.472-1.053,1.051-1.053h2.911
					c0.578,0,1.056,0.471,1.056,1.053C50.596,16.967,50.118,17.438,49.54,17.438"/>
				<path fill="#F5A714" d="M44.139,10.626c-0.269,0-0.539-0.1-0.74-0.309c-0.412-0.411-0.412-1.078,0-1.486l2.057-2.059
					c0.408-0.409,1.078-0.409,1.488,0c0.408,0.414,0.408,1.081,0,1.49l-2.061,2.055C44.682,10.526,44.408,10.626,44.139,10.626"/>
				<path fill="#F5A714" d="M46.193,26.323c-0.267,0-0.539-0.101-0.74-0.304l-2.057-2.059c-0.412-0.413-0.412-1.077,0-1.49
					c0.412-0.409,1.076-0.409,1.485,0l2.06,2.059c0.41,0.411,0.41,1.077,0,1.49C46.734,26.223,46.465,26.323,46.193,26.323"/>
				<path fill="#F5A714" d="M30.374,10.77c-0.271,0-0.539-0.102-0.745-0.307l-2.058-2.059c-0.409-0.41-0.409-1.076,0-1.484
					c0.409-0.412,1.078-0.412,1.49,0l2.059,2.055c0.408,0.41,0.408,1.074,0,1.488C30.913,10.668,30.641,10.77,30.374,10.77"/>
				<path fill="#F5A714" d="M38.4,9.668c-3.569-0.654-6.993,1.711-7.646,5.281c-0.055,0.308-0.085,0.606-0.092,0.905
					c-0.054,0.442,0.291,0.849,0.771,0.903c0.9,0.113,0.893-0.882,1.002-1.497c0.481-2.637,3.019-4.393,5.655-3.909
					c2.634,0.484,4.394,3.019,3.904,5.651c-0.106,0.605-0.257,1.195-0.61,1.711c-0.451,0.642-1.093,1.154-1.678,1.536
					c-0.492,0.327-0.232,1.102,0.359,1.217c0.711,0.146,1.283-0.372,1.793-0.832c0.617-0.556,1.084-1.286,1.418-2.042
					c0.184-0.406,0.322-0.844,0.404-1.281C44.338,13.742,41.973,10.317,38.4,9.668"/>
			</g>
			<path fill="#334171" d="M40.631,30.717c0.118-0.642,0.182-1.289,0.182-1.943c0-5.869-4.773-10.645-10.646-10.645
				c-3.617,0-6.933,1.808-8.894,4.787c-0.917-0.398-1.908-0.605-2.908-0.605c-4.071,0-7.377,3.313-7.377,7.382v0.244
				c-3.284,1.078-5.584,4.181-5.584,7.707c0,4.478,3.645,8.119,8.121,8.119h3.994c1.272,0,1.201-2.115,0-2.115h-3.994
				c-3.314,0-6.008-2.69-6.008-6.004c0-2.849,2.027-5.326,4.821-5.886l0.997-0.198l-0.164-1.006
				c-0.05-0.316-0.073-0.597-0.073-0.861c0-2.906,2.362-5.271,5.267-5.271c0.968,0,1.919,0.272,2.756,0.787l0.965,0.59l0.521-0.996
				c1.485-2.816,4.379-4.562,7.56-4.562c4.708,0,8.535,3.825,8.535,8.531c0,0.896-0.144,1.781-0.415,2.639l-0.48,1.479l1.635-0.106
				c0.086-0.007,0.172-0.015,0.259-0.015c2.995,0,5.438,2.44,5.438,5.438c0,3.002-2.443,5.44-5.438,5.44h-4.563
				c-1.363,0-1.58,2.114,0,2.114H39.7c4.163,0,7.55-3.391,7.55-7.557C47.248,34.361,44.355,31.174,40.631,30.717"/>
		</g>
	</g>
</g>
<path fill="#71B7D3" d="M29.646,53.641c0.513-0.671,0.386-1.63-0.286-2.148c-0.674-0.516-1.634-0.385-2.146,0.287
	c-0.517,0.671-0.386,1.635,0.284,2.147C28.17,54.443,29.127,54.316,29.646,53.641"/>
<path fill="#71B7D3" d="M29.646,41.709c0.513-0.675,0.386-1.637-0.286-2.15c-0.674-0.516-1.634-0.387-2.146,0.286
	c-0.517,0.668-0.386,1.63,0.284,2.145C28.17,42.506,29.127,42.381,29.646,41.709"/>
<path fill="#71B7D3" d="M26.812,45.995l-1.643,0.004v0.003c-0.035-0.134-0.088-0.262-0.159-0.378l0.737-0.742
	c0.136-0.138,0.136-0.358-0.001-0.495c-0.137-0.137-0.358-0.135-0.496,0.003l-0.736,0.741c-0.116-0.069-0.244-0.123-0.376-0.155
	l-0.007-1.643c0-0.194-0.158-0.351-0.353-0.349c-0.191,0.001-0.351,0.157-0.347,0.352l0.003,1.643
	c-0.134,0.032-0.26,0.086-0.375,0.156l-0.702-0.696c-0.137-0.138-0.358-0.136-0.496,0c-0.136,0.139-0.136,0.36,0,0.496l0.704,0.699
	l0.001-0.003c-0.07,0.117-0.125,0.245-0.158,0.383c0.003-0.002,0.003-0.003,0.003-0.003l-1.644,0.005
	c-0.193,0-0.349,0.159-0.347,0.354c0,0.193,0.157,0.35,0.35,0.348l1.642-0.006v-0.003c0.036,0.135,0.089,0.263,0.158,0.379
	l-0.737,0.742c-0.136,0.137-0.135,0.362,0.002,0.497c0.067,0.068,0.158,0.102,0.249,0.102c0.089-0.003,0.177-0.036,0.246-0.104
	l0.736-0.742c0.116,0.07,0.244,0.121,0.378,0.156l0.006,1.641c0,0.196,0.158,0.351,0.35,0.349c0.195,0,0.351-0.156,0.35-0.35
	l-0.005-1.645c0.135-0.033,0.263-0.09,0.378-0.157h0l0.7,0.696c0.068,0.07,0.159,0.103,0.248,0.103s0.18-0.035,0.249-0.104
	c0.136-0.139,0.136-0.356-0.001-0.495l-0.703-0.696c0,0,0,0.002-0.001,0.002c0.069-0.117,0.122-0.244,0.156-0.379l1.643-0.007
	c0.191-0.002,0.35-0.157,0.346-0.353C27.16,46.15,27.003,45.993,26.812,45.995 M23.791,46.901c-0.303,0.002-0.548-0.242-0.548-0.543
	c-0.003-0.302,0.242-0.549,0.545-0.551c0.301,0,0.548,0.243,0.548,0.547C24.339,46.655,24.094,46.9,23.791,46.901"/>
<path fill="#71B7D3" d="M35.886,47.415l-1.643,0.005v0.002c-0.034-0.134-0.088-0.262-0.159-0.378l0.737-0.741
	c0.136-0.139,0.136-0.36-0.001-0.496c-0.139-0.136-0.359-0.136-0.497,0.003l-0.736,0.742c-0.116-0.07-0.244-0.124-0.377-0.156
	l-0.007-1.642c0-0.194-0.158-0.352-0.353-0.349c-0.192,0-0.351,0.157-0.349,0.352l0.005,1.642c-0.134,0.032-0.261,0.086-0.376,0.156
	l-0.701-0.695c-0.137-0.138-0.357-0.136-0.497,0c-0.136,0.139-0.136,0.359,0,0.496l0.704,0.698l0.002-0.002
	c-0.07,0.116-0.124,0.244-0.158,0.382c0.002-0.001,0.002-0.002,0.002-0.002l-1.643,0.005c-0.193,0-0.35,0.158-0.348,0.354
	c0,0.193,0.156,0.348,0.35,0.348l1.641-0.007v-0.002c0.037,0.135,0.09,0.263,0.159,0.379l-0.736,0.74
	c-0.136,0.139-0.136,0.362,0.003,0.498c0.066,0.068,0.158,0.103,0.249,0.103c0.089-0.003,0.177-0.036,0.246-0.104l0.737-0.741
	c0.115,0.069,0.243,0.12,0.377,0.155l0.006,1.641c0,0.195,0.16,0.352,0.352,0.35c0.194,0,0.35-0.157,0.35-0.351l-0.004-1.645
	c0.134-0.033,0.263-0.088,0.377-0.157h-0.001l0.701,0.697c0.067,0.07,0.158,0.103,0.248,0.103s0.179-0.035,0.248-0.104
	c0.136-0.139,0.136-0.357-0.001-0.496L34.09,48.5c0,0,0,0.002-0.002,0.002c0.069-0.117,0.122-0.244,0.156-0.38l1.644-0.007
	c0.19-0.001,0.35-0.157,0.347-0.353C36.234,47.57,36.078,47.413,35.886,47.415 M32.865,48.321c-0.303,0.001-0.548-0.241-0.548-0.542
	c-0.003-0.303,0.243-0.55,0.546-0.551c0.301,0,0.548,0.242,0.548,0.546C33.414,48.076,33.168,48.321,32.865,48.321"/>
</svg>
