<?xml version="1.0" encoding="utf-8"?>
<!-- Generator: Adobe Illustrator 15.1.0, SVG Export Plug-In . SVG Version: 6.00 Build 0)  -->
<!DOCTYPE svg PUBLIC "-//W3C//DTD SVG 1.1//EN" "http://www.w3.org/Graphics/SVG/1.1/DTD/svg11.dtd">
<svg version="1.1" id="Warstwa_1" xmlns="http://www.w3.org/2000/svg" xmlns:xlink="http://www.w3.org/1999/xlink" x="0px" y="0px"
	 width="56px" height="56px" viewBox="0 0 56 56" enable-background="new 0 0 56 56" xml:space="preserve">
<g>
	<path fill="#334171" d="M44.785,45.345H11.928c-5.616,0-10.19-4.57-10.19-10.191c0-4.424,2.884-8.321,7.005-9.674
		c0-0.1-0.003-0.203-0.003-0.303c0-5.104,4.159-9.27,9.264-9.27c1.264,0,2.502,0.264,3.648,0.762
		c2.466-3.742,6.634-6.014,11.167-6.014c7.373,0,13.367,5.998,13.367,13.365c0,0.824-0.078,1.637-0.225,2.434
		c4.672,0.584,8.301,4.582,8.301,9.406C54.262,41.091,50.016,45.345,44.785,45.345 M18.004,18.562c-3.648,0-6.611,2.965-6.611,6.615
		c0,0.328,0.028,0.684,0.094,1.074l0.207,1.266l-1.252,0.248c-3.509,0.703-6.053,3.814-6.053,7.389c0,4.16,3.379,7.541,7.539,7.541
		h32.857c3.762-0.006,6.834-3.064,6.834-6.834c0-3.764-3.072-6.83-6.834-6.83c-0.115,0-0.219,0.011-0.328,0.02l-2.047,0.137
		l0.609-1.863c0.338-1.064,0.516-2.176,0.516-3.303c0-5.908-4.805-10.715-10.717-10.715c-3.988,0-7.625,2.193-9.481,5.732
		l-0.665,1.25l-1.205-0.744C20.417,18.899,19.223,18.562,18.004,18.562"/>
	<path fill="#334171" d="M28.971,34.853c-0.732,0-1.324-0.594-1.324-1.328c0-1.877,0.107-3.23,1.558-4.848
		c0.281-0.314,0.588-0.623,0.896-0.936c1.182-1.186,1.891-1.982,1.846-3.051c-0.053-1.15-0.711-1.9-1.955-2.242
		c-1.033-0.27-2.304,0.092-3.019,0.879c-0.375,0.428-0.613,1.133-0.576,1.764c0.053,0.727-0.506,1.357-1.235,1.402
		c-0.735,0.046-1.361-0.51-1.403-1.236c-0.084-1.338,0.399-2.756,1.253-3.699c1.383-1.533,3.655-2.203,5.665-1.662
		c2.344,0.635,3.811,2.381,3.912,4.678c0.111,2.3-1.402,3.818-2.609,5.037c-0.279,0.277-0.549,0.549-0.803,0.834
		c-0.814,0.906-0.883,1.498-0.883,3.08C30.295,34.259,29.701,34.853,28.971,34.853"/>
	<path fill="#334171" d="M30.361,38.622c0,0.756-0.605,1.369-1.359,1.369c-0.757,0-1.367-0.613-1.367-1.369
		c0-0.752,0.609-1.365,1.367-1.365C29.756,37.257,30.361,37.87,30.361,38.622"/>
	<path fill="#334171" d="M29,40.515c-1.042,0-1.89-0.846-1.89-1.893c0-1.039,0.848-1.894,1.89-1.894
		c1.039,0,1.898,0.854,1.898,1.894C30.898,39.669,30.039,40.515,29,40.515 M29,37.79c-0.463,0-0.835,0.373-0.835,0.832
		c0,0.465,0.373,0.836,0.835,0.836s0.836-0.371,0.836-0.836C29.836,38.163,29.463,37.79,29,37.79"/>
</g>
</svg>
