<?xml version="1.0" encoding="utf-8"?>
<!-- Generator: Adobe Illustrator 15.1.0, SVG Export Plug-In . SVG Version: 6.00 Build 0)  -->
<!DOCTYPE svg PUBLIC "-//W3C//DTD SVG 1.1//EN" "http://www.w3.org/Graphics/SVG/1.1/DTD/svg11.dtd">
<svg version="1.1" id="Warstwa_1" xmlns="http://www.w3.org/2000/svg" xmlns:xlink="http://www.w3.org/1999/xlink" x="0px" y="0px"
	 width="56px" height="56px" viewBox="0 0 56 56" enable-background="new 0 0 56 56" xml:space="preserve">
<g>
	<g>
		<g>
			<path fill="#334171" d="M37.637,34.255c-1.658-1.66-3.893-2.617-6.383-2.617c-0.062,0-0.127,0-0.127,0H6.044
				c-0.894,0-1.659,0.701-1.659,1.659c0,0.83,0.766,1.596,1.659,1.596h25.083c0.064,0,0.064,0,0.127,0
				c1.596,0,3.002,0.639,4.086,1.659c1.021,1.021,1.66,2.489,1.66,4.085s-0.639,3-1.66,4.084c-1.021,1.021-2.49,1.659-4.086,1.659
				c-1.594,0-2.999-0.638-4.083-1.659c-1.021-1.021-1.659-2.488-1.659-4.084c0-0.894-0.766-1.659-1.659-1.659
				c-0.895,0-1.596,0.766-1.596,1.659c0,2.489,1.021,4.723,2.616,6.383c1.66,1.659,3.894,2.616,6.381,2.616
				c2.49,0,4.725-1.021,6.383-2.616c1.66-1.66,2.617-3.894,2.617-6.383C40.254,38.148,39.234,35.914,37.637,34.255z"/>
		</g>
	</g>
	<g>
		<g>
			<path fill="#334171" d="M48.359,9.619c-2.043-2.043-4.785-3.255-7.852-3.255c-3.062,0-5.871,1.276-7.848,3.255
				c-2.043,2.042-3.256,4.786-3.256,7.851c0,0.894,0.766,1.659,1.658,1.659c0.895,0,1.662-0.766,1.662-1.659
				c0-2.171,0.891-4.149,2.297-5.554c1.402-1.403,3.381-2.297,5.551-2.297s4.15,0.894,5.553,2.297
				c1.404,1.404,2.299,3.383,2.299,5.554c0,2.17-0.895,4.147-2.299,5.553c-1.402,1.402-3.383,2.296-5.553,2.296
				c-0.064,0-0.127,0-0.127,0H8.152c-0.895,0-1.66,0.703-1.66,1.66s0.638,1.596,1.596,1.596h32.293c0.064,0,0.064,0,0.127,0
				c3.066,0,5.873-1.276,7.852-3.256c2.043-2.042,3.256-4.787,3.256-7.849C51.615,14.405,50.338,11.597,48.359,9.619z"/>
		</g>
	</g>
</g>
</svg>
